<svg width="620" height="618" viewBox="0 0 620 618" fill="none" xmlns="http://www.w3.org/2000/svg">
<rect x="64.8315" y="62.5256" width="495" height="495" rx="247.5" transform="rotate(0.590624 64.8315 62.5256)" stroke="#5D6363" stroke-width="5"/>
<rect x="253.5" y="611.5" width="119" height="119" rx="59.5" transform="rotate(-90 253.5 611.5)" fill="#5D6363" stroke="#5D6363" stroke-width="5"/>
<path d="M349.011 577.723L323.371 533.637L313.186 516H312.826L302.641 533.637L277.001 577.723C286.19 577.723 295.558 577.723 304.686 577.723C307.45 573.219 310.177 568.526 312.826 563.871H313.186C315.932 568.545 318.603 573.09 321.325 577.723C330.758 577.723 339.465 577.723 349.011 577.723Z" fill="#2C2C2C"/>
<path d="M334.803 577.723L313.08 541.178L291.829 577.723L304.686 577.723L313.186 563.871L321.325 577.723L334.803 577.723Z" fill="#CCCCCC"/>
<rect x="613.136" y="252.136" width="119" height="119" rx="59.5" transform="rotate(90 613.136 252.136)" fill="#5D6363" stroke="#5D6363" stroke-width="5"/>
<rect x="7.13574" y="371.136" width="119" height="119" rx="59.5" transform="rotate(-90 7.13574 371.136)" fill="#5D6363" stroke="#5D6363" stroke-width="5"/>
<rect x="533.28" y="208.911" width="119" height="118" rx="59" transform="rotate(-164.114 533.28 208.911)" fill="#5D6363" stroke="#5D6363" stroke-width="5"/>
<path d="M491.544 142.435C490.999 145.018 490.606 147.616 492.916 149.81C494.856 151.653 496.79 151.656 498.058 150.322C499.574 148.726 499.06 147.159 497.809 144.201L497.112 142.591C495.096 137.95 494.555 134.021 498.158 130.23C501.477 126.735 506.679 126.617 510.859 130.589C513.836 133.417 514.995 136.479 513.973 140.645L508.114 139.512C508.674 137.318 508.342 135.93 506.998 134.653C505.626 133.35 503.936 133.39 502.861 134.521C501.533 135.919 501.866 137.311 503.052 140.085L503.748 141.695C506.118 147.171 506.718 151.035 503.021 154.927C499.037 159.12 493.542 158.272 489.096 154.049C484.748 149.918 484.351 145.39 485.543 141.383L491.544 142.435ZM474.632 126.595C474.117 128.605 474.272 130.675 475.876 132.199C477.41 133.656 478.869 133.889 481.107 131.533L495.694 116.179L500.526 120.77L485.235 136.866C480.597 141.748 475.655 141.28 471.519 137.351C467.783 133.801 467.491 128.707 468.626 125.311L474.632 126.595Z" fill="#CCCCCC"/>
<path d="M33.0337 282.269C32.4232 282.812 32.0747 283.585 32.0747 284.396L32.0747 339.688C32.0747 340.499 32.4232 341.272 33.0337 341.815C33.6442 342.357 34.4592 342.614 35.2713 342.526L92.3576 336.239C93.5181 336.113 94.4886 335.3 94.8083 334.186L100.962 312.83C101.037 312.573 101.075 312.307 101.075 312.045C101.075 311.782 101.037 311.517 100.962 311.26L94.8083 289.904C94.4886 288.79 93.5181 287.979 92.3576 287.851L35.2713 281.561C34.4592 281.47 33.6442 281.727 33.0337 282.269ZM53.4716 295.971L53.4716 321.467L60.7921 320.861L60.7921 296.585L82.4194 298.406L86.7909 312.033L86.7477 312.168L82.4136 325.644L73.6014 326.38L73.6014 319.779L77.0255 319.491L78.6987 311.962L77.0226 304.564L67.7698 303.779L67.7698 326.877L46.4737 328.664L46.4737 295.377L53.4716 295.971Z" fill="#CCCCCC"/>
<rect x="252.753" y="5.52564" width="119" height="119" rx="59.5" transform="rotate(0.590624 252.753 5.52564)" fill="#5D6363" stroke="#5D6363" stroke-width="5"/>
<path d="M322.392 77.1345C322.257 77.1331 322.124 77.1236 321.99 77.1044L296.024 73.5865C295.71 73.5443 295.4 73.455 295.111 73.322L280.553 66.6716C279.58 66.226 278.889 65.3316 278.703 64.2766C278.519 63.2217 278.866 62.1446 279.631 61.3952L305.602 35.9524C307.183 34.4037 309.236 33.5733 311.481 33.6339C313.691 33.6859 315.739 34.6073 317.245 36.2284L342.769 63.7329C343.483 64.5024 343.782 65.5715 343.57 66.5996C343.358 67.6278 342.662 68.4916 341.7 68.9156L323.742 76.8559C323.313 77.0449 322.854 77.1393 322.392 77.1345ZM297.374 67.2106L321.953 70.5419L334.902 64.817L312.478 40.6515C312.073 40.2134 311.582 40.1385 311.325 40.1326C311.039 40.1492 310.574 40.1801 310.149 40.5966L287.559 62.7266L297.374 67.2106Z" fill="#CCCCCC"/>
<path d="M322.426 73.8847L340.383 65.9444L331.256 56.1095L324.201 59.2772L320.985 55.9939L314.452 59.1767L308.019 52.6101L301.452 59.0427L286.828 58.892L281.903 63.7164L296.46 70.3669L322.426 73.8847Z" fill="#CCCCCC"/>
<path d="M288.42 62.1585C288.42 62.1585 301.524 69.1125 289.911 75.1746C286.691 76.8559 283.378 78.3574 299.577 83.3997C299.577 83.3997 302.81 85.0581 301.168 86.6662C299.636 88.1667 295.264 91.05 303.895 92.8453C304.939 93.0625 305.687 93.964 305.699 95.0318C305.712 96.4165 306.32 98.095 309.175 98.1244C309.175 98.1244 317.3 98.2081 320.583 94.9918C321.404 94.1877 320.6 93.3669 317.367 91.7085C314.134 90.0501 327.167 86.9343 328.808 85.3261C332.995 81.2253 324.001 78.7762 324.017 77.1513C324.034 75.5264 325.692 72.2933 328.959 70.7019C332.226 69.1105 288.42 62.1585 288.42 62.1585Z" fill="#CCCCCC"/>
<path d="M297.918 86.6327C297.935 85.0078 289.827 83.2992 288.152 88.1572C287.674 89.5417 288.102 93.0319 292.993 91.4572C294.633 90.9297 297.901 88.2577 297.918 86.6327Z" fill="#CCCCCC"/>
<path d="M333.699 83.7514C333.699 83.7514 333.733 80.5016 338.608 80.5519C343.482 80.6021 343.449 83.8519 343.449 83.8519C343.449 83.8519 343.432 85.4768 338.557 85.4266C333.683 85.3763 333.699 83.7514 333.699 83.7514Z" fill="#CCCCCC"/>
<path d="M332.024 88.6094C332.024 88.6094 330.349 93.4674 333.599 93.5009C336.849 93.5344 335.893 90.9163 335.257 90.2678C333.649 88.6262 332.024 88.6094 332.024 88.6094Z" fill="#CCCCCC"/>
<path d="M299.727 68.7754C296.094 68.738 310.172 80.2587 315.097 75.4342C318.497 72.1037 306.227 68.8425 299.727 68.7754Z" fill="#5D6363"/>
<path d="M588.131 281.641L526.931 288.419L520.131 312.115L526.931 335.864L588.131 342.641L588.131 281.641ZM559.749 328.159L538.525 326.862L533.731 312.234L538.525 297.606L548.672 297.05L548.672 304.463L544.064 304.649L541.474 312.234L544.064 319.833L552.364 320.389L552.364 304.093L559.749 303.722L559.749 320.746L567.133 321.302L567.133 295.753L574.504 295.197L574.504 329.086L559.749 328.159Z" fill="#CCCCCC"/>
<rect x="148.03" y="567.509" width="119" height="119" rx="59.5" transform="rotate(-139.377 148.03 567.509)" fill="#5D6363" stroke="#5D6363" stroke-width="5"/>
<path d="M179.988 464.894C184.421 469.313 184.403 476.519 179.947 480.989C175.492 485.459 168.285 485.501 163.852 481.083L158.119 475.368C156.853 474.106 156.858 472.046 158.131 470.769L163.893 464.988C168.349 460.518 175.555 460.476 179.988 464.894ZM119.581 485.364L125.314 491.079C126.58 492.341 126.575 494.401 125.302 495.678L113.777 507.241C112.504 508.518 110.444 508.53 109.178 507.268L103.445 501.553C99.0118 497.135 99.0302 489.928 103.486 485.458C107.941 480.988 115.148 480.946 119.581 485.364ZM123.512 521.555L117.779 515.84C116.513 514.578 116.518 512.518 117.791 511.241L129.316 499.678C130.588 498.401 132.649 498.389 133.915 499.652L139.648 505.366C144.081 509.785 144.063 516.991 139.607 521.461C135.152 525.931 127.945 525.973 123.512 521.555ZM143.682 501.319L137.949 495.604C136.683 494.342 136.688 492.282 137.961 491.005L149.486 479.442C150.759 478.165 152.819 478.153 154.085 479.416L159.818 485.13C164.251 489.549 164.233 496.755 159.777 501.225C155.322 505.695 148.115 505.737 143.682 501.319ZM123.615 481.317C125.744 483.439 128.635 484.621 131.654 484.604C134.672 484.586 137.57 483.37 139.71 481.223C141.849 479.077 143.056 476.175 143.064 473.156C143.071 470.138 141.88 467.25 139.751 465.128C137.622 463.006 134.73 461.824 131.712 461.842C128.693 461.859 125.796 463.075 123.656 465.222C121.516 467.369 120.31 470.27 120.302 473.289C120.294 476.307 121.486 479.195 123.615 481.317Z" fill="#CCCCCC"/>
</svg>
