<svg width="900" height="763" viewBox="0 0 900 763" fill="none" xmlns="http://www.w3.org/2000/svg">
<path d="M205.762 0C207.067 1.46014 209.242 3.67605 211.726 6.04492C218.72 12.7158 219.508 14.0408 219.809 19.6445C219.862 20.5762 221.939 21.9465 224.944 23.0273C230.489 25.0212 234.014 28.6385 234.014 32.3359C234.014 34.0245 233.442 34.7216 232.057 34.7217C229.408 34.7217 216.625 30.0495 212.019 27.3984C208.409 25.3209 208.348 25.3177 210.058 27.293C212.295 29.8782 212.366 34.5759 210.179 35.415C209.274 35.7615 201.898 33.8395 193.788 31.1426C179.34 26.3381 178.918 26.1146 172.989 20.123C169.661 16.7594 165.849 13.1072 164.521 12.0078L162.104 10.0088L163.42 12.5303C164.143 13.9172 168.862 19.1892 173.905 24.2451C181.62 31.9781 188.571 37.2913 200.34 44.4512C203.372 46.296 200.764 47.9308 193.777 48.5645C189.021 48.9958 187.84 49.4115 188.639 50.374C189.346 51.2268 189.349 52.4838 188.646 54.333C188.079 55.8235 187.615 58.4935 187.615 60.2656C187.615 63.7838 184.795 66.3924 182.107 65.3613C181.165 64.9999 180.554 65.321 180.554 66.1768C180.552 67.879 172.256 72.0602 159.902 76.585C154.896 78.4187 148.638 80.8938 145.996 82.085C143.355 83.276 140.826 84.024 140.378 83.7471C139.928 83.4704 134.841 83.7171 129.072 84.2949C117.99 85.4052 111.336 87.8507 107.426 92.25L105.408 94.5195L125.537 93.9531C142.268 93.4823 146.159 93.6422 148.595 94.9014C150.206 95.7346 151.24 95.9568 150.893 95.3945C150.545 94.8323 150.745 94.0733 151.336 93.708C152.674 92.8812 167.187 96.0327 167.985 97.3232C169.446 99.6865 172.649 97.9585 176.52 92.7197C180.723 87.0296 182.656 86.2095 187.11 88.2275C188.568 88.888 188.107 88.9831 185.446 88.5684C181.923 88.0191 181.588 88.233 177.653 93.5596C175.392 96.6204 172.619 99.4179 171.49 99.7764C170.128 100.209 169.697 100.89 170.208 101.803C170.632 102.56 179.107 107.303 189.042 112.345L207.105 121.512L209.717 119.251C211.152 118.008 210.639 118.77 208.576 120.945L204.825 124.9L200.747 122.607C198.504 121.347 195.879 120.503 194.915 120.734C193.355 121.108 193.384 121.244 195.18 121.969C198.367 123.254 200.728 125.656 200.728 127.613C200.728 129.967 193.076 131.239 188.505 129.646C184.517 128.255 183.64 128.247 185.598 129.617C186.829 130.479 186.735 130.581 185.093 130.16C183.983 129.876 181.328 129.333 179.193 128.954C176.499 128.476 175.727 128.002 176.672 127.403C177.568 126.835 176.759 126.536 174.3 126.525C171.595 126.514 165.471 123.903 152.053 117.04C132.445 107.011 125.566 104.787 116.481 105.54C113.62 105.777 109.504 106.904 107.335 108.043C103.66 109.974 103.413 110.381 103.713 114.025C103.89 116.176 105.034 119.752 106.255 121.971C108.298 125.685 109.272 126.294 118.541 129.646C124.078 131.649 133.128 134.966 138.652 137.018C144.326 139.124 152.989 141.389 158.56 142.222C170.274 143.973 173.089 144.936 176.771 148.449C181.39 152.856 180.533 154.057 173.363 153.225C169.05 152.724 167.384 152.835 167.852 153.591C168.561 154.739 169.764 154.975 184.043 156.774C193.516 157.968 198.967 160.237 198.477 162.783C197.916 165.692 193.08 166.382 186.162 164.539C182.618 163.595 178.204 162.84 176.354 162.862L172.989 162.902L175.871 164.464C177.456 165.323 182.676 166.4 187.471 166.857C197.182 167.785 201.498 169.097 202.377 171.388C203.214 173.573 197.601 186.472 196.54 184.8C195.948 183.867 195.689 184.069 195.622 185.517C195.432 189.667 194.739 191.421 191.913 194.913C189.604 197.766 187.078 199.186 179.549 201.864C169.398 205.475 167.207 206.595 172.271 205.582C176.63 204.71 182.571 205.947 182.571 207.726C182.571 208.517 180.346 210.121 177.627 211.291C171.533 213.913 168.198 217.326 168.198 220.94C168.198 223.793 170.709 226.385 173.434 226.344C174.298 226.331 176.709 225.925 178.789 225.441C180.869 224.958 182.571 224.888 182.571 225.284C182.573 226.354 189.801 234.604 190.3 234.105C190.534 233.868 189.833 231.324 188.741 228.45C187.067 224.044 186.982 223.135 188.201 222.667C190.456 221.802 193.932 224.636 198.179 230.803L202.071 236.454H208.828C214.035 236.454 216.168 236.913 218.124 238.451C220.526 240.341 220.909 240.364 225.253 238.884C230.341 237.15 233.912 238.114 234.137 241.281C234.699 249.187 234.061 251.888 230.081 258.476C227.311 263.06 225.944 266.5 225.944 268.885C225.944 274.591 221.957 285.984 214.878 300.505C207.478 315.684 208.743 314.885 198.821 310.639C176.654 301.151 149.44 279.002 132.734 256.852C126.175 248.154 124.894 245.148 127.347 244.209C128.04 243.943 124.296 243.977 119.025 244.282C106.725 244.995 104.656 246.24 105.214 252.593C106.16 263.373 112.793 271.335 134.133 287.305C141.61 292.9 150.689 300.274 154.307 303.689C160.665 309.692 165.401 316.497 164.115 317.784C163.772 318.127 161.647 317.671 159.394 316.77C157.14 315.868 155.162 315.131 154.998 315.131C154.63 315.133 149.656 326.023 148.846 328.603C148.389 330.057 147.641 330.333 145.493 329.84C140.751 328.751 112.562 314.369 103.785 308.562C97.5963 304.466 94.4897 303.026 91.8408 303.025C89.8717 303.025 85.4668 301.702 82.0518 300.087C75.5176 296.996 54.8074 284.134 50.3311 280.387C48.8864 279.177 44.1206 276.344 39.7402 274.09C21.9332 264.927 14.9077 264.634 6.82129 272.721C1.6331 277.909 0.88485 280.779 3.44336 285.677C5.92182 290.421 10.2257 293.558 24.2109 300.811C31.7003 304.695 47.0068 312.657 58.2256 318.504C78.8738 329.266 97.9355 338.122 107.325 341.313C110.154 342.275 112.469 343.652 112.469 344.373C112.466 345.725 101.256 349.338 90.4561 351.467L84.5811 352.625L88.4385 354.629C92.765 356.877 95.8262 360.015 95.8262 362.201C95.826 364.327 86.5972 368.211 72.1104 372.182C65.1241 374.097 57.5025 376.647 55.1738 377.85C50.4515 380.288 47.4782 380.333 34.2979 378.167C20.3944 375.882 11.4534 375.268 10.666 376.542C10.2834 377.161 10.2202 377.668 10.5254 377.668C10.8316 377.668 16.4186 378.759 22.9414 380.094C47.8315 385.186 65.9567 386.623 82.3994 384.808L93.4346 383.589L98.917 387.1C107.854 392.822 109.825 394.715 110.902 398.615C112.426 404.133 110.694 405.012 106.435 400.884C102.538 397.108 102.566 397.105 101.151 401.371C100.417 403.586 99.6362 404.288 98.2393 403.99C95.3835 403.382 86.7945 403.51 86.1328 404.172C84.993 405.312 86.9882 409.101 91.9766 415.27C97.2374 421.775 99.5573 425.714 98.6572 426.614C98.3695 426.901 95.2665 426.468 91.7617 425.65C85.6461 424.224 81.9137 424.487 84.8623 426.137C86.8154 427.23 109.454 432.442 128.104 436.093C159.039 442.148 163.379 443.277 172.232 447.564C178.792 450.741 177.896 452.522 168.702 454.588C155.362 457.585 150.31 456.904 143.016 451.127L139.053 447.989L134.611 450.207C127.937 453.54 115.324 456.084 97.2793 457.735C87.008 458.675 78.7669 459.998 74.7568 461.349C68.3506 463.507 60.5232 467.841 60.5225 469.231C60.5225 470.503 69.5917 473.303 79.1826 474.992C93.7245 477.553 115.196 476.234 142.729 471.089C147.168 470.259 156.843 468.78 164.229 467.801C175.926 466.251 177.783 466.211 178.604 467.486C179.296 468.561 178.673 469.769 176.263 472.018C173.527 474.571 171.57 475.298 164.562 476.371C155.732 477.723 151.303 479.212 151.303 480.83C151.303 481.417 153.886 481.518 157.905 481.087C169.095 479.889 170.529 483.579 161.928 491.439C149.259 503.018 135.974 507.779 99.3564 513.863C65.8002 519.438 54.7808 523.453 44.3232 533.91C38.8527 539.381 34.2979 547.048 34.2979 550.785C34.2987 553.792 44.1935 561.207 51.7773 563.883C55.7541 565.286 56.2873 565.207 65.5312 561.831C70.8205 559.9 81.795 556.494 89.918 554.263C109.384 548.916 119.548 545.132 128.944 539.731C145.992 529.933 152.777 527.849 159.964 530.204C165.777 532.109 165.521 534.296 159.166 537.017C152.532 539.856 148.07 542.946 148.829 544.174C150.393 546.703 157.147 543.76 172.94 533.667C182.303 527.684 191.17 524.324 194.67 525.435C200.397 527.253 193.644 536.568 184.407 539.593C173.113 543.291 165.477 548.31 168.397 550.116C170.841 551.627 177.912 548.821 185.924 543.161C197.589 534.921 208.073 531.212 210.711 534.391C211.607 535.471 211.668 536.449 210.926 537.836C209.671 540.18 196.472 552.063 188.119 558.371C175.797 567.676 153.393 579.734 139.621 584.472C132.919 586.778 130.463 586.961 129.85 585.2C129.608 584.507 129.085 585.981 128.688 588.478C128.29 590.974 127.287 595.147 126.459 597.75C125.103 602.015 125.115 602.726 126.576 604.957C128.404 607.746 130.815 608.623 136.677 608.627C146.435 608.634 154.384 604.458 176.002 587.966C193.461 574.646 208.255 567.09 211.168 570.004C211.547 570.384 210.399 572.199 208.616 574.038L205.375 577.383L208.599 580.709C211.785 583.997 212.687 586.816 210.904 587.918C210.399 588.23 205.238 595.86 199.437 604.873C180.735 633.925 181.213 633.118 183.4 631.947C185.912 630.603 189.438 626.033 198.013 613.013C205.076 602.287 211.179 596.09 215.489 595.266C219.217 594.553 219.394 596.6 216.09 602.209C211.563 609.894 209.455 616.231 210.195 619.932C211.045 624.181 214.54 627.812 217.799 627.831C223.001 627.864 223.239 628.568 222.709 642.336C222.44 649.328 222.39 655.048 222.6 655.05C222.809 655.05 224.375 653.461 226.08 651.52C229.316 647.835 234.108 646.702 235.683 649.25C236.288 650.238 237.885 682.338 238.022 696.301C238.036 697.63 235.935 703.304 233.354 708.909C227.596 721.416 223.927 730.609 223.927 732.528C223.927 735.82 226.997 731.088 233.8 717.311C245.213 694.196 251.26 676.867 252.982 662.345C253.667 656.576 253.837 656.312 260.545 650.632C268.495 643.899 271.829 642.417 275.704 643.891C279.464 645.32 279.063 646.73 274.36 648.611C269.692 650.479 269.321 651.609 272.848 653.216C275.685 654.509 276.014 656.634 273.824 659.529C273.01 660.606 272.343 662.736 272.343 664.262C272.343 665.787 271.882 667.32 271.318 667.669C269.811 668.601 271.146 670.18 273.441 670.18C274.535 670.18 278.254 668.983 281.704 667.521C285.155 666.058 289.363 664.274 291.057 663.556C296.071 661.43 297.296 663.096 294.557 668.316C291.911 673.359 290.019 679.132 291.495 677.656C293.549 675.603 305.485 654.759 312.689 640.646C317.327 631.562 320.84 625.822 321.768 625.813C324.169 625.794 331.41 640.395 334.766 652.024C336.446 657.849 338.768 667.608 339.927 673.71C341.085 679.812 342.687 687.308 343.485 690.366C344.644 694.803 344.699 696.738 343.76 699.948C343.112 702.161 342.553 708.963 342.515 715.065C342.455 724.565 342.775 726.876 344.737 731.132C346.043 733.962 347.39 735.699 347.867 735.166C349.606 733.222 352.337 719.304 353.592 705.987C354.944 691.643 358.228 679.688 362.658 672.976C364.023 670.907 365.141 668.392 365.141 667.386C365.141 666.38 363.098 663.552 360.602 661.102C355.648 656.24 355.354 654.936 357.568 647.636C358.385 644.945 359.354 639.802 359.723 636.207C360.291 630.656 360.738 629.54 362.687 628.799C364.575 628.081 365.106 626.891 365.686 622.071C366.383 616.27 368.317 612.686 370.748 612.686C371.967 612.686 376.535 619.528 378.887 624.876C382.972 634.166 384.548 657.149 382.307 674.719C378.945 701.063 378.27 708.07 378.262 716.646C378.249 729.275 379.729 736.902 383.627 744.317C387.144 751.008 395.549 759.951 398.32 759.951C399.298 759.951 402.219 758.543 404.814 756.824C407.41 755.105 411.247 751.693 413.343 749.241L417.153 744.783L416.863 712.272C416.575 679.997 416.283 676.588 412.374 660.092C409.636 648.538 410.08 638.648 413.566 633.53C417.608 627.598 418.571 628.316 420.104 638.405C420.937 643.893 422.618 648.996 423.591 648.996C424.031 648.995 424.67 647.254 425.011 645.126C425.638 641.199 425.196 639.047 420.158 621.555C418.608 616.17 417.566 611.176 417.842 610.456C418.118 609.736 420.04 608.534 422.112 607.784C427.577 605.808 428.997 607.609 429.77 617.497C430.791 630.568 435.745 638.236 435.745 626.746C435.745 623.693 436.19 621.763 436.894 621.763C437.526 621.763 440.135 623.692 442.693 626.05C447.206 630.209 447.355 630.264 447.687 627.919C448.478 622.319 443.74 612.103 442.206 616.102C441.269 618.544 438.462 618.065 435.491 614.954C432.021 611.321 427.941 597.145 429.74 594.977C431.35 593.037 432.338 593.139 434.685 595.485C436.633 597.434 436.656 597.434 437.274 595.485C438.201 592.567 445.87 592.853 452.767 596.063L458.188 598.587L462.704 594.425C466.733 590.711 467.615 590.326 470.899 590.848C473.172 591.209 475.543 592.528 477.101 594.297C478.487 595.872 483.253 601.402 487.691 606.585C497.083 617.552 518.482 642.207 519.249 642.944C519.537 643.22 518.499 641.068 516.941 638.161C515.384 635.253 510.297 628.445 505.638 623.031C496.669 612.611 492.839 606.362 491.698 600.283C490.561 594.223 493.159 594.506 499.42 601.126C507.97 610.166 514.44 612.557 520.564 608.939C524.325 606.718 525.241 602.27 523.027 596.973C522.123 594.809 521.627 592.072 521.923 590.892C522.721 587.711 519.908 579.305 516.448 574.528C514.779 572.223 513.413 569.539 513.413 568.563C513.414 567.587 515.456 564.188 517.952 561.009C520.448 557.829 522.49 554.641 522.49 553.925C522.49 553.207 521.129 549.085 519.465 544.764C516.165 536.194 515.758 531.835 517.899 527.967C519.209 525.601 519.035 525.185 514.879 520.741C512.453 518.148 510.198 514.949 509.867 513.631C509.107 510.604 510.892 505.766 512.768 505.766C514.245 505.766 525.251 517.006 528.238 521.564L529.945 524.169L531.037 520.263C532.921 513.523 534.774 514.398 548.843 528.674C560.631 540.635 561.676 542.013 563.236 547.625C566.036 557.695 568.292 563.087 568.67 560.608C569.102 557.769 561.4 534.217 557.512 526.487C555.825 523.134 553.155 518.494 551.58 516.175C548.69 511.92 547.892 508.792 549.696 508.792C550.236 508.793 553.073 509.851 556 511.144C562.025 513.805 568.341 515.557 565.863 513.881C564.687 513.085 564.539 512.895 565.422 512.842L566.305 512.811C567.187 512.759 567.04 512.578 565.863 511.817C564.555 510.972 564.578 510.838 566.032 510.824C569.204 510.798 576.457 507.045 580.489 503.35C584.26 499.894 584.853 499.686 589.567 500.161C592.342 500.44 600.965 501.179 608.731 501.804C621.144 502.801 623.777 503.347 630.49 506.306C634.69 508.157 639.379 509.986 640.91 510.37C642.441 510.754 643.93 511.685 644.219 512.438C646.115 517.378 607.177 562.602 602.554 560.829C601.199 560.309 601.04 560.746 601.582 563.499C601.938 565.309 602.508 569.266 602.849 572.291C603.647 579.391 606.034 581.694 611.758 580.892C620.474 579.669 630.037 570.757 638.664 555.815C651.627 533.365 658.562 523.277 664.278 518.561C668.521 515.06 670.115 515.789 669.262 520.839C668.637 524.539 668.706 524.641 672.973 526.264C675.364 527.173 678.806 528.212 680.62 528.571C682.435 528.931 684.108 529.53 684.338 529.902C685.609 531.968 673.156 566.274 667.182 577.163C664.541 581.976 663.704 584.703 663.704 588.488C663.704 595.1 660.392 603.62 650.151 623.349C637.498 647.726 633.676 660.198 636.363 668.341C638.093 673.58 644.466 679.303 649.292 679.95C652.768 680.417 653.788 680.053 657.051 677.188C661.734 673.076 663.86 668.869 671.802 647.987C675.283 638.834 680.593 624.99 683.601 617.224C690.751 598.762 697.23 579.698 699.457 570.572C700.438 566.551 701.673 563.261 702.199 563.26C703.442 563.26 709.191 576.09 711.602 584.244L713.481 590.603L715.315 585.757C717.153 580.902 719.405 578.39 721.917 578.39C724.09 578.39 728.937 587.015 733.914 599.741C736.468 606.272 739.862 613.673 741.457 616.188L744.356 620.759L744.442 640.406C744.488 651.212 744.94 660.307 745.442 660.618C746.799 661.457 747.225 658.29 748.293 639.414C749.667 615.128 748.978 603.15 745.296 587.314L743.268 578.587L747.251 570.671C751.77 561.692 753.764 559.52 758.333 558.606C762.369 557.799 762.671 559.833 759.023 563.26C755.614 566.463 755.853 568.113 759.78 568.491L763.058 568.808V576.612C763.058 583.953 763.178 584.38 765.075 583.793C768.109 582.854 771.546 580.158 777.649 573.93C785.097 566.33 786.053 566.495 785.192 575.231C784.729 579.928 784.872 582.385 785.636 582.856C786.255 583.239 786.765 583.185 786.77 582.736C786.774 582.288 787.217 579.197 787.754 575.868C788.999 568.153 791.406 544.64 792.812 526.443C794.775 501.048 797.534 489.123 801.446 489.123C804.381 489.123 808.175 500.279 808.328 509.361C808.434 515.603 808.094 517.023 805.596 520.806L802.744 525.124L806.835 533.349C809.085 537.872 811.723 544.751 812.697 548.635C813.672 552.518 814.874 555.985 815.37 556.339C815.866 556.693 815.988 557.442 815.641 558.004C814.879 559.237 817.495 573.897 819.729 580.912C822.027 588.125 825.592 594.889 829.356 599.177L832.617 602.89L833.417 599.466C835.41 590.937 835.934 584.922 834.81 583.492C833.903 582.34 833.96 582.216 835.085 582.894C836.286 583.617 836.399 582.115 835.818 573.138C834.773 556.972 832.719 546.896 824.964 519.888C819.588 501.166 815.984 485.219 816.919 484.284C817.441 483.763 818.596 483.811 819.688 484.398C823.666 486.542 826.012 490.401 827.944 497.981C830.178 506.744 833.314 512.692 833.979 509.428C834.191 508.39 833.813 505.572 833.139 503.164C831.647 497.835 832.484 493.662 835.046 493.662C839.799 493.662 850.067 503.996 856.496 515.251C861.937 524.776 864.681 532.29 872.002 557.701C879.399 583.376 882.63 591.734 888.498 600.375C891.782 605.21 895.732 609.288 900 612.361V614.773C890.242 608.428 883.105 598.184 877.511 582.832C876.318 579.558 873.342 569.739 870.899 561.013C861.249 526.543 855.737 514.411 844.568 503.053C834.737 493.055 832.115 493.339 835.75 504.008C836.981 507.621 837.078 509.137 836.186 510.805C833.491 515.839 829.024 510.792 826.144 499.453C824.215 491.864 821.83 487.215 819.339 486.193C818.674 485.921 818.301 486.24 818.511 486.907C818.721 487.572 819.642 491.294 820.558 495.178C821.474 499.061 824.033 508.593 826.244 516.359C836.66 552.941 839.332 569.882 837.318 586.559C835.018 605.612 834.332 607.022 829.555 602.534C822.363 595.778 818.324 585.885 813.959 564.344C810.382 546.692 807.934 539.089 803.401 531.562L799.954 525.836L802.993 520.896C804.665 518.18 806.281 514.425 806.585 512.552C807.145 509.1 805.177 499.733 802.59 493.531L801.173 490.134L799.099 497.195C797.023 504.262 795.407 516.468 794.291 533.507C793.245 549.474 790.286 575.147 788.623 582.68C786.653 591.601 782.155 586.816 782.967 576.663L783.388 571.402L776.101 578.324C768.546 585.5 764.301 587.47 760.629 585.505C758.805 584.529 758.622 581.419 760.388 581.419C760.745 581.419 761.037 578.922 761.037 575.871C761.037 570.852 760.828 570.323 758.85 570.323C755.854 570.323 753.472 569.312 753.472 568.041C753.472 567.459 754.689 565.388 756.177 563.438C758.794 560.006 757.94 559.877 754.156 563.133C753.146 564.002 750.755 568.102 748.842 572.242C745.429 579.63 745.391 579.857 746.825 584.377C750.498 595.949 751.867 616.908 750.388 638.913C749.053 658.77 747.51 669.173 745.898 669.173C743.452 669.173 742.984 665.562 742.596 643.685L742.205 621.726L738.925 616.278C737.12 613.282 734.365 607.276 732.802 602.933C729.758 594.477 723.797 581.9 722.433 581.056C720.719 579.997 718.731 582.46 716.717 588.139C714.455 594.514 711.107 596.897 711.107 592.132C711.107 589.886 708.285 580.964 703.777 568.956L702.317 565.068L701.637 569.965C700.879 575.418 692.919 599.196 685.139 619.244C682.34 626.456 678.164 637.35 675.859 643.452C665.365 671.24 664.202 673.625 658.728 678.571C653.947 682.89 649.012 683.5 644.031 680.386C629.129 671.068 629.796 658.932 647.094 624.636C658.506 602.009 661.682 593.899 661.683 587.386C661.683 583.722 662.55 580.908 665.143 576.158C670.435 566.461 681.856 536.596 681.856 532.45C681.856 531.733 680.399 530.826 678.618 530.435C676.837 530.043 673.375 528.864 670.925 527.813C666.583 525.953 666.484 525.807 667.052 522.141L667.635 518.377L661.885 524.506C658.461 528.156 652.123 537.379 646.217 547.307C640.762 556.475 634.271 566.559 631.794 569.716C626.137 576.924 617.896 582.333 611.398 583.103C604.543 583.914 601.693 581.164 600.769 572.845C598.961 556.573 598.972 555.814 601.068 553.176C602.648 551.187 603.334 550.915 604.31 551.888C605.259 552.835 605.276 553.713 604.385 555.67C603.746 557.072 603.596 558.219 604.051 558.22C605.348 558.22 625.429 537.206 630.558 530.481C633.096 527.153 636.811 521.865 638.812 518.73L642.451 513.031L639.854 512.379C638.426 512.021 634.015 510.214 630.053 508.364C623.363 505.241 621.524 504.889 604.258 503.416L585.666 501.83L581.967 505.172C579.932 507.01 576.384 509.345 574.081 510.361C569.624 512.328 568.97 513.267 571.407 514.202C573.256 514.912 573.427 517.872 571.619 517.872C569.07 517.872 558.637 514.815 554.711 512.918L550.719 510.989L552.566 513.675C559.474 523.714 567.677 544.225 571.39 560.74C572.263 564.624 573.205 568.542 573.483 569.447C573.766 570.365 573.307 571.355 572.445 571.686C570.46 572.447 565.557 562.952 562.276 551.99C560.981 547.663 559.553 543.464 559.103 542.659C557.801 540.334 535.591 517.879 534.586 517.872C534.09 517.872 533.547 520.447 533.381 523.593C533.019 530.425 531.369 531.489 528.971 526.436C528.016 524.423 524.045 519.374 520.147 515.215C514.367 509.047 512.894 507.948 512.164 509.253C510.797 511.697 512.204 514.723 517.186 520.049L521.724 524.9L520.088 528.348C517.792 533.186 517.982 534.819 522.072 545.506L525.691 554.962L520.559 561.331C517.736 564.833 515.428 568.133 515.427 568.664C515.427 569.194 516.585 571.146 518 573.002C521.827 578.02 523.746 583.279 524.017 589.488C524.15 592.539 524.834 596.424 525.538 598.121C527.483 602.809 526.139 607.715 522.167 610.418C515.226 615.142 506.728 612.331 497.504 602.262C493.572 597.97 493.253 597.802 493.829 600.333C495.139 606.092 498.557 611.499 507.379 621.766C518.854 635.12 524.544 645.973 520.07 645.973C519.294 645.97 508.555 634.161 496.205 619.727C482.254 603.422 472.85 593.255 471.38 592.886C468.621 592.194 464.77 594.411 462.369 598.075C460.319 601.205 458.799 601.201 452.032 598.049C449.065 596.667 444.83 595.537 442.622 595.537C438.624 595.537 438.61 595.551 439.298 598.815C439.678 600.618 440.395 602.525 440.892 603.052C442.768 605.044 441.867 607.641 439.301 607.642C437.146 607.642 436.588 606.887 435.194 602.094C434.143 598.477 433.042 596.546 432.032 596.546C431.174 596.546 430.708 597.133 430.987 597.86C431.265 598.584 432.272 601.956 433.226 605.355C434.199 608.825 436.017 612.53 437.368 613.8L439.776 616.062V613.365C439.776 610.048 441.726 609.872 444.518 612.937C447.88 616.628 449.122 619.812 449.816 626.521C450.628 634.359 449.308 634.783 442.566 628.849L438.011 624.839L437.527 629.879C436.969 635.693 436.292 636.725 433.99 635.273C430.842 633.288 428.311 626.641 427.719 618.808C426.994 609.225 426.565 608.482 422.625 609.969C420.963 610.596 419.604 611.407 419.604 611.77C419.605 612.136 421.245 617.822 423.25 624.408C428.136 640.461 428.325 652.022 423.702 652.022C421.377 652.022 418.722 645.694 417.715 637.752L417.03 632.354L415.094 635.251C411.806 640.171 411.926 648.065 415.535 664.28C418.726 678.615 418.759 679.042 419.002 709.517C419.137 726.437 419.583 741.023 419.993 741.931C421.101 744.384 413.223 753.567 405.614 758.689C402.112 761.047 398.899 762.976 398.475 762.976C398.049 762.975 395.551 761.331 392.919 759.321C387.196 754.951 380.861 745.518 378.472 737.807C376.091 730.125 376.198 701.28 378.661 686.317C379.62 680.492 380.668 669 380.99 660.778C381.797 640.183 379.854 629.759 373.191 618.935C369.925 613.628 368.69 614.549 367.634 623.081C367.115 627.271 366.461 629.062 364.959 630.201L364.334 630.641C362.829 631.779 362.195 633.531 361.715 637.676C361.347 640.851 360.322 646.046 359.437 649.222L357.827 654.995L362.996 660.651C365.838 663.761 368.164 666.668 368.165 667.111C368.165 667.554 366.628 670.469 364.75 673.587C359.398 682.476 357.146 691.202 355.021 711.285C354.419 716.973 353.356 723.831 352.657 726.524C351.447 731.19 351.48 731.398 353.353 730.908C356.096 730.191 359.037 734.337 359.064 738.961C359.091 743.2 357.954 744.355 355.208 742.886C354.026 742.253 353.035 740.228 352.595 737.544L351.886 733.221L350.411 735.994C348.678 739.253 347.876 739.411 345.634 736.933C340.532 731.295 338.621 716.112 341.283 702.368C342.398 696.611 342.343 694.728 340.864 688.247C339.926 684.134 337.934 674.93 336.437 667.793C334.939 660.656 332.552 651.351 331.132 647.115C328.578 639.5 323.2 628.822 321.922 628.828C321.559 628.831 319.241 632.802 316.772 637.653C303.973 662.806 292.698 681.417 290.497 681.023C288.032 680.581 288.219 676.075 290.925 670.732C292.316 667.986 293.319 665.604 293.154 665.439C292.986 665.278 289.19 666.729 284.716 668.668C275.778 672.541 271.93 673.007 268.53 670.626C265.741 668.672 265.614 666.144 268.306 666.144C269.839 666.144 270.323 665.471 270.323 663.343C270.323 661.802 271.016 659.55 271.864 658.34C273.321 656.261 273.237 656.051 270.352 654.559C266.413 652.522 266.483 650.472 270.575 647.977C273.37 646.272 273.533 645.978 271.683 645.975C270.489 645.972 266.315 648.581 262.409 651.771C256.225 656.82 255.3 658.009 255.25 660.963C255.151 666.835 250.112 685.364 245.423 697.096C237.602 716.664 224.074 741.791 221.358 741.794C219.488 741.794 219.496 741.635 221.91 732.197C223.022 727.851 226.516 718.813 229.674 712.114L235.416 699.935L235.188 680.266C234.895 654.897 234.37 650.005 231.938 650.005C230.925 650.005 228.183 652.275 225.844 655.049C220.792 661.04 218.357 661.692 219.257 656.813C219.589 655.01 220.161 648.202 220.528 641.684L221.195 629.832H218.036C212.912 629.832 208.637 625.262 208.072 619.181C207.67 614.846 208.154 613.115 211.795 605.876C214.097 601.299 216.482 597.555 217.095 597.555C217.707 597.555 217.948 597.294 217.63 596.976C216.678 596.024 211.535 599.166 208.154 602.764C206.415 604.614 201.722 611.121 197.724 617.224C193.725 623.326 189.246 629.607 187.771 631.183C183.742 635.487 177.525 638.378 177.525 635.947C177.528 634.922 191.657 612.581 203.037 595.609L210.09 585.09L206.92 582.259C203.191 578.927 203.02 577.575 205.866 573.956L207.98 571.268L203.597 573.005C196.502 575.817 189.967 580 175.384 591.064C154.538 606.88 147.208 610.639 137.179 610.65C131.54 610.657 125.076 608.932 125.075 607.421C125.075 606.797 124.336 605.47 123.433 604.472C121.915 602.795 121.919 602.387 123.484 599.087C124.416 597.123 125.676 592.696 126.283 589.249C127.765 580.837 134.003 574.198 135.865 579.051C136.275 580.119 135.679 581.391 134.209 582.581C131.178 585.035 131.67 584.958 141.175 581.489C159.961 574.633 182.913 560.836 198.702 546.908C209.626 537.272 211.036 534.797 205.075 535.717C200.294 536.455 196.846 538.161 189.125 543.611C180.034 550.029 174.703 552.407 169.096 552.546C162.644 552.705 162.153 551.158 167.094 546.232C169.821 543.513 173.628 541.362 179.949 538.966C188.718 535.642 195.198 530.976 194.358 528.592C193.273 525.511 182.159 529.812 169.994 538.021C160.184 544.64 154.833 547.071 150.008 547.099C141.99 547.145 145.108 541.06 155.562 536.262C162.224 533.203 161.914 531.777 154.599 531.834C148.674 531.88 143.5 533.807 132.64 540.013C120.769 546.796 113.962 549.598 99.3535 553.718C92.1415 555.752 80.1133 559.47 72.624 561.979C65.1347 564.489 57.4182 566.569 55.4766 566.601C47.4844 566.732 30.3977 554.544 31.877 549.768C34.7861 540.375 42.6441 530.589 51.5986 525.205C61.0243 519.538 76.1913 515.241 98.8496 511.817C130.921 506.972 148.953 500.592 160.22 490.105C167.162 483.644 166.684 482.277 157.801 483.188C151.514 483.832 148.274 482.887 148.274 480.41C148.275 478.347 155.131 475.599 163.103 474.468C169.472 473.564 172.311 472.657 174.325 470.883C176.436 469.024 176.65 468.502 175.312 468.477C173.003 468.43 148.707 472.043 138.691 473.917C124.453 476.581 106.767 478.532 96.874 478.528C80.8716 478.523 57.4948 473.359 57.4941 469.829C57.4941 468.196 64.6272 462.835 69.5977 460.732C75.5942 458.196 84.6605 456.528 98.8496 455.351C116.785 453.863 123.059 452.661 132.029 448.994C136.815 447.038 139.925 446.271 140.707 446.855C149.553 453.471 150.458 453.822 158.296 453.693C162.492 453.624 167.742 452.877 169.961 452.033L173.995 450.499L168.319 447.939C162.82 445.46 155.971 443.708 140.205 440.748C111.882 435.431 86.7664 429.645 82.459 427.445C76.0151 424.155 82.1997 421.158 91.0059 423.304C97.5326 424.894 97.6055 425.493 90.1768 416.498C84.7736 409.956 83.7198 407.822 83.7197 403.421C83.7197 399.621 86.2246 397.381 87.7373 399.829C88.1999 400.577 90.7645 401.148 93.9395 401.208C98.7471 401.3 99.3883 401.068 99.666 399.144C99.838 397.952 100.649 396.42 101.468 395.74C102.685 394.73 103.521 395.039 106.051 397.433C108.65 399.893 109.086 400.046 108.783 398.391C108.435 396.487 103.922 392.729 96.2969 387.993C92.7755 385.806 92.2515 385.76 83.3818 386.857C67.8815 388.775 50.2082 387.484 24.208 382.536C0.948331 378.11 -3.93377 375.355 9.33008 374.143C14.5348 373.667 20.7142 374.076 30.7646 375.563C48.5437 378.195 49.0004 378.188 55.8906 375.141C59.0302 373.752 63.2856 372.216 65.3467 371.729C80.7454 368.083 93.8045 363.391 93.8057 361.504C93.8057 360.167 90.1788 357.594 85.4102 355.55C79.0991 352.845 79.2393 350.367 85.7363 349.791C91.3296 349.295 107.922 345.3 107.928 344.448C107.928 344.106 104.41 342.531 100.11 340.947C92.8684 338.28 33.3854 308.586 16.1387 299.029C4.26089 292.447 0 287.483 0 280.225C7.57246e-05 277.065 0.815108 275.677 5.2959 271.196C9.7771 266.716 11.363 265.786 15.6094 265.149C25.2514 263.704 35.0178 267.827 58.1973 283.131C78.8221 296.748 86.897 301.006 92.1006 301.006C95.3197 301.006 98.0117 302.214 105.313 306.935C114.644 312.966 133.255 322.688 142.28 326.246C145.849 327.653 147.266 327.857 147.267 326.965C147.267 326.279 148.609 322.881 150.249 319.414C153.458 312.63 154.695 312 159.685 314.603L162.522 316.082L159.516 312.327C154.552 306.127 148.477 300.772 134.152 289.973C116.842 276.922 109.693 269.927 105.895 262.326C102.02 254.572 101.868 248.937 105.432 245.092C107.823 242.512 108.583 242.325 117.788 242.052C128.134 241.745 133.649 243.042 134.806 246.056C135.914 248.944 133.624 249.925 130.517 247.893C126.914 245.536 127.453 246.487 135.945 257.454C151.781 277.906 179.046 300.047 198.534 308.28C203.485 310.372 203.987 310.411 206.557 308.894C208.384 307.815 210.915 303.978 214.143 297.395L218.986 287.515L216.412 281.778C212.006 271.96 214.05 267.396 218.823 276.394C221.092 280.67 221.348 280.858 222.108 278.804C222.562 277.578 223.456 273.333 224.096 269.373C224.878 264.531 226.197 260.791 228.122 257.956C229.696 255.638 230.984 253.438 230.984 253.066C230.984 252.696 228.332 252.7 225.089 253.076C218.522 253.838 210.812 252.276 210.812 250.184C210.812 249.326 214.542 248.044 221.443 246.529C227.288 245.247 232.264 243.883 232.506 243.499C232.743 243.115 232.314 241.948 231.552 240.906C230.196 239.052 230.052 239.052 224.876 240.913C220.03 242.656 219.486 242.679 218.395 241.187C216.434 238.506 211.834 237.314 206.177 238.021L200.92 238.677L197.439 233.277C194.305 228.415 189.631 223.204 189.63 224.572C189.63 224.868 190.31 226.74 191.143 228.731C193.125 233.477 193.137 238.469 191.166 238.469C189.647 238.468 181.561 229.001 181.561 227.224C181.561 226.686 181.124 226.516 180.59 226.846C180.056 227.176 177.546 227.487 175.012 227.538C169.309 227.653 166.431 225.391 166.431 220.797C166.431 216.539 169.373 212.962 175.26 210.062C180.006 207.725 180.021 207.702 176.993 207.405C175.267 207.236 169.993 208.629 164.868 210.608C154.856 214.475 145.753 215.763 145.753 213.313C145.753 211.856 147.572 211.117 174.952 201.452C188.941 196.515 190.944 195.057 192.698 188.54C193.296 186.321 194.015 183.711 194.297 182.74C194.579 181.77 195.39 180.975 196.101 180.975C196.811 180.975 198.22 179.14 199.231 176.897C201.895 170.991 200.525 170.049 187.011 168.488C175.764 167.19 171.209 165.502 171.711 162.819C172.127 160.597 177.842 160.391 185.032 162.337C191.467 164.079 196.196 164.069 196.173 162.314C196.151 160.714 189.432 158.933 180.871 158.261C170.84 157.472 164.414 155.282 164.413 152.649C164.413 151.071 165.142 150.715 168.382 150.715C170.565 150.715 173.493 151.15 174.89 151.681C176.935 152.458 177.321 152.364 176.873 151.196C175.689 148.11 169.733 145.749 159.177 144.182C148.236 142.557 140.106 140.171 127.597 134.911C123.713 133.278 117.647 131.086 114.117 130.039C106.666 127.83 103.934 124.597 101.847 115.519C100.64 110.272 100.682 110.01 103.001 108.202C104.324 107.171 107.876 105.59 110.895 104.689C121.738 101.454 132.897 104.367 154.372 116.038C166.626 122.698 170.209 124.089 178.534 125.421C182.14 125.998 186.934 127.003 189.187 127.654C193.216 128.82 198.708 128.252 198.708 126.67C198.708 126.226 197.233 125.213 195.43 124.42C191.31 122.607 190.223 118.465 193.847 118.388C196.529 118.33 184.686 111.889 175.374 108.341C170.6 106.522 169.408 105.549 167.922 102.253C166.157 98.3393 164.768 97.5162 157.016 95.793C155.154 95.3792 154.383 95.5238 154.806 96.207C156.341 98.6922 154.013 99.12 149.224 97.2324C144.678 95.4409 142.641 95.3143 127.78 95.9004C104.937 96.8013 100.561 95.6932 106.165 90.4287C111.223 85.6771 119.308 83.0607 130.831 82.4443C136.839 82.123 143.299 81.1928 145.248 80.3691C147.19 79.5483 153.772 76.8364 159.874 74.3428C165.976 71.8491 172.648 69.1162 174.7 68.2695C178.046 66.889 178.372 66.4317 177.853 63.8369C177.213 60.6415 178.158 60.2136 181.101 62.3652C184.283 64.6924 186.355 62.7311 186.758 57.0088C186.951 54.2713 186.881 52.0483 186.604 52.0684C186.326 52.0881 184.411 52.0511 182.349 51.9854C173.976 51.7187 182.905 46.848 191.842 46.8066C193.676 46.798 195.846 46.369 196.662 45.8525C197.906 45.0658 197.824 44.7971 196.157 44.1953C187.197 40.9593 155.21 9.87657 156.739 5.8916C157.631 3.56648 160.461 5.4977 170.9 15.5557L180.047 24.3682L193.949 29.1338C201.595 31.7553 208.56 33.6288 209.428 33.2959C210.807 32.7665 210.74 32.2417 208.891 29.1074C205.217 22.8817 206.633 22.0259 213.963 26.041C219.749 29.2106 230.856 33.1632 231.677 32.3447C232.031 31.9905 231.838 30.6416 231.248 29.3467C230.524 27.7572 228.177 26.2634 224.023 24.749C217.879 22.5085 217.872 22.5013 217.872 18.4297C217.872 14.6462 217.289 13.7974 209.744 6.59961C206.324 3.33663 204.348 1.38207 203.296 0H205.762ZM356.146 735.427C355.36 734.64 355.052 735.051 355.052 736.888C355.052 740.214 356.465 741.636 356.902 738.75C357.088 737.524 356.748 736.028 356.146 735.427ZM273.35 730.513C273.35 728.454 276.974 726.62 279.402 727.448C281.163 728.05 288.479 734.815 288.479 735.842C288.479 737.067 286.074 737.388 281.708 736.747C276.947 736.048 273.35 733.365 273.35 730.513ZM428.411 682.285C431.49 682.285 433.404 685.313 434.153 691.363C434.531 694.414 435.746 701.223 436.852 706.493C437.957 711.763 439.137 720.729 439.473 726.415C440.006 735.43 439.879 736.754 438.487 736.754C437.609 736.754 435.962 735.447 434.825 733.852C431.936 729.794 429.707 720.467 429.622 712.081C429.544 704.288 428.158 689.428 427.103 685.06C426.545 682.749 426.763 682.285 428.411 682.285ZM282.428 732.215C280.133 729.773 275.367 728.713 275.367 730.645C275.368 732.206 279.669 734.736 282.324 734.736H284.797L282.428 732.215ZM431.204 689.851C430.367 687.995 431.894 718.031 432.868 722.586C433.861 727.231 436.576 733.728 437.523 733.728C437.819 733.724 437.781 729.981 437.438 725.406C436.887 718.056 432.411 692.529 431.204 689.851ZM429.248 684.303C429.042 684.303 429.111 685.211 429.401 686.32C429.691 687.43 430.346 688.338 430.855 688.338C431.367 688.338 431.298 687.435 430.702 686.32C430.109 685.211 429.454 684.303 429.248 684.303ZM221.005 671.19C224.94 671.19 230.995 673.768 230.954 675.426C230.934 676.148 230.265 677.606 229.463 678.666C228.618 679.782 228.254 681.591 228.598 682.961C229.136 685.104 228.871 685.319 225.802 685.233C223.938 685.181 221.265 685.438 219.862 685.805C218.033 686.282 216.821 685.928 215.575 684.551C211.548 680.101 215.169 671.19 221.005 671.19ZM226.23 674.301C220.865 671.856 215.856 674.228 215.855 679.214C215.855 683.203 217.392 684.215 221.731 683.085C224.476 682.37 225.852 681.246 227.034 678.757C228.587 675.486 228.565 675.365 226.23 674.301ZM426.991 661.104C428.76 661.104 431.711 669.417 431.711 674.399C431.711 678.139 428.998 678.184 427.565 674.469C426.977 672.943 426.244 669.312 425.937 666.399C425.47 661.983 425.644 661.104 426.991 661.104ZM310.807 615.714C313.26 615.714 314.374 623.592 312.708 629.154C310.918 635.129 298.452 659.09 297.145 659.069C296.539 659.062 294.596 658.124 292.826 656.99C289.573 654.906 284.446 646.172 284.445 642.714C284.445 641.496 285.916 640.22 288.731 638.999C293.721 636.834 296.21 634.277 300.105 627.313C303.645 620.987 308.509 615.714 310.807 615.714ZM308.011 619.873C306.604 621.192 303.878 625.082 301.954 628.519C298.509 634.672 292.609 640.915 290.211 640.945C289.537 640.952 288.412 641.325 287.712 641.77C285.138 643.405 290.116 653.13 294.87 655.752C296.955 656.902 297.364 656.335 303.826 643.349C307.551 635.864 310.89 628.176 311.249 626.264C311.608 624.352 311.601 621.593 311.235 620.132L310.569 617.476L308.011 619.873ZM790.838 635.65C793.135 633.79 795.446 633.966 801.64 636.474C806.047 638.258 805.83 640.582 801.135 641.886C796.715 643.113 796.209 643.108 792.648 641.804C788.91 640.435 788.144 637.832 790.838 635.65ZM795.923 637.183C791.575 636.6 790.34 637.981 793.57 639.815C795.1 640.684 799.551 640.352 800.799 639.275C801.699 638.499 799.864 637.711 795.923 637.183ZM282.19 601.687C285.975 599.716 286.05 602.873 282.35 608.346C279.562 612.468 279.446 612.852 281.571 610.922C285.198 607.629 285.767 608.063 285.225 613.706C284.446 621.804 278.393 626.616 278.393 619.136C278.393 616.251 278.066 615.623 276.816 616.103C275.083 616.768 269.315 614.182 269.315 612.739C269.318 611.65 278.969 603.364 282.19 601.687ZM283.404 614.26C283.371 612.217 283.345 612.215 281.892 614.142C281.077 615.218 280.425 617.034 280.442 618.176C280.475 620.218 280.502 620.221 281.955 618.295C282.77 617.218 283.422 615.402 283.404 614.26ZM729.221 606.737C729.096 608.623 729.452 611.301 730.012 612.688C730.909 614.908 730.757 615.247 728.741 615.519C727.482 615.689 725.653 616.71 724.677 617.788C722.199 620.525 718.702 620.237 716.228 617.091C713.673 613.843 713.541 609.612 715.902 606.699C717.202 605.097 719.223 604.362 723.558 603.915L729.448 603.309L729.221 606.737ZM865.011 608.652C868.484 608.652 873.758 613.926 873.326 616.968C872.917 619.854 869.403 620.472 867.301 618.027C866.445 617.032 865.463 615.424 865.118 614.453C864.774 613.482 864.024 612.688 863.452 612.688C862.88 612.688 862.411 611.779 862.411 610.67C862.411 609.175 863.084 608.652 865.011 608.652ZM723.11 606.013C718.52 606.728 716.154 608.72 716.154 611.872C716.155 613.73 719.493 617.73 721.042 617.73C721.511 617.73 722.716 616.823 723.72 615.714C724.724 614.604 726.211 613.696 727.025 613.696C728.182 613.696 728.249 613.386 727.33 612.279C726.632 611.439 726.437 609.737 726.85 608.093L727.545 605.322L723.11 606.013ZM868.968 612.688C867.711 611.644 867.455 611.765 867.455 613.404C867.455 614.489 867.757 615.68 868.127 616.05C869.253 617.176 870.48 616.802 870.48 615.333C870.48 614.569 869.8 613.378 868.968 612.688ZM278.393 610.166C282.13 604.734 281.176 604.353 275.787 609.127C272.5 612.039 272.091 612.799 273.35 613.65C274.182 614.214 274.954 614.681 275.066 614.689C275.179 614.695 276.676 612.662 278.393 610.166ZM847.282 577.726C847.281 571.837 849.991 572.476 852.597 578.979C857.069 590.139 858.423 598.745 856.324 602.667C854.869 605.386 853.46 605.101 852.27 601.845C851.712 600.319 850.99 598.39 850.664 597.558C849.444 594.44 847.283 581.77 847.282 577.726ZM850.785 587.213C851.337 594.183 854.315 602.472 855.095 599.204C855.342 598.168 855.256 595.445 854.903 593.152C854.551 590.86 853.369 587.168 852.275 584.949L850.287 580.914L850.785 587.213ZM110.63 559.643C116.977 555.98 119.21 556.565 117.188 561.358C116.41 563.193 89.4595 577.398 80.1904 580.858C72.3007 583.804 67.8233 584.643 67.0117 583.33C66.0873 581.831 74.7823 573.823 80.4424 570.961C83.0777 569.629 89.9994 567.084 95.8242 565.307C101.649 563.529 108.312 560.98 110.63 559.643ZM132.266 581.671C133.52 580.071 133.484 580.035 131.884 581.29C130.204 582.608 129.67 583.437 130.5 583.437C130.71 583.436 131.504 582.642 132.266 581.671ZM115.452 560.401C115.777 559.603 114.127 560.101 111.4 561.625C108.87 563.039 101.72 565.786 95.5117 567.729C84.2223 571.26 73.6703 576.641 72.8115 579.303C71.9277 582.043 78.9223 579.522 97.042 570.572C106.865 565.72 115.15 561.143 115.452 560.401ZM849.988 578.204C849.666 577.399 849.427 577.638 849.379 578.813C849.333 579.876 849.573 580.472 849.908 580.137C850.243 579.801 850.279 578.932 849.988 578.204ZM780.677 518.882C781.6 518.882 783.381 520.707 784.635 522.938C787.254 527.598 787.724 536.351 786.298 553.933L785.459 564.271H781.808C779.799 564.271 776.575 563.431 774.642 562.402C772.709 561.374 769.765 558.609 768.101 556.258L765.075 551.982L767.711 549.806C772.081 546.196 773.606 542.816 774.646 534.437C775.792 525.199 778.242 518.882 780.677 518.882ZM784.822 545.044C786.631 533.385 783.282 518.932 779.62 522.594C779.013 523.202 777.891 527.879 777.128 532.989C775.784 541.983 771.968 551.159 769.571 551.159C767.919 551.159 768.516 553.559 770.88 556.425C773.534 559.642 778.255 562.239 781.466 562.248C783.521 562.254 783.735 561.772 783.735 557.152C783.735 554.346 784.225 548.897 784.822 545.044ZM134.88 550.423C139.739 549.634 139.016 551.556 132.906 555.671C127.662 559.203 122.021 560.4 122.082 557.968C122.126 556.223 130.856 551.076 134.88 550.423ZM540.395 533.163C544.452 531.127 546.698 531.285 546.698 533.604C546.698 534.398 547.209 535.864 547.833 536.863C548.76 538.348 548.475 539.21 546.271 541.589C543.077 545.035 541.532 545.412 538.71 543.436C537.28 542.434 536.612 540.867 536.612 538.514C536.612 535.534 537.13 534.801 540.395 533.163ZM542.948 534.044C539.957 534.166 537.341 539.447 539.302 541.408C540.592 542.698 543.608 542.067 544.526 540.315C545.487 538.482 544.356 533.987 542.948 534.044ZM600.126 536.029C605.878 536.029 606.872 537.728 602.715 540.452C599.593 542.498 595.235 542.559 594.471 540.568C593.238 537.356 594.892 536.029 600.126 536.029ZM599.209 538.046C598.067 538.046 597.132 538.5 597.132 539.055C597.132 539.609 597.787 540.063 598.586 540.063C599.385 540.063 600.319 539.609 600.662 539.055C601.005 538.5 600.351 538.046 599.209 538.046ZM739.215 490.284C742.21 488.535 742.689 488.498 744.095 489.904C744.952 490.762 746.24 493.888 746.957 496.851C747.674 499.814 748.299 501.444 748.346 500.474C748.473 497.854 752.112 498.263 752.84 500.979C753.856 504.771 753.483 511.995 751.942 518.378C750.318 525.104 750.079 528.694 751.489 525.187C753.773 519.505 757.104 524.927 756.327 533.062C755.986 536.634 753.377 538.317 751.896 535.921C751.478 535.245 750.801 533.291 750.392 531.578C749.866 529.379 749.617 529.099 749.544 530.625C749.403 533.575 747.955 533.918 740.616 532.733C734.512 531.749 734.283 531.602 733.35 528.073C730.01 515.449 730.228 501.927 733.871 495.688C734.984 493.783 737.389 491.351 739.215 490.284ZM754.453 530.733C754.427 527.223 754.229 526.78 753.354 528.285C752.375 529.968 752.859 535.021 753.999 535.021C754.266 535.021 754.47 533.091 754.453 530.733ZM873.508 463.382C873.508 459.626 875.415 458.734 879.217 460.712C883.409 462.892 886.235 466.284 889.531 473.089C892.658 479.543 896.801 485.033 899.729 486.6C899.824 486.651 899.915 486.697 900 486.74V489.372C896.583 488.201 892.248 483.12 888.818 476.086C885.22 468.705 880.523 462.885 877.536 462.104C872.228 460.715 876.953 471.144 887.495 484.082C892.015 489.629 896.616 496.014 897.721 498.27C899.913 502.748 900.367 508.281 898.629 509.355C897.222 510.225 890.158 503.384 887.373 498.456C884.371 493.142 883.206 493.685 883.867 500.092C884.552 506.726 886.999 511.656 895.448 523.42C897.131 525.763 898.619 527.926 900 530.079V534.318C897.564 530.132 894.921 526.116 891.789 521.736C884.374 511.37 881.624 505.556 881.613 500.219C881.594 490.47 884.583 488.918 888.827 496.475C890.318 499.13 892.8 502.646 894.342 504.29C896.731 506.836 897.199 507.014 897.509 505.49C898.112 502.523 894.145 495.724 885.653 485.17C876.935 474.333 873.508 468.185 873.508 463.382ZM739.188 492.774C737.489 493.984 735.453 496.523 734.661 498.417C732.852 502.748 732.791 516.466 734.55 523.925L735.858 529.473L741.389 530.54L746.919 531.608L749.122 521.462C750.334 515.882 751.355 509.387 751.392 507.029C751.469 502.017 750.356 501.488 748.74 505.769C748.112 507.433 746.938 508.794 746.131 508.795C744.982 508.795 744.683 507.317 744.759 501.986C744.811 498.146 744.293 494.175 743.565 492.877L742.275 490.576L739.188 492.774ZM552.498 503.653C558.961 501.19 560.198 501.376 562.193 505.109C565.295 510.914 563.281 511.941 554.516 509.025C549.127 507.233 548.373 505.225 552.498 503.653ZM46.6758 498.84C49.4001 496.562 51.0891 498.725 49.5283 502.494C47.5247 507.331 39.9923 510.661 38.6953 507.282C37.7913 504.926 39.0232 502.836 42.085 501.53C43.6261 500.873 45.6919 499.662 46.6758 498.84ZM560.317 506.417C559.173 504.671 558.095 504.167 556.259 504.518C552.838 505.172 553.124 506.282 557.037 507.537C561.847 509.08 562.023 509.02 560.317 506.417ZM572.839 499.717C573.876 499.717 574.949 500.302 575.224 501.017C575.852 502.654 569.242 507.156 568.344 505.703C567.377 504.138 570.696 499.717 572.839 499.717ZM45.8984 503.748C47.7031 501.754 47.6857 501.742 44.54 502.839C40.7589 504.157 39.4437 505.769 42.1494 505.769C43.2057 505.768 44.8929 504.859 45.8984 503.748ZM594.348 436.153C595.77 433.876 598.939 433.498 599.136 435.481L599.149 435.762C599.232 436.616 600.583 438.083 602.223 439.08C605.047 440.798 605.13 440.997 603.231 441.493C599.39 442.498 600.918 444.303 605.051 443.643L608.939 443.021L610.073 447.523C610.697 450 611.96 452.651 612.88 453.415C614.333 454.621 614.748 454.508 616.05 452.548C616.873 451.307 618.084 450.292 618.739 450.292C620.485 450.294 628.654 462.286 628.026 463.925C627.713 464.742 627.993 465.125 628.709 464.852C629.387 464.591 632.79 468.439 636.386 473.534C642.229 481.814 650.635 490.638 652.679 490.639C654.598 490.639 654.575 494.846 652.633 498.65C650.374 503.078 649.409 503.432 645.548 501.239C644.161 500.451 639.496 498.369 635.181 496.611C629.458 494.28 626.348 492.289 623.687 489.253C621.68 486.964 620.358 485.659 620.748 486.352C621.139 487.045 621.164 488.089 620.801 488.672C619.948 490.051 614.216 485.857 607.902 479.234L603.041 474.136L596.535 477.344C592.957 479.108 589.403 480.552 588.637 480.552C587.87 480.551 584.884 478.963 581.999 477.021C579.114 475.08 576.344 473.491 575.845 473.491C574.244 473.491 574.856 471.17 578.976 461.621C581.194 456.48 583.772 449.53 584.704 446.177C585.694 442.616 587.162 439.672 588.233 439.099C589.242 438.559 590.125 438.36 590.194 438.657C590.561 440.226 590.811 440.923 591.84 443.231C592.458 444.618 593.595 447.784 594.365 450.267C595.541 454.054 595.861 454.419 596.354 452.534C596.724 451.119 596.553 450.528 595.895 450.936C595.302 451.301 595.066 450.975 595.349 450.181C595.623 449.41 595.5 448.099 595.075 447.267C593.5 444.176 593.105 438.143 594.348 436.153ZM593.166 452.561C589.993 441.417 588.696 440.498 586.553 447.87C585.633 451.033 583.16 457.613 581.057 462.492L577.231 471.363L582.756 474.949C585.794 476.921 588.637 478.535 589.072 478.535C589.508 478.535 592.453 477.173 595.616 475.509C602.496 471.89 604.466 471.751 606.453 474.743C607.817 476.797 608.187 476.878 610.515 475.633C614.201 473.66 615.988 475.135 613.334 477.96L611.231 480.198L615.452 483.591C617.774 485.457 619.327 486.422 618.903 485.736C618.48 485.051 618.424 483.73 618.781 482.801C619.303 481.441 620.354 482.143 624.166 486.403C627.957 490.64 630.513 492.358 636.972 495.01C641.41 496.832 645.949 498.834 647.059 499.458C648.814 500.446 649.294 500.176 650.754 497.381L652.432 494.169L645.594 487.612C641.833 484.006 636.613 477.993 633.993 474.248C631.373 470.503 628.929 467.456 628.562 467.476C628.194 467.496 626.759 468.16 625.372 468.952C622.566 470.556 618.312 470.943 618.312 469.594C618.312 469.114 620.119 467.469 622.328 465.938C626.63 462.957 626.629 462.935 622.055 457.055C619.326 453.546 618.933 453.356 617.354 454.785C613.835 457.969 609.969 455.563 608.177 449.073C607.305 445.915 606.935 445.64 604.113 446.054C601.43 446.448 601.088 446.835 601.591 448.905C601.911 450.223 602.449 452.435 602.786 453.822C603.459 456.588 601.537 457.322 599.349 455.134C598.407 454.192 598.107 454.696 598 457.403C597.886 460.291 597.775 460.454 597.343 458.361L596.821 455.84L596.176 458.352C595.653 460.384 595.08 459.281 593.166 452.561ZM722.699 492.656C724.072 492.657 725.479 496.482 724.618 497.875C723.75 499.279 720.187 498.799 720.187 497.277C720.187 494.812 721.359 492.656 722.699 492.656ZM60.2168 488.79C71.9169 486.215 86.7461 486.351 86.7461 489.033C86.7424 490.172 73.5255 494.137 66.5732 495.084C64.6316 495.349 61.4593 495.024 59.5244 494.362C54.0941 492.507 54.3967 490.071 60.2168 488.79ZM73.5908 491.562C80.5208 490.076 79.1432 488.22 71.7471 489.078C62.5314 490.147 59.5128 490.809 59.5127 491.76C59.5127 492.996 67.4257 492.885 73.5908 491.562ZM660.954 479.938C661.218 479.673 661.704 480.156 662.032 481.013C662.714 482.79 662.133 483.103 661.139 481.494C660.773 480.903 660.69 480.202 660.954 479.938ZM879.981 449.55C879.078 443.83 881.14 443.015 886.897 446.816C889.578 448.586 894.635 453.188 900 458.521V461.242C899.85 461.096 899.7 460.951 899.551 460.808C892.463 453.999 883.182 446.257 882.108 446.257C881.171 446.258 882.503 452.2 884.144 455.335C884.869 456.722 888.484 461.466 892.175 465.877C895.791 470.199 898.28 473.505 900 476.42V481.256C898.785 477.61 896.459 474.268 890.657 467.437C883.639 459.172 880.733 454.304 879.981 449.55ZM612.388 476.77C613.642 475.17 613.607 475.134 612.008 476.389C611.037 477.15 610.242 477.945 610.242 478.154C610.242 478.984 611.07 478.449 612.388 476.77ZM657.074 473.491C657.352 473.491 658.064 474.399 658.658 475.509C659.252 476.618 659.511 477.526 659.233 477.526C658.956 477.526 658.243 476.618 657.649 475.509C657.056 474.4 656.797 473.492 657.074 473.491ZM572.757 455.924C572.956 445.046 573.912 445.084 574.466 455.991C574.958 465.696 572.786 472.309 570.382 468.42C570.029 467.85 570.109 464.331 570.56 460.603L571.379 453.822L571.985 459.37C572.524 464.297 572.611 463.912 572.757 455.924ZM638.595 457.789C639.204 457.412 638.923 458.295 637.969 459.75C635.95 462.831 634.905 463.299 636.438 460.435C637.014 459.356 637.985 458.166 638.595 457.789ZM532.654 460.799C532.7 459.624 532.942 459.385 533.264 460.189C533.555 460.918 533.519 461.788 533.184 462.123C532.848 462.458 532.61 461.862 532.654 460.799ZM660.127 441.214C661.161 441.214 661.707 441.895 661.541 442.979C661.392 443.95 661.84 445.778 662.536 447.04C664.02 449.733 663.707 460.556 662.131 461.075C661.544 461.268 660.096 460.397 658.913 459.138C657.378 457.503 656.694 455.334 656.521 451.553C656.388 448.641 655.907 446.259 655.452 446.258C654.256 446.258 654.432 443.469 655.677 442.7C656.256 442.343 657.401 442.606 658.222 443.287C659.451 444.308 659.602 444.235 659.078 442.87C658.645 441.742 658.98 441.214 660.127 441.214ZM650.149 459.666C649.602 458.229 649.718 458.112 650.714 459.101C651.403 459.785 651.713 460.6 651.402 460.91C651.091 461.22 650.528 460.661 650.149 459.666ZM478.208 456.643C478.942 455.42 479.76 454.636 480.025 454.901C480.291 455.167 479.691 456.167 478.69 457.125C476.954 458.788 476.933 458.766 478.208 456.643ZM485.535 446.371C487.772 444.515 488.527 446.74 486.77 450.01C484.662 453.932 481.148 459.009 481.14 458.145C481.136 457.748 482.495 455.276 484.159 452.651C488.234 446.226 487.918 444.848 483.504 449.788C480.79 452.825 480.414 453.052 481.981 450.707C483.127 448.993 484.726 447.042 485.535 446.371ZM658.877 450.623C658.672 453.609 659.051 456.113 659.86 457.096C661.007 458.489 661.218 458.241 661.48 455.194C661.646 453.267 661.204 450.355 660.497 448.722L659.213 445.753L658.877 450.623ZM651.812 454.295C650.005 451.402 650.326 450.476 652.205 453.159C653.094 454.428 653.644 455.643 653.428 455.859C653.212 456.075 652.484 455.372 651.812 454.295ZM503.434 450.729C504.043 450.352 503.761 451.234 502.808 452.689C500.789 455.771 499.744 456.238 501.276 453.374C501.853 452.296 502.824 451.105 503.434 450.729ZM686.648 452.181C688.248 450.926 688.284 450.962 687.029 452.562C685.712 454.242 684.884 454.775 684.884 453.945C684.885 453.735 685.678 452.941 686.648 452.181ZM368.666 452.276C370.532 450.908 370.58 450.929 369.3 452.562C368.538 453.532 367.441 454.326 366.861 454.326C366.282 454.326 365.998 454.198 366.229 454.041C366.46 453.884 367.557 453.09 368.666 452.276ZM636.468 448.107C633.417 445.292 631.828 443.46 632.938 444.038C634.839 445.029 643.452 453.371 642.472 453.272C642.219 453.245 639.518 450.922 636.468 448.107ZM354.609 449.579C354.062 448.142 354.178 448.026 355.174 449.015C355.863 449.699 356.173 450.513 355.862 450.823C355.551 451.134 354.988 450.574 354.609 449.579ZM621.926 448.637C621.372 447.195 621.522 447.158 623.079 448.352C624.063 449.105 625.057 449.85 625.288 450.007C625.519 450.164 625 450.292 624.135 450.292C623.269 450.292 622.275 449.547 621.926 448.637ZM594.779 440.205C595.315 443.292 598.02 449.281 598.879 449.283C599.048 449.283 598.886 448.035 598.52 446.51C598.153 444.984 597.025 442.147 596.011 440.205L594.167 436.675L594.779 440.205ZM507.933 443.231C508.21 443.231 507.953 444.14 507.358 445.249C506.765 446.358 506.052 447.265 505.774 447.266C505.497 447.266 505.754 446.358 506.349 445.249C506.942 444.14 507.655 443.233 507.933 443.231ZM473.803 446.132C474.487 445.443 475.301 445.133 475.611 445.443C475.922 445.754 475.362 446.318 474.367 446.697C472.93 447.245 472.814 447.128 473.803 446.132ZM614.97 440.205C615.49 440.205 617.221 441.567 618.815 443.231C622.509 447.087 620.798 446.97 616.924 443.102C615.328 441.509 614.449 440.205 614.97 440.205ZM637.576 432.668C637.661 430.941 637.802 431.015 638.484 433.145C639.083 435.015 639.318 435.181 639.393 433.791C639.474 432.266 640.01 432.044 642.267 432.595C646.458 433.618 652.734 438.283 652.39 440.119C652.225 440.999 651.071 442.166 649.826 442.714C648.581 443.261 647.563 444.055 647.562 444.479C647.562 444.901 647.059 445.248 646.445 445.248C645.832 445.248 645.599 444.544 645.93 443.684C646.26 442.823 646.18 442.335 645.751 442.6C645.322 442.864 644.079 441.952 642.988 440.571C641.898 439.191 640.212 437.308 639.241 436.388C638.27 435.467 637.521 433.793 637.576 432.668ZM510.959 438.188C511.236 438.188 510.979 439.096 510.384 440.205C509.79 441.315 509.077 442.223 508.8 442.223C508.523 442.222 508.78 441.314 509.375 440.205C509.968 439.096 510.682 438.189 510.959 438.188ZM642.094 435.162C640.656 435.163 643.803 439.368 645.863 440.198C648.745 441.359 649.355 441.384 649.983 440.368C650.452 439.61 643.71 435.162 642.094 435.162ZM598.941 438.234C598.265 437.151 597.57 436.405 597.396 436.576C596.798 437.174 598.358 440.205 599.264 440.205C599.763 440.205 599.618 439.318 598.941 438.234ZM608.964 439.071C609.648 438.382 610.462 438.073 610.772 438.383C611.083 438.694 610.523 439.258 609.528 439.637C608.091 440.184 607.975 440.067 608.964 439.071ZM492.039 428.605C493.869 426.387 494.903 425.533 494.337 426.708C493.77 427.883 490.227 432.012 486.463 435.883C482.699 439.753 481.666 440.607 484.166 437.78C486.666 434.953 490.209 430.824 492.039 428.605ZM28.7549 423.059C32.6796 423.059 33.1287 427.225 29.9111 433.785C27.3226 439.063 25.5577 440.485 24.7607 437.936C22.3056 430.08 24.1907 423.059 28.7549 423.059ZM29.8604 426.495C28.3039 422.439 25.016 427.6 25.9717 432.6L26.5225 435.482L28.4639 431.698C29.5315 429.617 30.1599 427.276 29.8604 426.495ZM413.36 428.102C413.637 428.102 413.042 429.01 412.039 430.119C411.035 431.228 409.987 432.135 409.709 432.136C409.432 432.136 410.026 431.229 411.03 430.119C412.034 429.01 413.083 428.102 413.36 428.102ZM515.415 429.621C515.987 429.268 516.157 429.674 515.812 430.57C515.142 432.318 514.418 432.637 514.418 431.187C514.418 430.664 514.867 429.96 515.415 429.621ZM116.142 408.937C116.587 408.937 118.951 410.937 121.394 413.38C125.308 417.294 126.781 418.028 133.776 419.553C141.999 421.345 147.654 424.028 148.644 426.605C149.029 427.611 147.929 428.75 145.253 430.115C140.248 432.668 131.541 432.598 117.508 429.893C111.96 428.823 106.4 427.747 105.151 427.501C100.149 426.515 103.76 416.602 110.827 411.921C113.305 410.28 115.697 408.937 116.142 408.937ZM475.837 427.973C477.47 426.692 477.491 426.74 476.122 428.605C475.309 429.714 474.515 430.811 474.357 431.043C474.201 431.274 474.072 430.99 474.072 430.41C474.072 429.83 474.866 428.734 475.837 427.973ZM538.997 425.919C540.976 424.891 540.952 425.015 538.703 427.46C535.891 430.518 535.43 430.728 536.255 428.578C536.58 427.731 537.814 426.534 538.997 425.919ZM120.464 415.582C116.063 411.365 115.949 411.323 112.896 412.802C109.311 414.538 104.899 420.527 104.899 423.657C104.899 425.549 105.652 425.885 111.204 426.47C114.671 426.835 119.777 427.787 122.551 428.585C128.888 430.408 142.252 430.166 144.64 428.186C146.23 426.866 146.146 426.627 143.533 425.024C141.978 424.071 137.157 422.519 132.819 421.576C126.03 420.101 124.31 419.267 120.464 415.582ZM592.165 427.513C592.211 426.338 592.452 426.099 592.774 426.903C593.065 427.631 593.03 428.502 592.695 428.837C592.36 429.172 592.121 428.576 592.165 427.513ZM418.823 423.488C419.781 422.486 420.841 421.942 421.179 422.28C421.517 422.618 420.733 423.438 419.438 424.103C417.186 425.257 417.159 425.231 418.823 423.488ZM576.956 420.032C577.494 419.2 577.934 418.973 577.934 419.527C577.934 420.082 577.494 421.217 576.956 422.049C576.419 422.881 575.978 423.108 575.978 422.554C575.978 421.999 576.418 420.864 576.956 420.032ZM714.979 418.405C715.652 418.274 715.734 418.399 715.162 418.681C714.59 418.964 714.379 419.611 714.692 420.118C715.006 420.625 714.744 421.041 714.109 421.041C713.476 421.041 713.138 420.502 713.357 419.843C713.577 419.184 714.307 418.537 714.979 418.405ZM500.407 416.434C501.016 416.057 500.735 416.939 499.781 418.395C497.762 421.476 496.717 421.943 498.25 419.079C498.827 418.001 499.798 416.81 500.407 416.434ZM425.403 417.886C427.003 416.631 427.039 416.667 425.784 418.267C424.467 419.947 423.639 420.481 423.639 419.651C423.639 419.442 424.432 418.647 425.403 417.886ZM702.282 416.93C703.807 418.274 705.055 419.521 705.057 419.703C705.057 420.494 704.24 419.851 701.954 417.258L699.509 414.484L702.282 416.93ZM459.446 418.413C463.082 415.611 465.571 414.82 462.472 417.452C460.808 418.865 458.992 420.01 458.438 419.995C457.883 419.982 458.337 419.268 459.446 418.413ZM485.823 413.98C486.552 413.982 484.204 417.867 483.04 418.587C482.431 418.964 482.712 418.081 483.665 416.626C484.619 415.171 485.59 413.98 485.823 413.98ZM459.163 415.445C460.672 413.866 462.174 412.841 462.5 413.167C462.825 413.493 461.59 414.786 459.756 416.039L456.42 418.317L459.163 415.445ZM695 410.45C693.905 408.961 694.235 409.072 696.261 410.878C698.73 413.079 699.481 414.009 698.752 413.965C698.612 413.958 698.045 413.615 697.491 413.208C696.937 412.8 695.815 411.56 695 410.45ZM550.479 408.809C552.111 407.528 552.133 407.575 550.764 409.441C549.95 410.551 549.155 411.648 548.998 411.879C548.841 412.11 548.713 411.826 548.713 411.246C548.713 410.666 549.508 409.57 550.479 408.809ZM448.291 410.395C446.411 408.888 446.424 408.869 448.603 409.925C449.851 410.529 450.872 411.236 450.872 411.494C450.872 412.266 450.349 412.043 448.291 410.395ZM504.433 409.234C505.167 408.011 505.986 407.229 506.251 407.494C506.516 407.76 505.915 408.76 504.915 409.718C503.179 411.381 503.157 411.358 504.433 409.234ZM702.91 407.172C701.656 405.572 701.691 405.536 703.291 406.791C704.261 407.552 705.056 408.346 705.057 408.556C705.057 409.386 704.228 408.852 702.91 407.172ZM425.207 405.347C426.686 403.501 426.707 403.533 425.574 405.911C424.104 408.998 423.639 409.571 423.639 408.289C423.639 407.748 424.344 406.424 425.207 405.347ZM625.615 404.396C625.204 403.942 625.457 403.91 626.177 404.325C627.186 404.907 627.216 405.408 626.306 406.505C625.656 407.287 624.898 407.927 624.62 407.928C624.343 407.928 624.621 407.319 625.239 406.574C625.857 405.83 626.027 404.85 625.615 404.396ZM449.853 404.405C450.424 404.052 450.593 404.458 450.249 405.354C449.579 407.102 448.856 407.421 448.855 405.971C448.855 405.449 449.304 404.744 449.853 404.405ZM628.355 404.823C626.798 401.913 627.882 399.183 629.923 400.877C630.748 401.562 631.409 402.635 631.392 403.261C631.372 403.886 630.693 403.516 629.879 402.439C628.154 400.159 628.007 400.717 629.382 404.332C630.564 407.442 629.921 407.75 628.355 404.823ZM482.896 395.824C484.069 395.824 480.357 399.286 474.655 403.511C470.554 406.549 469.75 406.947 472.225 404.713C478.469 399.074 482.37 395.825 482.896 395.824ZM478.017 405.571C479.491 403.736 485.167 399.413 485.167 400.126C485.165 400.35 483.236 402.064 480.88 403.937C478.522 405.81 477.234 406.546 478.017 405.571ZM514.509 400.867C515.879 399.192 516.221 399.023 515.528 400.362C513.828 403.652 512.432 405.477 512.439 404.397C512.443 403.843 513.374 402.254 514.509 400.867ZM421.621 402.593C422.731 402.303 423.639 402.424 423.639 402.862C423.638 403.3 422.73 403.895 421.621 404.186C420.512 404.475 419.604 404.355 419.604 403.917C419.604 403.479 420.512 402.883 421.621 402.593ZM412.483 400.867C413.071 400.867 413.552 401.321 413.552 401.876C413.552 402.431 413.351 402.885 413.106 402.885C412.862 402.884 412.382 402.43 412.039 401.876C411.696 401.321 411.896 400.867 412.483 400.867ZM439.338 401.58C439.717 400.585 440.28 400.026 440.591 400.336C440.901 400.647 440.592 401.46 439.902 402.145C438.906 403.133 438.79 403.017 439.338 401.58ZM451.755 400.11C450.501 398.511 450.537 398.475 452.136 399.729C453.107 400.491 453.901 401.286 453.901 401.495C453.901 402.325 453.073 401.79 451.755 400.11ZM511.91 398.85C510.807 400.237 509.785 401.561 509.641 401.792C509.496 402.023 509.378 401.752 509.378 401.191C509.378 400.63 510.399 399.307 511.647 398.25L513.917 396.328L511.91 398.85ZM142.276 379.656C144.703 378.358 164.836 378.296 169.161 379.573C174.814 381.242 178.666 384.106 180.769 388.202L182.811 392.181L180.562 394.002C179.061 395.217 176.586 395.834 173.128 395.854C169.116 395.881 168.343 396.117 169.709 396.913C172.574 398.582 171.775 400.72 168.023 401.424C163.996 402.179 160.599 401.551 150.438 398.171C146.356 396.813 142.785 395.935 142.501 396.219C142.218 396.503 143.197 397.039 144.676 397.41C146.429 397.85 147.258 398.658 147.055 399.729C146.655 401.83 136.32 402.63 134.398 400.708C131.636 397.946 133.559 395.89 139.027 395.76C141.643 395.7 141.655 395.67 139.449 394.783C136.751 393.699 136.712 393.205 138.766 386.142C139.678 383.004 141.169 380.249 142.276 379.656ZM624.936 400.154C624.388 398.717 624.504 398.601 625.5 399.59C626.189 400.274 626.499 401.088 626.188 401.398C625.878 401.709 625.314 401.149 624.936 400.154ZM499.039 398.721C500.639 397.466 500.675 397.502 499.42 399.102C498.102 400.782 497.275 401.316 497.274 400.486C497.274 400.277 498.068 399.482 499.039 398.721ZM693.284 394.814C693.531 394.814 694.476 395.95 695.385 397.337C697.085 399.932 696.99 400.843 695.253 398.598C693.741 396.642 692.79 394.815 693.284 394.814ZM142.224 398.85C140.236 397.565 136.171 397.565 136.171 398.85C136.171 399.404 137.874 399.851 139.954 399.843C142.767 399.83 143.349 399.577 142.224 398.85ZM155.84 380.713C143.122 380.726 142.516 380.978 140.718 387.034C139.885 389.838 139.316 392.228 139.453 392.346C139.771 392.618 157.025 398.067 160.379 398.953C164.127 399.944 167.439 399.971 167.439 399.012C167.439 398.546 166.305 397.648 164.918 397.016C161.925 395.652 161.193 391.079 164.162 392.297C167.055 393.483 174.194 394.102 176.962 393.407C180.599 392.494 180.243 389.586 176.041 385.896C171.461 381.876 166.892 380.703 155.84 380.713ZM417.277 396.903C418.493 396.864 419.767 397.286 420.11 397.841C420.848 399.034 419.861 399.034 417.085 397.841C415.14 397.005 415.147 396.972 417.277 396.903ZM452.641 397.173C453.334 396.893 454.469 396.893 455.162 397.173C455.856 397.453 455.288 397.682 453.901 397.682C452.514 397.682 451.947 397.452 452.641 397.173ZM503.074 394.687C504.674 393.432 504.709 393.468 503.454 395.067C502.137 396.747 501.309 397.281 501.309 396.451C501.309 396.242 502.104 395.448 503.074 394.687ZM489.709 396.163C492.286 393.722 498.618 389.593 497.09 391.351C496.156 392.424 493.886 394.161 492.046 395.211C490.206 396.26 489.154 396.689 489.709 396.163ZM450.687 395.135C451.414 394.844 452.284 394.879 452.619 395.214C452.954 395.549 452.359 395.788 451.296 395.744C450.121 395.698 449.882 395.457 450.687 395.135ZM514.985 392.798C515.23 392.798 515.43 393.252 515.43 393.807C515.429 394.361 514.949 394.814 514.361 394.814C513.774 394.814 513.574 394.361 513.917 393.807C514.26 393.252 514.741 392.798 514.985 392.798ZM663.48 390.78C664.035 390.78 665.56 391.673 666.87 392.764C668.18 393.855 668.798 394.748 668.243 394.748C667.689 394.748 666.163 393.855 664.854 392.764C663.544 391.673 662.926 390.78 663.48 390.78ZM642.316 389.771C642.922 389.771 644.691 390.892 646.248 392.262C649.812 395.398 649.098 395.371 644.643 392.207C642.758 390.868 641.711 389.772 642.316 389.771ZM481.692 389.387C482.59 389.042 482.995 389.213 482.642 389.784C482.049 390.742 480.128 391.201 480.127 390.385C480.127 390.167 480.831 389.717 481.692 389.387ZM426.104 387.787C426.691 387.807 426.291 388.485 425.214 389.3C424.137 390.114 422.775 390.767 422.188 390.749C421.6 390.729 422 390.05 423.077 389.235C424.154 388.421 425.516 387.77 426.104 387.787ZM505.912 389.477C506.291 388.482 506.855 387.922 507.166 388.232C507.476 388.543 507.167 389.357 506.478 390.041C505.481 391.03 505.365 390.914 505.912 389.477ZM704.215 387.255C704.501 386.968 705.559 387.644 706.566 388.757C708.711 391.127 708.365 391.309 705.638 389.246C704.569 388.437 703.929 387.542 704.215 387.255ZM501.309 387.755C502.418 387.161 503.326 386.902 503.326 387.18C503.326 387.457 502.418 388.17 501.309 388.764C500.199 389.357 499.291 389.616 499.291 389.339C499.291 389.062 500.199 388.349 501.309 387.755ZM740.362 386.656C738.19 384.879 738.148 384.743 740.055 385.675C741.272 386.269 742.546 387.208 742.888 387.76C743.798 389.233 743.186 388.966 740.362 386.656ZM429.693 386.688C429.694 386.101 430.147 385.901 430.702 386.244C431.257 386.587 431.711 387.068 431.711 387.312C431.711 387.557 431.257 387.757 430.702 387.757C430.148 387.757 429.693 387.276 429.693 386.688ZM356.292 382.714C356.882 382.714 356.784 383.355 356.061 384.228C355.37 385.059 354.648 385.74 354.456 385.74C354.264 385.74 354.369 385.06 354.688 384.228C355.007 383.395 355.729 382.714 356.292 382.714ZM677.696 382.967C676.442 381.367 676.478 381.331 678.077 382.586C679.047 383.347 679.842 384.141 679.843 384.351C679.843 385.181 679.014 384.647 677.696 382.967ZM698.755 381.138C701.811 383.899 702.497 384.731 701.718 384.731C701.544 384.731 700.069 383.256 698.439 381.453L695.477 378.176L698.755 381.138ZM462.259 376.011C464.356 378.451 465.051 378.72 466.815 377.776C469.844 376.155 470.729 376.413 468.466 378.258C466.717 379.683 466.702 379.791 468.325 379.277C469.324 378.961 469.889 379.112 469.58 379.613C469.271 380.115 469.509 380.688 470.109 380.889C470.744 381.1 470.431 381.942 469.359 382.898C467.869 384.229 467.292 384.296 466.334 383.249C465.458 382.292 465.445 381.66 466.281 380.821C467.12 379.982 466.987 379.689 465.77 379.688C464.864 379.688 463.147 378.213 461.954 376.41L459.784 373.132L462.259 376.011ZM729.268 377.504C726.216 374.688 724.628 372.857 725.737 373.435C727.639 374.425 736.252 382.767 735.271 382.669C735.017 382.64 732.317 380.318 729.268 377.504ZM410.961 381.823C411.842 380.398 420.697 376.516 421.975 376.995C422.614 377.235 421.775 377.942 420.111 378.566C418.447 379.191 415.88 380.38 414.407 381.208C411.376 382.913 410.152 383.132 410.961 381.823ZM669.285 371.619C670.049 371.619 673.375 375.387 674.852 377.924C676.459 380.686 675.587 379.993 671.969 375.636C670.135 373.427 668.927 371.619 669.285 371.619ZM689.711 373.006C683.1 367.219 681.76 365.859 684.468 367.682C687.454 369.692 696.387 377.671 695.652 377.671C695.313 377.669 692.641 375.571 689.711 373.006ZM748.313 375.654C748.868 375.655 749.602 376.108 749.945 376.662C750.289 377.217 750.114 377.671 749.56 377.671C749.005 377.671 748.271 377.217 747.928 376.662C747.585 376.108 747.759 375.654 748.313 375.654ZM739.865 375.665C739.512 375.094 739.918 374.924 740.814 375.269C742.562 375.939 742.882 376.662 741.432 376.662C740.909 376.662 740.204 376.214 739.865 375.665ZM430.257 373.637C430.501 373.637 430.702 374.091 430.702 374.646C430.702 375.2 430.221 375.654 429.634 375.654C429.046 375.654 428.846 375.2 429.188 374.646C429.532 374.091 430.012 373.637 430.257 373.637ZM174.501 371.619C174.501 369.389 176.548 369.007 179.639 370.661C182.281 372.076 181.142 373.637 177.467 373.637C175.173 373.637 174.501 373.179 174.501 371.619ZM733.065 370.546C731.132 368.732 730.61 367.859 731.801 368.435C733.938 369.467 738.108 373.636 737.005 373.637C736.651 373.637 734.877 372.246 733.065 370.546ZM480.943 368.595C481.221 368.595 480.626 369.502 479.622 370.611C478.618 371.721 477.569 372.629 477.292 372.629C477.015 372.628 477.61 371.72 478.613 370.611C479.617 369.502 480.666 368.595 480.943 368.595ZM733.747 367.025C731.901 365.546 731.933 365.526 734.311 366.658C737.398 368.129 737.971 368.595 736.689 368.595C736.148 368.595 734.824 367.888 733.747 367.025ZM478.173 365.244C480.709 363.073 481.792 363.058 479.998 365.218C479.237 366.135 478.761 367.145 478.941 367.462C479.486 368.419 477.328 368.769 476.74 367.818C476.441 367.333 477.085 366.175 478.173 365.244ZM55.7422 354.188C57.7104 351.185 61.1362 350.381 65.6719 351.857C68.6268 352.82 69.1433 353.518 69.8438 357.495C70.2833 359.991 70.3856 363.109 70.0713 364.424C69.5561 366.578 69.1122 366.753 65.5762 366.188C63.3299 365.829 61.384 365.991 61.0264 366.57C60.2948 367.754 58.5729 367.918 58.3506 366.825C58.2661 366.409 58.1447 365.566 58.082 364.952C58.0194 364.338 57.1013 362.225 56.041 360.256C54.2468 356.924 54.2255 356.503 55.7422 354.188ZM402.426 364.056C404.343 362.391 405.249 361.938 404.438 363.047C402.619 365.536 400.241 367.511 399.013 367.554C398.505 367.573 398.28 367.472 398.514 367.334C398.747 367.195 400.508 365.72 402.426 364.056ZM666.67 364.56C667.257 364.56 667.738 365.014 667.738 365.568C667.738 366.123 667.538 366.577 667.294 366.577C667.05 366.577 666.568 366.123 666.226 365.568C665.883 365.014 666.083 364.56 666.67 364.56ZM61.8174 353.476C57.6309 353.456 55.4837 356.732 57.9189 359.423C58.7953 360.391 59.5127 361.687 59.5127 362.302C59.5132 362.916 60.9883 363.602 62.791 363.826C64.5939 364.05 66.6642 364.306 67.3916 364.395C68.4051 364.518 68.5489 363.436 68.0078 359.765C67.2071 354.332 66.3861 353.497 61.8174 353.476ZM472.551 359.3C474.693 358.203 474.381 358.541 469.543 362.558C466.631 364.976 466.594 364.981 468.522 362.701C469.622 361.402 471.435 359.871 472.551 359.3ZM436.88 348.096C437.234 347.59 437.791 347.652 438.152 348.236C438.505 348.808 437.471 350.218 435.854 351.37C431.901 354.184 429.656 354.059 433.34 351.229C434.94 350 436.533 348.59 436.88 348.096ZM692.186 347.476C692.784 345.264 694.216 345.245 696.99 347.416C699.935 349.717 699.541 349.933 695.988 347.967C694.099 346.921 693.264 346.867 692.633 347.75C692.052 348.563 691.914 348.478 692.186 347.476ZM697.635 343.383C698.266 343.38 699.855 344.27 701.165 345.361C704.164 347.86 703.443 347.843 699.512 345.327C697.847 344.261 697.003 343.386 697.635 343.383ZM692.703 341.792C688.933 339.746 689.162 338.895 692.955 340.856C694.619 341.717 695.981 342.636 695.981 342.899C695.981 343.548 695.873 343.512 692.703 341.792ZM171.076 336.908C171.914 334.726 177.84 333.07 182.008 333.852C186.28 334.653 193.665 339.734 193.665 341.871C193.665 343.797 191.245 343.677 181.057 341.244C170.55 338.736 170.4 338.67 171.076 336.908ZM190.064 340.237C188.661 337.967 180.548 335.149 177.404 335.84C173.401 336.719 174.039 337.176 182.248 339.313C190.966 341.584 190.891 341.575 190.064 340.237ZM384.175 338.587C382.92 336.987 382.956 336.951 384.556 338.206C386.236 339.524 386.77 340.352 385.939 340.352C385.73 340.351 384.936 339.557 384.175 338.587ZM455.355 334.859C457.535 333.114 458.839 332.935 460.712 334.124C461.625 334.704 461.207 335.486 459.199 336.947C454.37 340.463 453.269 340.731 456.928 337.5C460.444 334.394 459.79 333.341 455.601 335.364C453.472 336.392 453.464 336.375 455.355 334.859ZM685.391 337.356C685.945 337.357 687.08 337.797 687.912 338.335C688.744 338.872 688.97 339.312 688.416 339.312C687.861 339.312 686.727 338.873 685.895 338.335C685.062 337.797 684.836 337.356 685.391 337.356ZM697.719 333.291C698.988 333.291 701.504 336.175 700.826 336.853C700.559 337.12 699.516 336.427 698.509 335.314C697.502 334.202 697.146 333.291 697.719 333.291ZM385.828 326.786C388.087 324.029 390.045 322.527 390.933 322.868C391.725 323.172 392.373 323.647 392.373 323.925C392.373 324.202 391.688 324.166 390.851 323.845C389.854 323.462 388.548 324.463 387.068 326.741C385.825 328.655 384.213 330.454 383.486 330.739C382.76 331.024 383.813 329.245 385.828 326.786ZM694.189 327.743C694.619 327.168 694.948 327.493 694.957 328.5C694.964 329.481 694.226 330.265 693.292 330.266C692.367 330.266 692.021 329.925 692.523 329.509C693.025 329.092 693.775 328.298 694.189 327.743ZM701.658 327.271C702.284 327.252 703.36 327.92 704.051 328.752C705.645 330.673 704.994 330.686 702.479 328.784C701.402 327.97 701.033 327.289 701.658 327.271ZM686.784 327.239C687.339 327.239 688.073 327.693 688.416 328.248C688.759 328.803 688.586 329.257 688.031 329.257C687.477 329.257 686.742 328.803 686.399 328.248C686.056 327.694 686.23 327.239 686.784 327.239ZM346.617 325.727C348.949 321.744 349 321.685 349 322.925C349 323.51 348.065 325.061 346.923 326.371L344.846 328.753L346.617 325.727ZM330.631 322.669C327.095 316.841 327.834 316.86 331.853 322.701C333.57 325.197 334.613 327.225 334.171 327.209C333.728 327.189 332.135 325.148 330.631 322.669ZM680.852 324.718C680.852 322.783 682.77 322.8 687.04 324.771C690.191 326.226 688.93 326.145 683.72 324.557C682.209 324.096 681.765 324.251 682.267 325.062C682.663 325.703 682.507 326.228 681.92 326.229C681.332 326.229 680.852 325.55 680.852 324.718ZM684.945 318.161C685.533 318.161 685.69 318.685 685.296 319.323C684.901 319.962 685.415 321.097 686.438 321.845C688.268 323.183 687.609 323.534 685.139 322.537C683.609 321.92 683.443 318.161 684.945 318.161ZM236.11 308.233L238.204 312.339L235.352 315.35C232.697 318.151 232.12 318.322 227.044 317.812C224.044 317.511 220.884 316.562 220.024 315.702C218.612 314.29 218.14 314.45 215.142 317.356C213.316 319.126 211.821 320.126 211.821 319.578C211.821 318.318 219.474 311.019 223.24 308.688C224.805 307.719 227.869 306.297 230.05 305.527L234.016 304.128L236.11 308.233ZM291.711 317.198C292.388 316.114 293.084 315.368 293.257 315.541C293.855 316.139 292.295 319.169 291.39 319.17C290.89 319.17 291.034 318.283 291.711 317.198ZM448.589 317.027C449.273 316.338 450.087 316.028 450.397 316.339C450.708 316.65 450.148 317.213 449.153 317.592C447.716 318.139 447.6 318.023 448.589 317.027ZM687.643 316.019C688.327 315.329 689.142 315.02 689.452 315.33C689.762 315.641 689.203 316.204 688.208 316.583C686.77 317.13 686.654 317.014 687.643 316.019ZM234.193 309.584C232.746 306.407 231.377 306.425 225.519 309.7C220.494 312.508 220.045 314.154 224 315.26C228.543 316.529 231.672 316.155 233.512 314.123C235.023 312.453 235.141 311.664 234.193 309.584ZM452.977 314.806C454.691 313.463 460.96 310.029 460.962 310.432C460.962 311.084 454.419 315.135 453.362 315.136C452.919 315.136 452.745 314.987 452.977 314.806ZM207.915 311.349C209.17 309.749 209.134 309.713 207.534 310.968C206.564 311.729 205.77 312.523 205.77 312.732C205.77 313.563 206.597 313.029 207.915 311.349ZM321.514 308.483C323.646 310.289 324.242 311.1 323.436 311.101C323.245 311.101 322.223 310.079 321.166 308.831L319.244 306.562L321.514 308.483ZM253.93 274.791C254.347 274.792 249.81 279.518 243.847 285.292C237.883 291.066 233.003 296.245 233.003 296.799C233.004 297.353 235.027 297.775 237.499 297.737C244.511 297.631 246.971 300.93 243.537 305.833C241.385 308.906 240.024 308.657 236.786 304.599C235.261 302.687 234.012 300.644 234.012 300.06C234.012 299.475 233.558 298.997 233.003 298.997C232.448 298.997 231.994 297.635 231.994 295.971C231.994 294.306 232.376 292.944 232.842 292.944C233.31 292.942 238.073 288.858 243.429 283.866C248.786 278.874 253.511 274.79 253.93 274.791ZM394.08 292.957C394.908 292.97 399.434 299.447 399.434 300.619C399.433 300.972 398.752 300.696 397.92 300.005C395.717 298.177 396.111 300.098 398.541 303.031C400.262 305.109 400.514 305.198 399.972 303.536C399.473 302.007 399.597 301.8 400.486 302.682C401.271 303.46 401.342 304.413 400.699 305.562C399.89 307.008 399.213 306.427 396.423 301.893C394.6 298.93 393.851 297.122 394.758 297.875C396.847 299.609 396.89 298.119 394.837 295.187C393.974 293.954 393.633 292.951 394.08 292.957ZM238.222 302.978C239.512 304.611 240.666 305.973 240.785 306.004C240.905 306.035 241.518 305.091 242.149 303.912C243.485 301.417 242.103 300.046 238.222 300.021L235.876 300.008L238.222 302.978ZM294.547 300.757C294.567 298.225 296.507 294.402 296.534 296.846C296.547 297.984 296.828 297.999 298.118 296.929C299.518 295.767 299.55 295.927 298.417 298.413C297.278 300.912 297.063 301.008 296.33 299.34C295.716 297.941 295.607 298.168 295.892 300.253C296.1 301.778 295.878 303.026 295.401 303.026C294.924 303.026 294.538 302.005 294.547 300.757ZM466.517 300.013C466.164 299.441 466.57 299.271 467.466 299.615C469.213 300.286 469.533 301.009 468.082 301.009C467.56 301.009 466.856 300.561 466.517 300.013ZM291.195 292.812C292.65 291.631 292.775 291.637 292.043 292.851C291.571 293.634 290.849 295.677 290.439 297.39L289.695 300.504L289.592 297.351C289.533 295.502 290.195 293.623 291.195 292.812ZM287.551 298.403C287.597 297.229 287.838 296.99 288.16 297.794C288.451 298.522 288.415 299.392 288.08 299.728C287.745 300.063 287.507 299.466 287.551 298.403ZM301.293 295.966C302.457 295.966 305.146 298.829 304.51 299.391C304.291 299.582 303.24 298.89 302.173 297.853C301.105 296.815 300.709 295.966 301.293 295.966ZM354.771 296.924C356.004 295.627 357.207 294.768 357.446 295.013C357.685 295.259 356.676 296.321 355.205 297.372L352.53 299.282L354.771 296.924ZM708.597 296.989C708.243 296.418 708.65 296.249 709.546 296.593C711.293 297.263 711.613 297.986 710.162 297.986C709.64 297.986 708.936 297.538 708.597 296.989ZM390.034 288.518C389.143 286.194 391.037 287.422 392.468 290.095C393.274 291.601 393.276 291.988 392.474 291.492C391.084 290.633 391.061 291.499 392.407 294.019C394.238 297.439 392.656 296.11 390.453 292.378C389.288 290.403 388.867 289.116 389.517 289.518C390.319 290.013 390.485 289.693 390.034 288.518ZM410.217 287.915C410.877 287.908 411.699 288.354 412.042 288.908C412.816 290.16 412.466 290.16 410.528 288.908C409.62 288.321 409.495 287.924 410.217 287.915ZM452.44 283.48C453.338 283.136 453.743 283.305 453.39 283.877C452.797 284.835 450.875 285.294 450.875 284.478C450.875 284.26 451.58 283.811 452.44 283.48ZM365.465 280.587C362.804 277.632 361.23 274.67 363.729 277.322C366.494 280.256 368.481 282.855 367.96 282.856C367.712 282.856 366.589 281.835 365.465 280.587ZM282.508 281.26C282.554 280.085 282.795 279.846 283.117 280.65C283.408 281.378 283.372 282.248 283.037 282.583C282.702 282.918 282.464 282.323 282.508 281.26ZM458.181 280.244C459.237 279.139 460.251 278.789 460.72 279.369C461.149 279.9 461.319 280.237 461.099 280.118C460.878 279.999 459.735 280.392 458.56 280.992C456.515 282.036 456.499 282.004 458.181 280.244ZM716.154 278.763C716.154 278.175 716.608 277.975 717.163 278.317C717.718 278.66 718.172 279.141 718.172 279.386C718.172 279.63 717.718 279.83 717.163 279.83C716.609 279.83 716.154 279.35 716.154 278.763ZM447.85 275.796C448.959 275.202 449.866 274.943 449.866 275.221C449.866 275.498 448.959 276.211 447.85 276.805C446.74 277.399 445.832 277.658 445.832 277.38C445.832 277.103 446.74 276.39 447.85 275.796ZM279.744 271.202C278.54 269.355 278.141 268.08 278.852 268.353C280.058 268.816 282.845 273.74 282.214 274.292C282.054 274.431 280.943 273.041 279.744 271.202ZM256.202 271.761C257.312 271.167 258.22 270.909 258.22 271.187C258.219 271.464 257.311 272.177 256.202 272.771C255.093 273.364 254.187 273.623 254.186 273.346C254.186 273.068 255.093 272.355 256.202 271.761ZM259.229 268.838C259.23 268.049 266.328 264.403 266.849 264.924C267.017 265.095 265.373 266.21 263.193 267.404C261.013 268.599 259.229 269.244 259.229 268.838ZM366.207 260.666C366.636 260.667 368.424 262.482 370.182 264.7C371.939 266.919 373.208 268.735 373.002 268.735C372.795 268.735 371.006 266.919 369.026 264.7C367.047 262.481 365.778 260.666 366.207 260.666ZM438.015 267.695C434.522 266.291 435.327 265.673 439.023 266.92C440.826 267.528 442.491 268.186 442.722 268.381C443.542 269.073 440.249 268.594 438.015 267.695ZM194.674 242.441C194.674 239.914 196.865 239.931 198.452 242.472C201.924 248.031 210.812 264.684 210.812 265.629C210.812 268.74 207.423 265.809 202.426 258.376C196.597 249.706 194.674 245.753 194.674 242.441ZM370.406 261.113C370.639 260.881 371.832 262.047 373.058 263.704C374.283 265.361 374.931 266.704 374.499 266.687C374.066 266.667 372.873 265.503 371.848 264.096C370.822 262.688 370.174 261.346 370.406 261.113ZM368.164 257.27C368.164 256.638 368.635 256.698 369.358 257.422C370.015 258.078 370.317 258.849 370.03 259.136C369.744 259.422 369.207 259.355 368.837 258.984C368.467 258.614 368.164 257.843 368.164 257.27ZM366.426 251.981C366.69 251.717 367.175 252.202 367.504 253.058C368.186 254.835 367.605 255.147 366.61 253.538C366.245 252.946 366.162 252.246 366.426 251.981ZM389.347 248.941C389.347 248.493 393.777 250.753 396.407 252.544C399.322 254.529 395.87 253.55 392.625 251.472C390.823 250.317 389.347 249.179 389.347 248.941ZM673.662 251.84C672.382 250.207 672.429 250.186 674.295 251.555C675.404 252.368 676.5 253.162 676.732 253.319C676.964 253.476 676.68 253.605 676.1 253.605C675.52 253.605 674.423 252.811 673.662 251.84ZM231.742 246.564C231.048 246.577 227.304 247.444 223.421 248.49L216.36 250.394L223.086 250.485C226.785 250.535 230.531 250.301 231.408 249.964C233.296 249.239 233.562 246.531 231.742 246.564ZM385.449 246.067C385.77 245.746 386.607 246.176 387.309 247.021C388.764 248.775 388.485 248.94 386.35 247.59C385.534 247.074 385.128 246.388 385.449 246.067ZM686.857 245.446C685.256 242.455 686.069 242.263 688.211 245.127C689.208 246.46 689.564 247.55 689.003 247.55C688.442 247.549 687.477 246.603 686.857 245.446ZM723.407 245.005C723.698 244.714 724.72 244.777 725.678 245.145C727.058 245.674 727.14 245.99 726.074 246.666C725.334 247.135 724.274 247.52 723.72 247.52C723.165 247.519 723.391 247.079 724.224 246.541C725.469 245.736 725.485 245.561 724.309 245.548C723.523 245.539 723.117 245.295 723.407 245.005ZM379.977 240.489C380.564 240.489 381.789 241.624 382.697 243.011C383.606 244.398 384.191 245.532 383.998 245.532C383.804 245.532 382.58 244.398 381.277 243.011C379.975 241.624 379.389 240.49 379.977 240.489ZM718.053 241.498C718.607 241.498 719.343 241.952 719.686 242.507C720.028 243.061 719.854 243.516 719.3 243.516C718.745 243.516 718.011 243.061 717.668 242.507C717.325 241.952 717.498 241.498 718.053 241.498ZM371.931 238.347C372.615 237.658 373.429 237.348 373.739 237.658C374.05 237.969 373.49 238.532 372.495 238.911C371.058 239.459 370.942 239.343 371.931 238.347ZM475.083 236.485C476.428 236.485 476.428 236.594 475.083 237.463C474.251 238.001 472.89 238.441 472.058 238.441C470.713 238.441 470.713 238.332 472.058 237.463C472.89 236.925 474.251 236.485 475.083 236.485ZM439.009 178.387C439.279 178.118 443.307 181.906 447.961 186.806C454.678 193.877 457.966 198.505 463.904 209.243C468.497 217.548 471.467 224.11 471.597 226.236C471.736 228.531 472.61 230.307 474.187 231.496C475.495 232.483 476.339 233.518 476.062 233.795C475.784 234.072 474.429 233.449 473.051 232.409C471.162 230.985 470.53 229.551 470.483 226.593C470.364 218.948 455.08 195.028 442.44 182.701C440.284 180.598 438.739 178.656 439.009 178.387ZM688.83 227.066C689.627 226.27 689.932 226.305 689.932 227.194C689.932 228.003 690.882 228.226 692.706 227.848L695.479 227.272L692.706 228.869C689.725 230.586 688.925 232.013 691.497 231.026C692.395 230.682 692.8 230.851 692.446 231.423C691.461 233.017 690.088 232.585 688.862 230.294C688.04 228.757 688.031 227.863 688.83 227.066ZM697.182 225.84C698.041 224.981 701.064 226.498 700.455 227.482C700.148 227.979 699.442 228.386 698.888 228.386C698.333 228.386 698.16 227.931 698.503 227.377C698.845 226.822 698.57 226.368 697.89 226.368C697.21 226.368 696.891 226.13 697.182 225.84ZM691.758 225.679C692.486 225.387 693.355 225.424 693.69 225.759C694.026 226.094 693.43 226.332 692.367 226.288C691.192 226.24 690.953 226.001 691.758 225.679ZM694.393 221.659C693.841 219.903 693.869 219.901 694.968 221.614C695.603 222.606 695.901 223.968 695.628 224.641C695.27 225.523 695.11 225.535 695.053 224.686C695.007 224.037 694.712 222.675 694.393 221.659ZM400.99 220.387C400.653 219.84 401.639 220.051 403.183 220.856C404.727 221.662 406.531 222.324 407.191 222.327C407.852 222.331 408.673 222.787 409.016 223.342C409.825 224.652 408.744 224.509 404.806 222.784C403.045 222.013 401.328 220.934 400.99 220.387ZM396.16 216.281C396.715 216.281 397.734 216.962 398.425 217.794C399.125 218.638 399.234 219.307 398.672 219.308C398.117 219.308 397.098 218.626 396.407 217.794C395.707 216.95 395.598 216.281 396.16 216.281ZM401.925 205.385C402.147 205.162 403.953 208.203 405.938 212.144C407.922 216.084 409.328 219.308 409.063 219.308C408.798 219.307 408.026 218.286 407.346 217.038C403.744 210.428 401.566 205.747 401.925 205.385ZM441.797 215.272C442.334 214.44 442.775 214.214 442.775 214.769C442.775 215.323 442.335 216.458 441.797 217.29C441.259 218.122 440.819 218.349 440.819 217.794C440.82 217.239 441.259 216.104 441.797 215.272ZM697.81 215.593C698.538 215.301 699.408 215.337 699.743 215.672C700.078 216.007 699.482 216.246 698.419 216.202C697.244 216.154 697.005 215.915 697.81 215.593ZM397.92 213.388C399.584 212.357 401.173 211.716 401.449 211.963C402.213 212.647 398.253 215.273 396.467 215.268C395.56 215.265 396.175 214.469 397.92 213.388ZM705.974 206.194C706.249 206.196 704.704 208.012 702.538 210.229C700.372 212.448 698.372 214.263 698.094 214.264C697.816 214.264 699.362 212.449 701.529 210.229C703.696 208.01 705.696 206.194 705.974 206.194ZM400.579 203.216C401.336 203.242 399.799 204.385 397.164 205.757C394.383 207.205 392.373 208.951 392.373 209.92C392.373 211.323 392.745 211.239 394.707 209.396C397.935 206.364 399.315 206.63 396.407 209.725C393.443 212.88 391.364 212.957 391.364 209.911C391.364 208.248 392.493 206.941 395.284 205.372C397.44 204.161 399.822 203.19 400.579 203.216ZM488.26 199.193C488.299 198.198 488.653 198.439 489.221 199.85C490.181 202.236 496.731 207.43 502.017 209.997C504.665 211.283 505.527 211.332 506.808 210.27C508.426 208.926 508.981 205.186 507.562 205.186C507.119 205.186 506.211 205.731 505.545 206.396C504.735 207.206 504.335 207.241 504.335 206.504C504.335 205.436 506.563 204.178 508.452 204.178C509.834 204.178 509.509 208.459 507.974 210.481C505.997 213.086 503.509 212.584 496.811 208.231C490.378 204.052 488.158 201.705 488.26 199.193ZM168.064 206.483C167.607 206.026 159.753 208.729 153.823 211.385C150.077 213.062 157.051 211.323 163.012 209.093C166.078 207.946 168.351 206.772 168.064 206.483ZM399.434 207.842C399.434 207.21 399.903 207.27 400.627 207.993C401.284 208.65 401.585 209.421 401.299 209.708C401.012 209.994 400.475 209.926 400.105 209.557C399.735 209.187 399.434 208.415 399.434 207.842ZM440.868 206.615C440.914 205.44 441.155 205.201 441.478 206.006C441.769 206.734 441.733 207.603 441.397 207.938C441.062 208.273 440.824 207.678 440.868 206.615ZM501.878 205.481C501.331 204.044 501.446 203.928 502.442 204.917C503.132 205.601 503.441 206.415 503.131 206.726C502.821 207.036 502.257 206.476 501.878 205.481ZM708.074 203.68C708.646 203.327 708.815 203.732 708.471 204.629C707.8 206.376 707.077 206.696 707.077 205.245C707.077 204.723 707.526 204.019 708.074 203.68ZM681.591 205.061C682.275 204.371 683.089 204.062 683.399 204.372C683.71 204.683 683.15 205.246 682.155 205.625C680.718 206.172 680.602 206.057 681.591 205.061ZM502.881 201.151C503.125 201.151 503.326 201.605 503.326 202.16C503.326 202.715 502.845 203.169 502.258 203.169C501.67 203.169 501.47 202.715 501.813 202.16C502.156 201.606 502.636 201.152 502.881 201.151ZM437.763 197.756C437.763 197.124 438.232 197.183 438.956 197.907C439.612 198.563 439.915 199.334 439.629 199.621C439.342 199.908 438.805 199.84 438.436 199.47C438.065 199.1 437.763 198.329 437.763 197.756ZM495.31 190.81C495.336 190.118 496.133 190.686 497.075 192.071C498.017 193.457 499.88 195.617 501.215 196.872C502.55 198.127 503.408 199.388 503.121 199.675C502.835 199.961 500.948 198.367 498.929 196.132C496.909 193.896 495.28 191.501 495.31 190.81ZM663.452 196.517C665.585 198.322 666.18 199.134 665.373 199.134C665.181 199.133 664.16 198.112 663.104 196.864L661.183 194.595L663.452 196.517ZM486.242 192.747C486.275 192.099 486.741 192.657 487.272 193.985C487.804 195.314 488.059 196.582 487.838 196.803C487.617 197.023 487.153 196.466 486.808 195.564C486.462 194.663 486.207 193.395 486.242 192.747ZM693.952 192.585C694.524 192.232 694.693 192.636 694.349 193.534C693.678 195.281 692.955 195.601 692.955 194.15C692.955 193.628 693.404 192.924 693.952 192.585ZM440.726 190.276C441.281 189.323 441.75 189.078 441.767 189.731C441.806 191.268 438.975 194.099 437.438 194.06C436.784 194.042 437.03 193.575 437.982 193.02C438.935 192.464 440.17 191.229 440.726 190.276ZM440.729 186.021C441.316 186.021 441.797 186.476 441.797 187.03C441.797 187.585 441.597 188.039 441.353 188.039C441.108 188.039 440.627 187.585 440.284 187.03C439.942 186.476 440.141 186.022 440.729 186.021ZM434.736 180.129C438.527 177.326 438.693 178.234 434.989 181.513C432.643 183.589 432.449 184.124 433.729 184.979C435.026 185.847 434.99 185.993 433.476 186.006C432.438 186.015 431.711 185.267 431.711 184.193C431.711 183.188 433.072 181.359 434.736 180.129ZM513.062 175.974C514.3 176.03 524.196 184.974 522.995 184.952C522.44 184.942 519.786 182.908 517.098 180.434C514.41 177.96 512.594 175.953 513.062 175.974ZM490.291 178.883C487.404 175.996 487.487 175.339 490.587 176.528C492.244 177.165 494.851 183.738 493.845 184.744C493.512 185.077 493.239 184.557 493.239 183.59C493.239 182.622 491.912 180.504 490.291 178.883ZM523.69 176.943C524.366 176.943 524.31 177.48 523.536 178.412C522.866 179.22 522.648 180.416 523.052 181.07C523.548 181.872 524.221 181.476 525.12 179.854C526.342 177.65 526.463 177.617 526.561 179.465L526.667 181.482L527.534 179.465C528.209 177.895 528.417 177.815 528.472 179.102C528.511 180.011 527.748 181.608 526.777 182.652C525.807 183.696 525.352 184.11 525.769 183.571C527.131 181.807 526.561 180.702 524.97 182.022C523.877 182.93 523.097 182.996 522.348 182.247C521.104 181.003 522.132 176.944 523.69 176.943ZM662.576 158.787C663.131 158.787 663.865 159.241 664.208 159.796C664.55 160.351 664.378 160.805 663.823 160.805C663.269 160.805 662.534 160.351 662.191 159.796C661.848 159.241 662.022 158.787 662.576 158.787ZM149.536 148.715C154.328 148.735 157.353 149.751 157.354 151.34C157.354 152.721 152.131 153.113 148.023 152.04C144.845 151.209 145.987 148.7 149.536 148.715ZM107.929 140.937C107.929 138.064 119.99 139.02 130.745 142.747C135.391 144.357 140.253 145.675 141.549 145.675C144.586 145.675 145.521 146.653 144.108 148.355C143.022 149.665 141.035 149.81 134.658 149.044C123.832 147.744 107.93 142.921 107.929 140.937ZM128.335 144.098C121.701 141.533 107.981 139.437 112.972 141.751C116.496 143.385 129.101 146.534 132.137 146.539C133.775 146.542 132.443 145.686 128.335 144.098ZM829.689 134.579C829.934 134.579 830.134 135.033 830.134 135.588C830.134 136.143 829.653 136.597 829.065 136.597C828.478 136.597 828.278 136.143 828.621 135.588C828.964 135.033 829.445 134.579 829.689 134.579ZM626.131 116.295C627.731 115.04 627.766 115.076 626.512 116.676C625.194 118.356 624.366 118.89 624.366 118.06C624.367 117.85 625.161 117.056 626.131 116.295ZM678.395 117.137C678.773 116.142 679.337 115.582 679.647 115.893C679.958 116.203 679.648 117.017 678.959 117.701C677.963 118.69 677.847 118.574 678.395 117.137ZM216.37 111.412C215.871 109.839 215.994 109.328 216.757 109.8C218.97 111.168 217.98 115.045 215.1 116.289L212.325 117.487L214.713 115.601C216.532 114.164 216.927 113.166 216.37 111.412ZM840.948 107.346C841.785 107.347 837.629 112.327 836.767 112.356C836.255 112.373 836.901 111.254 838.203 109.867C839.506 108.48 840.742 107.346 840.948 107.346ZM201.808 92.8525C199.271 90.1518 198.103 88.4082 199.213 88.9775C200.322 89.5469 202.357 91.3023 203.733 92.8789C211.157 101.382 215.994 107.543 215.575 107.962C215.313 108.22 213.148 106.032 210.761 103.099C208.373 100.164 204.344 95.5533 201.808 92.8525ZM566.872 89.8281C566.872 89.1961 567.342 89.2557 568.065 89.9795C568.722 90.6359 569.025 91.4077 568.738 91.6943C568.452 91.9809 567.915 91.9126 567.545 91.543C567.175 91.1731 566.872 90.4014 566.872 89.8281ZM538.236 89.6934C539.066 85.9848 539.643 85.1802 539.622 87.7607C539.615 88.824 539.146 90.375 538.583 91.207C537.836 92.3115 537.742 91.903 538.236 89.6934ZM541.655 84.6738C541.655 84.1147 544.812 85.3376 552.246 88.7764C557.151 91.0451 557.231 91.0967 556.681 91.6475C556.438 91.8901 552.958 90.5457 548.947 88.6592C544.937 86.7726 541.655 84.9791 541.655 84.6738ZM209.552 88.1582C207.311 87.2044 207.315 87.1955 209.794 87.4346C211.258 87.5758 212.445 88.4123 212.642 89.4414C213.008 91.3669 211.456 91.6067 208.291 90.1133C206.563 89.2979 206.671 89.2159 209.047 89.54C212.411 89.999 212.608 89.4593 209.552 88.1582ZM543.378 79.9209C539.325 76.178 539.451 76.2225 546.194 80.9219C550.078 83.6282 555.463 86.7641 558.162 87.8896C560.861 89.0151 562.665 90.1859 562.171 90.4912C561.677 90.7965 558.201 89.425 554.447 87.4434C550.693 85.4617 545.712 82.0764 543.378 79.9209ZM562.917 86.8457C562.821 84.6258 565.948 84.8954 566.7 87.1719C567.117 88.4344 566.939 88.4691 565.621 87.3818C564.331 86.3172 563.947 86.3172 563.52 87.3818C563.198 88.1826 562.966 87.976 562.917 86.8457ZM875.072 83.7607C875.97 83.4164 876.375 83.5857 876.021 84.1572C875.429 85.1157 873.507 85.5747 873.507 84.7578C873.508 84.5397 874.212 84.091 875.072 83.7607ZM605.958 75.9482C607.558 74.6936 607.594 74.7293 606.339 76.3291C605.021 78.0092 604.192 78.5431 604.192 77.7129C604.193 77.5031 604.987 76.7094 605.958 75.9482ZM562.102 66.0449C562.783 66.0752 559.711 67.3637 555.272 68.9072C550.834 70.4508 545.75 72.4682 543.975 73.3906C539.154 75.8951 538.522 75.3913 543.168 72.748C547.299 70.398 559.874 65.9459 562.102 66.0449ZM606.427 66.0049C607.694 66.0135 609.413 66.4612 610.245 66.999C611.505 67.8132 611.421 67.9962 609.74 68.0928C607.845 68.2018 607.853 68.2478 609.89 68.8643C611.723 69.4192 611.84 69.7209 610.646 70.8213C609.832 71.572 609.236 71.6783 609.236 71.0732C609.236 70.4967 608.571 70.0245 607.759 70.0244C606.946 70.0244 605.795 69.1164 605.201 68.0068C604.268 66.2623 604.433 65.9915 606.427 66.0049ZM746.566 57.416C745.326 59.0803 743.4 61.5769 742.287 62.9639L740.263 65.4854L741.73 62.46C742.537 60.7957 744.463 58.2991 746.01 56.9121L748.823 54.3906L746.566 57.416ZM196.256 49.7383C203.004 48.4776 204.066 49.9038 199.719 54.3887C197.836 56.3313 196.044 57.9188 195.736 57.916C195.428 57.9122 193.931 56.8912 192.409 55.6465C188.789 52.6867 189.94 50.9181 196.256 49.7383ZM704.148 55.1807C704.806 53.3291 713.602 46.7764 713.972 47.8623C714.158 48.4083 714.838 48.5377 715.484 48.1504C716.13 47.7633 715.993 48.3281 715.18 49.4053C712.918 52.3997 712.758 52.5095 713.44 50.6074C714.405 47.9187 712.917 48.4711 708.112 52.584C705.709 54.6408 703.926 55.809 704.148 55.1807ZM197.013 51.5596C192.351 52.2797 191.759 52.7017 193.694 53.9258C195.644 55.1587 195.492 55.191 198.367 52.9297L200.865 50.9639L197.013 51.5596ZM185.867 50.1982C185.184 49.9219 183.822 49.9056 182.841 50.1611C181.86 50.4169 182.419 50.6425 184.083 50.6631C185.747 50.6835 186.55 50.4746 185.867 50.1982ZM149.774 39.7646C152.737 39.765 152.807 42.9711 149.9 45.4717C146.766 48.1676 143.232 48.5934 143.231 46.2754C143.231 44.2423 147.731 39.7646 149.774 39.7646ZM149.792 42.7852C150.957 40.8994 148.591 41.7783 146.666 43.9463C144.758 46.0951 144.76 46.1019 146.958 44.9492C148.175 44.3108 149.451 43.3369 149.792 42.7852ZM732.041 40.6445C733.674 39.364 733.695 39.4113 732.326 41.2773C731.513 42.3863 730.719 43.4829 730.562 43.7148C730.405 43.946 730.276 43.661 730.276 43.082C730.276 42.5027 731.07 41.4058 732.041 40.6445ZM691.411 28.6689C691.74 28.6689 688.252 32.067 683.657 36.2197C679.063 40.3724 674.887 43.7761 674.379 43.7842C673.871 43.792 673.644 43.6417 673.875 43.4492C674.107 43.2557 678.012 39.8514 682.554 35.8838C687.095 31.9162 691.081 28.6697 691.411 28.6689ZM785.753 41.2773C786.307 40.9347 786.762 41.1084 786.762 41.6631C786.762 42.2178 786.308 42.9521 785.753 43.2949C785.198 43.6378 784.744 43.4639 784.744 42.9092C784.744 42.3545 785.198 41.6201 785.753 41.2773ZM730.198 35.9707C734.02 33.5952 735.294 33.202 735.705 34.2725C735.999 35.0385 735.738 35.9765 735.119 36.3574C734.441 36.7767 734.283 36.5908 734.719 35.8857C735.983 33.8397 733.908 34.6234 728.321 38.3027C725.33 40.2726 723.411 41.2498 724.055 40.4736C724.699 39.6972 727.464 37.6707 730.198 35.9707ZM774.153 29.7666C775.31 29.7624 768.567 35.922 764.066 38.9814C762.402 40.1128 763.764 38.5031 767.093 35.4043C770.421 32.3057 773.599 29.769 774.153 29.7666ZM575.951 36.4463C577.061 36.1559 577.716 36.33 577.405 36.833C576.862 37.7114 573.933 38.1562 573.933 37.3604C573.933 37.1476 574.841 36.7366 575.951 36.4463ZM567.376 35.8164C568.485 35.7861 570.074 36.2006 570.906 36.7383C572.251 37.6074 572.251 37.7104 570.906 37.6611C570.074 37.6307 568.485 37.215 567.376 36.7383L565.359 35.8721L567.376 35.8164ZM622.969 24.835C624.655 24.5943 625.235 25.2012 625.742 27.7344C626.095 29.4968 626.384 31.2812 626.384 31.6992C626.382 32.1176 623.318 33.2153 619.575 34.1387C615.831 35.0623 612.054 36.0296 611.181 36.2891C610.309 36.5484 609.287 36.453 608.911 36.0771C607.203 34.3689 608.347 29.4757 611.001 27.1396C614.536 24.0285 615.673 24.0368 617.738 27.1885C619.509 29.8915 621.584 29.6702 621.114 26.8281C620.938 25.7611 621.621 25.0273 622.969 24.835ZM567.691 34.0322C568.419 33.7408 569.29 33.7771 569.625 34.1123C569.96 34.4473 569.363 34.6854 568.301 34.6416C567.126 34.5935 566.887 34.3542 567.691 34.0322ZM617.315 29.666C614.985 27.1231 614.637 27.0324 612.523 28.417C611.27 29.2383 610.245 30.9138 610.245 32.1406C610.245 34.2674 610.468 34.3254 615.036 33.3896L619.828 32.4082L617.315 29.666ZM577.379 31.7109C579.96 31.6905 579.154 32.2671 575.445 33.0967C573.236 33.591 572.828 33.4977 573.933 32.75C574.765 32.1869 576.316 31.7194 577.379 31.7109ZM623.201 27.0596C622.465 26.6046 622.312 26.7843 622.784 27.5488C623.195 28.2136 622.982 29.4187 622.312 30.2266C621.33 31.4098 621.411 31.6953 622.729 31.6953C623.677 31.6952 624.366 30.8707 624.366 29.7373C624.366 28.6605 623.841 27.4554 623.201 27.0596ZM190.709 18.2715C191.687 14.7496 192.04 14.4558 194.958 14.7412C197.182 14.9587 198.6 15.8744 199.665 17.7803C201.071 20.2968 201.026 20.7252 199.085 23.3271C196.632 26.6151 194.172 27.4097 193.319 25.1885C192.99 24.3291 192.024 23.626 191.175 23.626C189.347 23.6259 189.317 23.2832 190.709 18.2715ZM195.141 16.5654C192.247 16.5654 191.344 20.2948 193.629 22.8096C195.609 24.9893 195.38 25.0247 197.195 22.2549C199.162 19.2529 198.192 16.5656 195.141 16.5654ZM566.872 3.39258C566.872 2.80543 567.326 2.60547 567.881 2.94824C568.435 3.29108 568.89 3.77199 568.89 4.0166C568.889 4.26111 568.435 4.46089 567.881 4.46094C567.326 4.46094 566.872 3.98006 566.872 3.39258Z" fill="#5D6363"/>
</svg>
