<svg width="603" height="638" viewBox="0 0 603 638" fill="none" xmlns="http://www.w3.org/2000/svg">
<path d="M26.6094 631.779C29.3907 631.78 30.2221 634.115 29.0225 638H27.0244C27.5464 636.63 27.7959 635.371 27.5996 634.859C26.45 631.864 24.2487 634.479 23.9893 638H22.1035C22.3772 634.33 24.0056 631.779 26.6094 631.779ZM336.713 0C337.367 0 338.35 1.72829 338.896 3.84082C339.441 5.95339 340.108 8.44048 340.379 9.36719C340.649 10.2937 341.141 17.2135 341.472 24.7441C342.048 37.8881 342.173 38.5681 344.587 41.7324C345.97 43.5454 349.482 49.8446 352.394 55.7305C355.305 61.6161 358.696 67.7698 359.93 69.4062C361.992 72.1419 362.289 72.264 363.628 70.9248C364.429 70.1239 365.324 68.3791 365.617 67.0469C367.364 59.0973 368.9 57.823 370.497 62.9961C371.081 64.8864 373.017 69.7514 374.801 73.8076L378.044 81.1836L382.831 80.6895C387.366 80.2214 387.781 80.3585 390.723 83.2998C393.401 85.9785 393.914 87.2104 394.456 92.2754C394.802 95.5039 394.848 99.7541 394.559 101.721L394.033 105.297L395.835 103.155C398.406 100.101 400.121 93.2413 401.176 81.7969C402.164 71.0739 403.095 66.972 405.298 63.6094C407.317 60.5274 409.669 60.7414 408.998 63.9463C408.712 65.3138 407.68 74.3633 406.704 84.0566C405.729 93.7496 404.665 103.936 404.339 106.693L403.747 111.706L407.238 112.568C410.503 113.375 410.73 113.648 410.73 116.758C410.73 119.956 410.797 120.026 412.45 118.565C415.574 115.806 421.679 105.486 428.144 92.0391C435.511 76.7145 440.422 69.5964 446.132 65.9756C454.717 60.5312 462.151 62.0417 462.457 69.292C462.537 71.1987 463.236 74.5387 464.009 76.7139C465.86 81.9257 465.78 84.3107 463.67 86.8936C461.308 89.7841 459.515 88.2151 460.854 84.4297C461.644 82.1973 461.089 82.5525 457.202 86.7676C452.053 92.352 443.862 102.945 439.401 109.788C432.854 119.833 422.933 141.663 422.933 146.023C422.933 150.488 429.976 143.217 435.737 132.804C439.894 125.292 443.176 121.407 447.051 119.416C449.977 117.913 450.954 118.169 450.932 120.436C450.896 123.874 447.751 129.433 442.458 135.402C437.439 141.063 436.039 143.861 436.647 147.019C437.198 149.875 445.023 141.642 449.993 132.979C455.962 122.574 458.584 119.169 462.056 117.316C466.016 115.203 467.221 115.316 467.221 117.801C467.22 119.806 460.893 129.857 458.743 131.268C456.98 132.424 459.808 132.06 463.022 130.717C467.901 128.678 472.05 124.377 478.595 114.573C483.135 107.773 487.808 102.401 496.101 94.4502C502.322 88.4849 511.404 79.5775 516.282 74.6562L525.153 65.709L532.566 65.7871C536.644 65.8302 541.806 66.4442 544.038 67.1504C547.84 68.3532 548.141 68.6852 548.797 72.4043C549.776 77.9572 548.198 87.0265 545.215 92.999C542.435 98.5634 531.734 110.344 524.907 115.355C522.505 117.119 520.715 118.846 520.929 119.193C521.144 119.541 524.624 122.204 528.663 125.112L536.007 130.399L538.445 128.133C539.786 126.886 542.018 125.146 543.405 124.266C546.479 122.315 552.919 121.018 553.651 122.202C554.362 123.352 550.838 126.981 546.111 129.967C541.845 132.662 541.265 133.768 544.116 133.768C545.149 133.768 547.25 135.023 548.785 136.559C551.3 139.073 551.958 139.294 555.414 138.775C559.79 138.119 560.716 138.924 559.44 142.278C558.642 144.379 558.766 144.613 560.679 144.613C563.72 144.613 564.863 142.776 564.233 138.896C563.775 136.074 564.056 135.215 566.034 133.382C567.323 132.188 568.639 130.057 568.959 128.647C570.748 120.772 570.51 121.102 576.054 118.849C578.979 117.66 581.772 116.287 582.262 115.798C582.751 115.309 583.2 111.689 583.258 107.755C583.326 103.16 583.807 100.067 584.604 99.1074C585.977 97.4539 590.264 97.1318 592.805 98.4912C594.586 99.4448 597.325 105.468 597.45 108.704C597.514 110.355 597.677 110.23 598.354 108.008C598.88 106.283 598.797 102.166 598.125 96.6982C597.014 87.6515 597.486 83.1523 599.547 83.1523C600.841 83.1524 600.999 83.6768 603 101.699V115.847C602.716 114.178 602.469 112.246 602.301 110.244C601.649 102.503 601.514 102.046 600.888 105.48C599.441 113.414 596.431 115.297 595.52 108.838C594.699 103.026 592.757 99.9157 589.73 99.5703C585.811 99.1232 584.722 101.268 584.722 109.433C584.722 117.262 584.5 117.558 576.38 120.631C572.609 122.058 572.036 122.634 571.514 125.522C570.805 129.439 569.094 133.014 567.156 134.622C566.241 135.382 565.74 137.29 565.74 140.024C565.74 144.806 564.604 146.427 561.267 146.407C557.351 146.384 556.177 145.131 557.45 142.336L558.547 139.929L554.833 140.557C551.543 141.112 550.814 140.89 548.432 138.607C546.953 137.19 544.275 135.619 542.482 135.116C540.69 134.613 539.071 133.746 538.885 133.189C538.699 132.632 540.701 130.957 543.332 129.467C545.963 127.977 548.878 125.908 549.81 124.87C551.5 122.986 551.498 122.984 548.587 123.819C545.644 124.663 539.977 128.416 538.015 130.82C536.498 132.678 534.246 131.708 526.675 125.933C516.887 118.466 516.995 118.873 523.534 114.081C538.639 103.011 546.517 91.0124 547.431 77.6826L547.921 70.5137L544.403 68.9863C542.126 67.9972 538.334 67.436 533.654 67.3965L526.424 67.3359L514.262 79.085C488.947 103.541 485.545 107.169 479.937 115.69C476.828 120.413 473.407 125.241 472.335 126.419C469.579 129.447 464.3 132.661 461.726 132.879C456.371 133.331 455.971 132.159 459.86 127.42C462.277 124.475 465.415 119.138 465.415 117.972C465.415 117.686 464.19 118.085 462.694 118.858C459.977 120.264 457.359 123.874 450.062 136.283C445.984 143.216 438.936 150.291 436.562 149.834C435.79 149.685 435.014 148.816 434.838 147.902C434.073 143.933 435.816 140.105 441.12 134.104C447.139 127.295 449.408 123.595 448.968 121.309C448.553 119.159 441.58 125.651 438.579 130.98C437.296 133.259 434.991 137.266 433.457 139.885C429.08 147.356 421.127 151.716 421.127 146.644C421.127 141.546 431.09 119.645 438.762 107.875C447.967 93.7533 460.037 79.9182 462.371 80.8135C463.051 81.0742 463.602 81.199 463.598 81.0908C463.592 80.9822 462.982 78.8963 462.242 76.4561C461.502 74.0158 460.896 70.7593 460.896 69.2197C460.895 66.9595 460.357 66.1827 458.096 65.1816C452.417 62.6678 443.981 67.752 437.8 77.4141C436.136 80.0148 431.513 88.7748 427.525 96.8818C420.371 111.427 412.545 122.921 409.795 122.921C408.809 122.921 408.541 121.883 408.706 118.707C408.916 114.662 408.809 114.462 406.032 113.722C404.441 113.297 402.924 112.601 402.66 112.174C402.396 111.747 402.983 103.924 403.964 94.79C404.945 85.6556 405.958 75.3343 406.214 71.8545L406.68 65.5273L405.244 68.6367C404.455 70.3467 403.444 75.4308 402.999 79.9346C402.553 84.4384 401.73 90.6512 401.168 93.7402C400.055 99.8581 396.268 106.652 393.972 106.652C392.734 106.652 392.584 105.58 392.924 99.1133C393.25 92.9001 392.994 90.8399 391.472 87.3975C389.395 82.7019 387.2 81.6618 381.341 82.5986C377.223 83.2571 376.766 82.7555 372.789 73.21C371.443 69.979 369.826 66.1154 369.194 64.624L368.046 61.9121L367.373 65.9795C366.136 73.4557 362.262 75.3158 358.432 70.2725C356.302 67.4689 348.821 53.1784 348.82 51.9131C348.82 51.5813 346.951 48.4976 344.666 45.0605L340.512 38.8105L339.758 24.1504C339.343 16.0872 338.618 8.47324 338.145 7.23047C336.659 3.32814 335.837 14.2408 336.478 29.3672C337.282 48.3787 340.161 65.2552 343.777 72.1562C344.85 74.2036 344.688 75.1394 342.282 80.793C338.711 89.1845 337.449 90.9781 334.354 92.0566C330.541 93.386 329.287 91.4601 332.163 88.6914C335.182 85.7858 334.942 84.2272 331.422 83.8877C328.708 83.6261 328.505 83.3836 328.763 80.7061C328.916 79.1121 328.583 76.9509 328.022 75.9033C327.257 74.473 327.271 73.6751 328.081 72.7002C328.795 71.8398 328.831 71.4025 328.187 71.4023C325.626 71.4023 322.375 73.9347 317.807 79.4873C311.334 87.3545 309.956 87.4163 309.956 79.8389C309.956 76.6916 309.609 74.116 309.184 74.1143C307.998 74.1143 307.258 84.7061 307.251 101.794C307.245 119.393 306.802 122.92 304.602 122.921C300.323 122.921 285.653 109.204 274.697 94.959C271.471 90.7645 267.54 85.8668 265.961 84.0762C264.258 82.1445 262.003 77.6835 260.417 73.1064C256.068 60.5546 252.934 55.6789 247.339 52.7568C244.844 51.4541 244.831 51.4621 245.385 53.9668C246.734 60.0755 248.786 66.8606 250.92 72.2686C255.809 84.662 257.534 92.1206 257.534 100.872V109.233L262.72 111.174C269.575 113.739 269.915 114.094 271.129 119.94C271.701 122.698 272.931 127.167 273.861 129.871C275.129 133.554 275.318 134.956 274.63 136.248L274.331 136.764C273.643 138.059 273.836 139.485 275.119 143.261C276.725 147.984 276.737 148.393 275.309 149.821C273.88 151.25 273.528 151.205 269.636 149.108C265.211 146.725 257.843 139.268 254.181 133.467C248.826 124.984 245.244 116.755 237.984 96.2578C228.012 68.1035 217.316 55.2344 201.91 52.8555C198.456 52.3221 198.251 52.437 195.937 56.2041C193.186 60.6827 190.65 67.7487 190.65 70.9375C190.651 72.1382 191.932 75.0182 193.497 77.3379C195.063 79.6579 199.915 88.7277 204.279 97.4932C213.24 115.491 216.907 121.422 224.932 130.893C232.302 139.592 234.938 144.641 234.938 150.061C234.938 156.214 233.119 157.333 230.193 152.98C227.509 148.987 222.207 143.486 221.614 144.079C220.15 145.544 224.376 152.212 231.883 160.281C236.546 165.294 240.361 170.053 240.361 170.856C240.361 172.916 236.319 176.472 234.399 176.103C233.517 175.933 231.46 173.509 229.829 170.717C226.277 164.639 220.184 158.83 219.746 161.104C219.591 161.91 220.133 163.863 220.951 165.444C222.961 169.332 221.735 170.284 216.911 168.582C210.92 166.468 210.306 166.717 212.468 170.381C215.388 175.33 220.477 178.841 220.478 175.906C220.478 173.095 222.899 172.448 226.514 174.292C230.719 176.437 238.023 184.817 237.31 186.677C236.689 188.293 233.05 188.409 231.321 186.867C230.245 185.907 230.233 185.973 231.242 187.308C233.931 190.863 230.145 193.302 220.508 194.22C214.727 194.77 214.656 194.81 213.913 197.939C212.831 202.496 210.525 205.091 207.371 205.305C204.727 205.483 200.319 203.879 177.093 194.286C162.683 188.335 154.497 185.207 154.497 185.651C154.498 186.724 164.387 191.874 172.951 195.261C183.655 199.494 191.172 205.173 190.452 208.482C190.051 210.327 190.032 210.327 184.323 208.276C178.337 206.126 171.141 205.568 168.389 207.041C162.914 209.971 162.77 216.486 168.094 220.422C169.563 221.508 170.767 223.004 170.767 223.746C170.767 225.895 177.62 232.744 181.539 234.512C183.509 235.4 185.349 236.723 185.63 237.453C186.038 238.516 184.873 248.699 184.064 251.144C183.959 251.464 186.883 254.598 190.563 258.108C196.831 264.086 197.536 265.273 197.806 270.294C197.853 271.129 199.715 272.356 202.408 273.324C207.377 275.111 210.535 278.353 210.535 281.666C210.535 283.179 210.023 283.804 208.781 283.804C206.408 283.804 194.954 279.618 190.826 277.242C187.592 275.38 187.536 275.377 189.068 277.147C191.074 279.464 191.137 283.674 189.178 284.426C188.368 284.737 181.758 283.014 174.49 280.597C161.544 276.291 161.166 276.092 155.853 270.723C152.87 267.709 149.456 264.436 148.265 263.451L146.1 261.66L147.278 263.919C147.927 265.162 152.154 269.886 156.674 274.416C163.586 281.345 169.815 286.107 180.36 292.522C183.078 294.176 180.741 295.64 174.479 296.208C170.218 296.594 169.16 296.967 169.876 297.829C170.51 298.593 170.512 299.72 169.882 301.377C169.374 302.713 168.958 305.105 168.958 306.693C168.958 309.846 166.431 312.183 164.022 311.259C163.179 310.935 162.632 311.223 162.632 311.989C162.632 313.514 155.197 317.262 144.126 321.316C139.639 322.96 134.032 325.178 131.665 326.245C129.298 327.312 127.032 327.983 126.631 327.734C126.229 327.486 121.67 327.707 116.5 328.225C106.57 329.22 100.607 331.411 97.1035 335.354L95.2959 337.387L113.332 336.88C128.325 336.458 131.812 336.601 133.994 337.729C135.438 338.476 136.364 338.675 136.053 338.171C135.741 337.667 135.921 336.987 136.45 336.659C137.651 335.919 150.655 338.743 151.369 339.899C152.678 342.017 155.548 340.468 159.016 335.774C162.782 330.676 164.515 329.941 168.507 331.749C169.813 332.341 169.399 332.425 167.015 332.054C163.857 331.562 163.558 331.754 160.032 336.526C158.006 339.269 155.52 341.776 154.509 342.097C153.289 342.484 152.903 343.095 153.36 343.913C153.74 344.591 161.335 348.842 170.237 353.359L186.424 361.574L188.763 359.548C190.049 358.434 189.59 359.117 187.741 361.066L184.381 364.609L180.726 362.556C178.715 361.426 176.364 360.671 175.5 360.878C174.102 361.213 174.128 361.333 175.737 361.982C178.593 363.134 180.708 365.287 180.708 367.041C180.708 369.15 173.851 370.29 169.756 368.862C166.183 367.617 165.397 367.609 167.15 368.837C168.254 369.609 168.169 369.7 166.698 369.323C165.704 369.069 163.325 368.583 161.412 368.243C158.997 367.815 158.306 367.389 159.152 366.853C159.956 366.344 159.231 366.076 157.027 366.066C154.603 366.056 149.116 363.716 137.092 357.566C119.522 348.58 113.358 346.587 105.218 347.262C102.654 347.474 98.9662 348.484 97.0225 349.505C93.7291 351.235 93.5083 351.6 93.7773 354.865C93.9361 356.793 94.9601 359.997 96.0537 361.985C97.8845 365.314 98.7576 365.859 107.063 368.863C112.025 370.658 120.135 373.63 125.085 375.468C130.169 377.355 137.931 379.385 142.923 380.132C153.42 381.701 155.942 382.564 159.242 385.712C163.381 389.66 162.613 390.736 156.188 389.99C152.324 389.542 150.831 389.641 151.249 390.318C151.885 391.347 152.962 391.56 165.758 393.172C174.246 394.241 179.13 396.274 178.691 398.556C178.189 401.163 173.855 401.781 167.656 400.129C164.481 399.283 160.527 398.607 158.868 398.627L155.853 398.663L158.435 400.062C159.855 400.831 164.532 401.797 168.829 402.207C177.531 403.038 181.399 404.213 182.187 406.266C182.937 408.223 177.907 419.782 176.956 418.284C176.426 417.448 176.193 417.63 176.134 418.927C175.963 422.646 175.342 424.218 172.81 427.347C170.74 429.903 168.477 431.175 161.73 433.575C152.634 436.811 150.672 437.814 155.209 436.906C159.115 436.125 164.439 437.233 164.439 438.827C164.439 439.537 162.445 440.974 160.009 442.022C154.548 444.372 151.56 447.43 151.56 450.669C151.56 453.225 153.81 455.548 156.251 455.511C157.026 455.499 159.186 455.135 161.05 454.702C162.914 454.269 164.439 454.205 164.439 454.561C164.439 455.518 170.917 462.913 171.364 462.466C171.575 462.255 170.946 459.974 169.967 457.397C168.467 453.45 168.391 452.634 169.483 452.215C171.503 451.44 174.619 453.98 178.425 459.506L181.912 464.57H187.967C192.632 464.57 194.544 464.981 196.297 466.359C198.449 468.052 198.792 468.073 202.685 466.747C207.244 465.194 210.443 466.057 210.645 468.896C211.149 475.979 210.577 478.4 207.011 484.303C204.529 488.41 203.304 491.493 203.304 493.63C203.304 498.743 199.731 508.952 193.388 521.964C186.757 535.565 187.89 534.85 179 531.045C159.137 522.543 134.751 502.696 119.781 482.848C113.903 475.054 112.756 472.36 114.954 471.519C115.575 471.281 112.22 471.31 107.498 471.584C96.4757 472.223 94.6216 473.338 95.1211 479.031C95.9688 488.691 101.913 495.826 121.035 510.136C127.736 515.15 135.87 521.757 139.112 524.817C144.809 530.196 149.053 536.294 147.901 537.447C147.594 537.755 145.689 537.346 143.67 536.538C141.651 535.73 139.879 535.069 139.731 535.069C139.401 535.072 134.945 544.829 134.219 547.141C133.809 548.444 133.14 548.692 131.215 548.25C126.967 547.275 101.706 534.387 93.8418 529.183C88.2961 525.513 85.5123 524.223 83.1387 524.223C81.3743 524.222 77.4264 523.038 74.3662 521.59C68.511 518.82 49.9534 507.294 45.9424 503.937C44.6477 502.853 40.3771 500.314 36.4521 498.294C20.496 490.083 14.201 489.821 6.95508 497.067C2.30627 501.716 1.63523 504.288 3.92773 508.677C6.14859 512.928 10.0055 515.738 22.5371 522.237C29.248 525.718 42.9637 532.852 53.0166 538.092C71.5188 547.736 88.5999 555.67 97.0137 558.53C99.5486 559.392 101.623 560.626 101.623 561.272C101.621 562.484 91.5747 565.721 81.8975 567.629L76.6328 568.667L80.0898 570.463C83.9665 572.477 86.709 575.289 86.709 577.248C86.7077 579.153 78.4391 582.634 65.459 586.191C59.1988 587.907 52.3688 590.192 50.2822 591.27C46.0506 593.454 43.386 593.495 31.5752 591.554C19.1171 589.507 11.106 588.956 10.4004 590.098C10.0574 590.652 10.0009 591.106 10.2744 591.106C10.5508 591.107 15.5559 592.086 21.3994 593.281C43.7029 597.844 59.9448 599.132 74.6787 597.505L84.5664 596.413L89.4795 599.559C97.4876 604.686 99.2538 606.383 100.219 609.878C101.584 614.821 100.032 615.609 96.2148 611.909C92.724 608.526 92.7488 608.524 91.4814 612.347C90.8236 614.331 90.1237 614.96 88.8721 614.693C86.3131 614.148 78.6163 614.263 78.0234 614.856C77.0024 615.878 78.7909 619.273 83.2607 624.801C87.9746 630.63 90.0526 634.159 89.2461 634.966C88.9886 635.223 86.2089 634.835 83.0684 634.103C77.5881 632.824 74.2433 633.06 76.8857 634.538C77.7378 635.015 82.9732 636.363 90.0488 638H81.8555C78.2818 637.043 75.7966 636.255 74.7314 635.711C68.9573 632.762 74.4996 630.077 82.3906 632C88.2386 633.425 88.3039 633.961 81.6475 625.901C76.8056 620.039 75.8613 618.126 75.8613 614.183C75.8615 610.778 78.1065 608.772 79.4619 610.965C79.877 611.635 82.1747 612.146 85.0195 612.2C89.3273 612.282 89.9015 612.075 90.1504 610.351C90.3045 609.282 91.0309 607.91 91.7646 607.301C92.8555 606.395 93.6047 606.672 95.8711 608.817C98.2008 611.022 98.5909 611.159 98.3193 609.676C98.007 607.97 93.9639 604.603 87.1318 600.359C83.9761 598.399 83.5066 598.358 75.5586 599.341C61.6693 601.059 45.833 599.902 22.5352 595.469C1.69295 591.502 -2.68211 589.035 9.20312 587.948C13.8669 587.522 19.4042 587.889 28.4102 589.222C44.3412 591.58 44.7506 591.572 50.9248 588.842C53.738 587.598 57.5506 586.222 59.3975 585.785C73.1954 582.518 84.8975 578.314 84.8994 576.623C84.8994 575.425 81.6489 573.12 77.376 571.288C71.7207 568.864 71.8468 566.644 77.6689 566.128C82.6811 565.683 97.5478 562.103 97.5527 561.34C97.5527 561.034 94.4004 559.621 90.5479 558.202C84.0563 555.811 30.7575 529.205 15.3037 520.642C4.66084 514.744 0.842956 510.295 0.842773 503.792C0.842773 500.961 1.57268 499.716 5.58789 495.701C9.60332 491.686 11.0242 490.853 14.8291 490.282C23.4691 488.987 32.2207 492.682 52.9912 506.396C71.4725 518.597 78.7083 522.413 83.3711 522.413C86.2556 522.413 88.668 523.495 95.2109 527.725C103.572 533.13 120.248 541.841 128.336 545.029C131.534 546.29 132.803 546.472 132.804 545.673C132.805 545.058 134.007 542.014 135.477 538.907C138.352 532.829 139.46 532.264 143.932 534.596L146.474 535.922L143.779 532.557C139.332 527.001 133.888 522.203 121.053 512.526C105.541 500.832 99.135 494.564 95.7314 487.753C92.2595 480.805 92.1233 475.755 95.3164 472.31C97.459 469.998 98.1402 469.831 106.389 469.586C115.66 469.311 120.601 470.474 121.638 473.174C122.631 475.762 120.58 476.64 117.795 474.819C114.566 472.708 115.049 473.56 122.659 483.388C136.85 501.714 161.281 521.554 178.743 528.932C183.179 530.806 183.629 530.84 185.932 529.48C187.569 528.514 189.836 525.076 192.729 519.177L197.069 510.324L194.763 505.184C190.814 496.386 192.645 492.296 196.923 500.358C198.956 504.191 199.186 504.359 199.867 502.518C200.273 501.419 201.074 497.616 201.647 494.067C202.348 489.729 203.53 486.378 205.255 483.837C206.666 481.759 207.82 479.787 207.82 479.455C207.82 479.123 205.443 479.128 202.538 479.465C196.654 480.148 189.744 478.748 189.744 476.872C189.744 476.104 193.086 474.955 199.271 473.598C204.51 472.448 208.972 471.226 209.185 470.882C209.396 470.538 209.012 469.492 208.329 468.559C207.114 466.897 206.984 466.898 202.347 468.565C198.005 470.127 197.517 470.148 196.539 468.811C194.783 466.408 190.66 465.34 185.591 465.974L180.881 466.562L177.762 461.724C174.953 457.366 170.764 452.697 170.764 453.923C170.764 454.188 171.374 455.865 172.119 457.649C173.896 461.902 173.907 466.375 172.141 466.375C170.78 466.375 163.534 457.892 163.533 456.299C163.533 455.817 163.142 455.664 162.663 455.96C162.185 456.256 159.936 456.535 157.665 456.581C152.555 456.684 149.976 454.657 149.976 450.54C149.976 446.724 152.612 443.519 157.888 440.921C162.141 438.826 162.154 438.806 159.44 438.54C157.894 438.388 153.168 439.637 148.576 441.41C139.605 444.875 131.447 446.029 131.447 443.834C131.447 442.528 133.079 441.866 157.612 433.206C170.147 428.782 171.942 427.475 173.514 421.636C174.049 419.647 174.693 417.308 174.945 416.438C175.198 415.569 175.926 414.856 176.562 414.856C177.199 414.856 178.462 413.212 179.368 411.202C181.754 405.91 180.526 405.066 168.417 403.668C158.339 402.504 154.257 400.991 154.707 398.588C155.08 396.597 160.201 396.411 166.644 398.155C172.41 399.716 176.648 399.708 176.627 398.136C176.607 396.701 170.587 395.107 162.916 394.504C153.927 393.797 148.168 391.833 148.168 389.475C148.168 388.06 148.822 387.742 151.725 387.742C153.68 387.742 156.304 388.131 157.556 388.606C159.388 389.303 159.734 389.219 159.333 388.173C158.271 385.407 152.934 383.292 143.476 381.888C133.672 380.432 126.387 378.293 115.178 373.58C111.698 372.117 106.263 370.153 103.1 369.215C96.4223 367.235 93.9748 364.338 92.1045 356.203C91.0237 351.502 91.0607 351.267 93.1387 349.647C94.324 348.723 97.5069 347.307 100.212 346.5C109.929 343.601 119.928 346.211 139.171 356.669C150.151 362.636 153.361 363.884 160.821 365.077C164.052 365.594 168.348 366.494 170.366 367.078C173.977 368.122 178.898 367.613 178.898 366.195C178.898 365.797 177.576 364.891 175.961 364.18C172.269 362.555 171.295 358.844 174.542 358.774C176.947 358.723 166.334 352.951 157.989 349.771C153.711 348.142 152.644 347.27 151.312 344.316C149.731 340.81 148.486 340.072 141.539 338.528C139.871 338.158 139.181 338.286 139.56 338.898C140.936 341.126 138.848 341.509 134.557 339.817C130.484 338.212 128.659 338.099 115.343 338.624C94.8732 339.431 90.9532 338.439 95.9746 333.722C100.507 329.464 107.751 327.119 118.076 326.566C123.46 326.279 129.249 325.445 130.995 324.707C132.735 323.971 138.633 321.542 144.101 319.308C149.569 317.073 155.547 314.624 157.386 313.865C160.384 312.628 160.675 312.219 160.21 309.894C159.637 307.03 160.484 306.646 163.121 308.574C165.973 310.659 167.828 308.903 168.189 303.775C168.362 301.322 168.3 299.33 168.052 299.348C167.801 299.365 166.087 299.332 164.239 299.273C156.737 299.035 164.738 294.67 172.746 294.633C174.39 294.625 176.334 294.241 177.065 293.778C178.18 293.073 178.107 292.832 176.613 292.293C168.585 289.394 139.921 261.541 141.291 257.97C142.091 255.887 144.627 257.618 153.981 266.63L162.178 274.526L174.634 278.797C181.485 281.146 187.726 282.824 188.504 282.526C189.74 282.052 189.68 281.582 188.022 278.773C184.731 273.195 186 272.428 192.567 276.025C197.752 278.866 207.707 282.408 208.441 281.674C208.759 281.356 208.585 280.147 208.057 278.987C207.408 277.563 205.304 276.225 201.583 274.868C196.077 272.86 196.071 272.854 196.071 269.205C196.071 265.815 195.548 265.054 188.788 258.604C182.178 252.298 181.583 251.45 182.349 249.426C182.813 248.199 183.481 245.085 183.834 242.505L184.476 237.814L180.023 235.559C175.769 233.403 169.86 227.79 169.859 225.904C169.859 225.413 168.295 223.292 166.383 221.19C161.971 216.341 161.366 213.933 163.51 209.731C166.526 203.82 172.977 202.754 183.681 206.401L189.818 208.493L186.844 205.393C183.636 202.049 178.124 199.044 166.649 194.384C158.585 191.108 150.88 185.996 150.879 183.919C150.879 181.444 148.687 180.669 187.937 197.009C199.53 201.835 206.247 204.173 207.568 203.842C209.778 203.287 211.454 200.727 212.301 196.614C212.916 193.627 214.86 192.75 221.197 192.604C223.334 192.554 226.29 191.89 227.765 191.127C230.04 189.95 230.303 189.471 229.496 187.964C228.973 186.987 227.543 185.53 226.317 184.728C223.39 182.809 223.438 180.764 226.41 180.764C227.914 180.764 229.868 181.956 231.963 184.153C234.164 186.461 235.331 187.154 235.622 186.324C236.136 184.857 228.136 176.429 225.095 175.234C222.564 174.241 221.617 174.806 223.006 176.479C223.545 177.13 223.671 178.172 223.285 178.796C222.455 180.139 218.385 178.875 215.599 176.408C213.023 174.128 208.725 168.007 208.725 166.619C208.725 165.033 212.063 165.062 216.672 166.688L220.327 167.979L219.045 164.91C217.532 161.29 217.379 158.168 218.712 158.168C222.196 158.168 226.996 162.567 230.878 169.319C232.261 171.724 233.962 173.91 234.659 174.178C235.805 174.618 238.451 172.196 238.522 170.643C238.54 170.295 235.15 166.431 230.993 162.056C221.034 151.573 217.067 143.707 220.98 142.205C222.583 141.591 226.563 145.003 230.533 150.396L233.128 153.92V150.03C233.128 145.998 228.513 136.309 225.338 133.677C220.203 129.42 213.019 118.239 203.396 99.5273C197.586 88.2303 191.934 77.7254 190.836 76.1836C189.738 74.6418 188.84 72.8166 188.84 72.1279C188.84 68.7692 191.94 59.5827 194.527 55.2725L197.427 50.4424L201.494 50.9805C207.328 51.7526 216.153 56.368 221.205 61.2891C228.107 68.012 234.385 80.4056 241.663 101.679C246.417 115.574 254.757 132.304 259.965 138.395C264.303 143.467 271.49 149.129 273.593 149.13C275.097 149.13 274.984 146.524 273.343 143.378C271.856 140.528 271.544 135.956 272.783 135.19C273.218 134.92 272.622 131.338 271.459 127.229C270.296 123.121 269.127 118.673 268.861 117.346C268.467 115.375 267.511 114.652 263.633 113.397C256.524 111.098 256.26 110.649 256.054 100.548C255.864 91.2477 255.401 89.3955 248.596 70.6494C246.55 65.0158 244.877 59.6367 244.877 58.6963C244.877 57.2873 244.411 57.0796 242.226 57.5166C240.142 57.9333 239.064 57.5379 237.194 55.668C234.741 53.2146 234.393 49.7277 236.531 49.0234C237.161 48.8162 238.849 49.9031 240.283 51.4385C243.441 54.8185 243.849 54.8908 243.291 51.9707C242.646 48.5955 245.971 49.0056 250.705 52.8848C255.117 56.5004 259.641 64.3749 262.519 73.4512C263.685 77.1312 265.767 81.1432 267.689 83.416C269.459 85.5084 273.626 90.6769 276.948 94.9023C288.706 109.858 303.074 122.879 304.611 119.973C304.937 119.358 305.455 109.093 305.765 97.1621C306.364 74.0346 306.749 70.4993 308.671 70.499C310.6 70.499 311.761 73.5991 311.761 78.749V83.5029L317.863 77.001C323.33 71.176 324.318 70.499 327.354 70.499C330.661 70.4991 332.063 72.2871 329.835 73.6641C329.235 74.035 329.256 74.8348 329.896 76.0303C330.427 77.0235 330.591 79.0725 330.259 80.584C329.723 83.0225 329.855 83.2695 331.427 82.7705C336.051 81.303 337.528 84.7716 334.137 89.1318L332.108 91.7393L334.362 90.2988C336.567 88.8901 337.729 86.9563 341.412 78.5537C342.612 75.8175 342.949 73.9714 342.405 73.1299C341.157 71.199 338.957 63.6164 337.447 56.0381C334.293 40.2105 333.767 0.00351134 336.713 0ZM104.913 619.126C105.312 619.126 107.43 620.918 109.619 623.107C113.127 626.615 114.447 627.273 120.715 628.639C128.083 630.244 133.151 632.648 134.037 634.958C134.373 635.834 133.451 636.822 131.197 638H106.646C106.477 637.968 106.308 637.937 106.138 637.904C101.167 636.946 96.1839 635.981 95.0654 635.761C90.5829 634.877 93.819 625.994 100.151 621.8C102.371 620.329 104.514 619.126 104.913 619.126ZM371.241 636.299C371.481 636.299 370.993 637.055 370.151 638H369.252C370.121 637.055 371.002 636.299 371.241 636.299ZM427.225 636.184C428.688 635.036 428.707 635.079 427.48 636.751C427.157 637.192 426.837 637.63 426.569 638H425.728C425.94 637.461 426.532 636.727 427.225 636.184ZM441.743 636.751C443.383 634.763 444.309 633.997 443.802 635.05C443.563 635.546 442.731 636.63 441.565 638H440.697C441.087 637.537 441.442 637.116 441.743 636.751ZM462.689 637.661C463.075 637.423 463.256 637.57 463.19 638H462.292C462.412 637.868 462.546 637.75 462.689 637.661ZM483.82 634.343C485.593 633.422 485.572 633.532 483.557 635.724C482.181 637.219 481.433 637.954 481.158 638H481.113C480.945 637.971 481.052 637.536 481.363 636.726C481.655 635.966 482.76 634.894 483.82 634.343ZM108.786 625.08C104.843 621.301 104.741 621.264 102.005 622.589C98.7927 624.145 94.8399 629.511 94.8398 632.316C94.8398 634.012 95.5145 634.313 100.489 634.837C103.596 635.165 108.172 636.017 110.657 636.732C116.336 638.366 128.311 638.149 130.45 636.374C131.875 635.192 131.8 634.977 129.459 633.541C128.066 632.686 123.746 631.297 119.858 630.452C113.774 629.131 112.233 628.382 108.786 625.08ZM531.463 635.771C531.504 634.719 531.72 634.505 532.009 635.226C532.27 635.878 532.238 636.658 531.938 636.958C531.637 637.258 531.423 636.724 531.463 635.771ZM376.137 632.165C376.995 631.267 377.945 630.779 378.248 631.082C378.551 631.385 377.849 632.12 376.688 632.716C374.669 633.751 374.645 633.727 376.137 632.165ZM517.834 629.068C518.316 628.323 518.71 628.119 518.71 628.616C518.71 629.113 518.316 630.13 517.834 630.876C517.352 631.621 516.958 631.824 516.958 631.327C516.958 630.83 517.352 629.814 517.834 629.068ZM449.241 625.844C449.787 625.506 449.535 626.297 448.681 627.601C446.872 630.362 445.935 630.781 447.308 628.215C447.825 627.248 448.695 626.181 449.241 625.844ZM382.033 627.146C383.467 626.021 383.498 626.053 382.374 627.486C381.193 628.992 380.451 629.47 380.451 628.727C380.452 628.539 381.164 627.827 382.033 627.146ZM412.537 627.617C415.795 625.106 418.025 624.398 415.249 626.756C413.758 628.022 412.131 629.048 411.634 629.035C411.137 629.023 411.543 628.383 412.537 627.617ZM436.173 623.646C436.827 623.646 434.722 627.129 433.679 627.773C433.133 628.111 433.385 627.32 434.239 626.016C435.094 624.712 435.964 623.646 436.173 623.646ZM412.284 624.958C413.636 623.543 414.981 622.625 415.273 622.916C415.566 623.208 414.46 624.367 412.815 625.49L409.826 627.531L412.284 624.958ZM494.108 619.011C495.571 617.863 495.591 617.906 494.364 619.578C493.635 620.572 492.923 621.554 492.782 621.762C492.642 621.969 492.526 621.715 492.526 621.195C492.526 620.676 493.238 619.693 494.108 619.011ZM402.542 620.432C400.857 619.082 400.868 619.066 402.821 620.012C403.939 620.553 404.854 621.186 404.854 621.417C404.854 622.109 404.386 621.909 402.542 620.432ZM452.849 619.393C453.507 618.297 454.24 617.595 454.478 617.833C454.715 618.071 454.177 618.967 453.281 619.825C451.725 621.316 451.706 621.296 452.849 619.393ZM381.857 615.909C383.182 614.255 383.201 614.284 382.187 616.414C380.869 619.18 380.451 619.694 380.451 618.546C380.451 618.061 381.084 616.874 381.857 615.909ZM561.436 615.057C561.068 614.65 561.294 614.622 561.939 614.994C562.844 615.516 562.87 615.964 562.055 616.946C561.473 617.648 560.793 618.222 560.544 618.222C560.296 618.221 560.546 617.676 561.1 617.009C561.653 616.342 561.804 615.463 561.436 615.057ZM403.94 615.065C404.453 614.748 404.604 615.113 404.296 615.916C403.695 617.482 403.047 617.768 403.047 616.468C403.047 616 403.449 615.369 403.94 615.065ZM563.892 615.439C562.496 612.831 563.467 610.387 565.296 611.904C566.035 612.518 566.628 613.479 566.612 614.039C566.595 614.6 565.987 614.269 565.257 613.304C563.711 611.26 563.579 611.76 564.811 615C565.87 617.787 565.295 618.062 563.892 615.439ZM433.55 607.376C434.601 607.376 431.275 610.478 426.166 614.264C422.491 616.986 421.77 617.343 423.987 615.341C429.584 610.288 433.079 607.376 433.55 607.376ZM429.178 616.11C430.499 614.465 435.585 610.592 435.585 611.23C435.585 611.43 433.857 612.967 431.744 614.646C429.632 616.324 428.477 616.983 429.178 616.11ZM461.877 611.895C463.104 610.394 463.411 610.242 462.791 611.442C461.268 614.39 460.016 616.025 460.022 615.059C460.026 614.562 460.86 613.137 461.877 611.895ZM378.644 613.441C379.638 613.182 380.451 613.29 380.451 613.683C380.451 614.075 379.638 614.609 378.644 614.869C377.65 615.129 376.836 615.02 376.836 614.628C376.836 614.235 377.649 613.701 378.644 613.441ZM370.456 611.895C370.982 611.895 371.413 612.302 371.413 612.799C371.413 613.296 371.233 613.702 371.015 613.702C370.796 613.702 370.365 613.296 370.058 612.799C369.75 612.302 369.93 611.895 370.456 611.895ZM394.519 612.534C394.858 611.643 395.363 611.141 395.642 611.419C395.92 611.698 395.642 612.427 395.024 613.04C394.132 613.926 394.028 613.822 394.519 612.534ZM405.646 611.217C404.522 609.784 404.554 609.752 405.987 610.876C406.857 611.558 407.568 612.27 407.568 612.458C407.568 613.201 406.826 612.722 405.646 611.217ZM459.549 610.087C458.56 611.33 457.645 612.516 457.516 612.724C457.386 612.931 457.28 612.688 457.28 612.186C457.28 611.683 458.195 610.497 459.313 609.55L461.347 607.828L459.549 610.087ZM128.332 592.889C130.507 591.726 148.547 591.67 152.423 592.814C157.488 594.31 160.94 596.876 162.824 600.547L164.653 604.111L162.638 605.744C161.293 606.833 159.076 607.385 155.977 607.403C152.381 607.427 151.69 607.639 152.914 608.353C155.481 609.848 154.764 611.763 151.402 612.394C147.794 613.07 144.749 612.507 135.645 609.479C131.988 608.262 128.788 607.475 128.533 607.729C128.28 607.984 129.157 608.464 130.482 608.797C132.054 609.191 132.797 609.916 132.614 610.875C132.255 612.758 122.997 613.475 121.273 611.753C118.798 609.278 120.521 607.435 125.421 607.318C127.764 607.265 127.775 607.238 125.799 606.443C123.381 605.471 123.345 605.029 125.186 598.699C126.003 595.888 127.34 593.42 128.332 592.889ZM560.827 611.256C560.337 609.968 560.441 609.864 561.333 610.75C561.951 611.363 562.228 612.093 561.95 612.371C561.672 612.65 561.167 612.147 560.827 611.256ZM448.016 609.972C449.449 608.848 449.481 608.88 448.356 610.313C447.176 611.819 446.434 612.297 446.434 611.554C446.434 611.366 447.146 610.654 448.016 609.972ZM128.284 610.087C126.503 608.936 122.862 608.936 122.861 610.087C122.861 610.584 124.387 610.985 126.251 610.978C128.772 610.966 129.293 610.738 128.284 610.087ZM140.486 593.836C129.09 593.848 128.547 594.072 126.936 599.499C126.189 602.012 125.679 604.154 125.802 604.26C126.088 604.504 141.549 609.385 144.554 610.18C147.912 611.067 150.88 611.092 150.88 610.232C150.88 609.815 149.863 609.011 148.62 608.444C145.938 607.222 145.282 603.125 147.942 604.216C150.534 605.278 156.933 605.833 159.413 605.211C162.672 604.393 162.353 601.786 158.588 598.48C154.484 594.877 150.39 593.827 140.486 593.836ZM374.751 608.343C375.84 608.307 376.983 608.686 377.29 609.184C377.951 610.253 377.067 610.253 374.579 609.184C372.836 608.435 372.842 608.404 374.751 608.343ZM406.439 608.585C407.061 608.334 408.077 608.334 408.698 608.585C409.32 608.836 408.812 609.04 407.569 609.04C406.327 609.04 405.818 608.835 406.439 608.585ZM451.631 606.356C453.064 605.232 453.096 605.264 451.972 606.697C450.791 608.203 450.049 608.682 450.049 607.938C450.049 607.751 450.761 607.039 451.631 606.356ZM439.655 607.681C441.965 605.493 447.638 601.793 446.269 603.367C445.432 604.329 443.398 605.886 441.749 606.826C440.1 607.767 439.158 608.151 439.655 607.681ZM404.688 606.758C405.34 606.497 406.119 606.529 406.42 606.829C406.72 607.13 406.187 607.343 405.234 607.304C404.182 607.262 403.967 607.046 404.688 606.758ZM462.305 604.664C462.523 604.665 462.703 605.072 462.703 605.568C462.703 606.065 462.271 606.472 461.745 606.472C461.219 606.471 461.04 606.065 461.347 605.568C461.654 605.071 462.085 604.664 462.305 604.664ZM595.366 602.856C595.863 602.857 597.23 603.656 598.403 604.634C599.577 605.611 600.131 606.412 599.634 606.412C599.137 606.412 597.769 605.611 596.596 604.634C595.422 603.656 594.869 602.856 595.366 602.856ZM576.401 601.952C576.944 601.952 578.53 602.956 579.925 604.184C583.119 606.994 582.478 606.97 578.485 604.135C576.797 602.935 575.859 601.953 576.401 601.952ZM432.472 601.608C433.276 601.3 433.639 601.452 433.322 601.964C432.792 602.823 431.069 603.234 431.068 602.502C431.068 602.307 431.7 601.904 432.472 601.608ZM382.66 600.174C383.187 600.192 382.828 600.8 381.863 601.53C380.898 602.26 379.678 602.844 379.151 602.828C378.625 602.81 378.984 602.202 379.949 601.473C380.914 600.743 382.134 600.158 382.66 600.174ZM454.175 601.688C454.514 600.797 455.02 600.295 455.298 600.573C455.576 600.852 455.298 601.581 454.681 602.194C453.788 603.08 453.684 602.976 454.175 601.688ZM450.049 600.146C451.043 599.614 451.856 599.382 451.856 599.63C451.856 599.878 451.043 600.518 450.049 601.05C449.055 601.581 448.241 601.813 448.241 601.564C448.242 601.316 449.055 600.677 450.049 600.146ZM385.877 599.19C385.877 598.664 386.283 598.485 386.78 598.792C387.277 599.099 387.684 599.53 387.685 599.749C387.685 599.968 387.277 600.147 386.78 600.147C386.284 600.147 385.877 599.717 385.877 599.19ZM320.104 595.629C320.633 595.629 320.545 596.203 319.897 596.984C319.279 597.73 318.631 598.34 318.459 598.34C318.287 598.339 318.38 597.73 318.666 596.984C318.952 596.239 319.6 595.629 320.104 595.629ZM415.058 589.622C416.937 591.808 417.56 592.05 419.141 591.204C421.855 589.751 422.647 589.982 420.619 591.635C419.052 592.912 419.039 593.01 420.493 592.55C421.389 592.266 421.896 592.401 421.618 592.851C421.341 593.3 421.554 593.814 422.093 593.993C422.661 594.183 422.38 594.936 421.42 595.793C420.084 596.985 419.568 597.046 418.71 596.108C417.925 595.25 417.912 594.684 418.662 593.933C419.414 593.181 419.295 592.917 418.203 592.917C417.392 592.917 415.853 591.595 414.784 589.979L412.841 587.042L415.058 589.622ZM369.091 594.83C369.88 593.553 377.814 590.076 378.96 590.504C379.533 590.719 378.781 591.352 377.29 591.912C375.799 592.472 373.499 593.537 372.18 594.279C369.464 595.807 368.366 596.003 369.091 594.83ZM600.567 585.687C600.93 585.687 601.936 586.635 603 587.864V589.319C602.991 589.308 602.981 589.297 602.972 589.286C601.328 587.307 600.246 585.687 600.567 585.687ZM386.382 587.494C386.601 587.494 386.78 587.901 386.78 588.398C386.78 588.895 386.35 589.302 385.823 589.302C385.297 589.302 385.118 588.896 385.425 588.398C385.732 587.902 386.163 587.495 386.382 587.494ZM157.207 585.687C157.207 583.688 159.041 583.346 161.811 584.828C164.179 586.096 163.158 587.494 159.865 587.494C157.81 587.494 157.207 587.085 157.207 585.687ZM431.801 582.977C432.049 582.977 431.516 583.79 430.616 584.784C429.717 585.778 428.778 586.591 428.529 586.592C428.281 586.592 428.813 585.778 429.713 584.784C430.613 583.79 431.552 582.977 431.801 582.977ZM429.317 579.974C431.59 578.028 432.56 578.015 430.953 579.95C430.271 580.772 429.845 581.678 430.007 581.962C430.494 582.82 428.561 583.133 428.034 582.281C427.766 581.847 428.343 580.808 429.317 579.974ZM50.792 570.068C52.5557 567.377 55.625 566.656 59.6895 567.979C62.3371 568.842 62.8001 569.467 63.4277 573.03C63.8217 575.267 63.9135 578.061 63.6318 579.239C63.1702 581.17 62.772 581.326 59.6035 580.819C57.5909 580.498 55.848 580.644 55.5273 581.163C54.8717 582.224 53.3269 582.37 53.1279 581.391C53.0522 581.018 52.9449 580.263 52.8887 579.713C52.8326 579.163 52.0087 577.269 51.0586 575.505C49.4509 572.52 49.433 572.142 50.792 570.068ZM361.443 578.909C363.162 577.418 363.973 577.012 363.246 578.006C361.616 580.236 359.486 582.005 358.386 582.044C357.93 582.062 357.728 581.971 357.938 581.847C358.147 581.722 359.725 580.401 361.443 578.909ZM598.225 579.361C598.751 579.361 599.181 579.768 599.182 580.265C599.182 580.762 599.002 581.169 598.783 581.169C598.564 581.169 598.133 580.762 597.826 580.265C597.519 579.768 597.698 579.361 598.225 579.361ZM56.2354 569.429C52.4839 569.411 50.5597 572.347 52.7422 574.759C53.5274 575.627 54.1699 576.787 54.1699 577.338C54.1706 577.888 55.4922 578.503 57.1074 578.703C58.723 578.904 60.5786 579.133 61.2305 579.213C62.1384 579.323 62.267 578.354 61.7822 575.064C61.0647 570.196 60.3292 569.448 56.2354 569.429ZM424.279 574.647C426.199 573.665 425.92 573.968 421.585 577.567C418.975 579.734 418.943 579.738 420.671 577.695C421.656 576.531 423.28 575.159 424.279 574.647ZM392.316 564.608C392.634 564.155 393.133 564.211 393.457 564.734C393.773 565.247 392.847 566.51 391.397 567.542C387.856 570.064 385.844 569.952 389.145 567.417C390.579 566.316 392.006 565.051 392.316 564.608ZM154.139 554.584C154.889 552.629 160.199 551.144 163.934 551.845C167.761 552.563 174.379 557.115 174.38 559.03C174.38 560.756 172.212 560.648 163.082 558.469C153.668 556.221 153.533 556.162 154.139 554.584ZM171.153 557.566C169.896 555.532 162.627 553.008 159.81 553.626C156.222 554.414 156.793 554.824 164.149 556.739C171.961 558.773 171.894 558.765 171.153 557.566ZM345.089 556.088C343.965 554.654 343.997 554.622 345.431 555.746C346.936 556.927 347.415 557.669 346.671 557.669C346.483 557.669 345.771 556.958 345.089 556.088ZM408.872 552.748C410.825 551.184 411.993 551.023 413.672 552.089C414.49 552.608 414.115 553.309 412.316 554.618C407.989 557.769 407.002 558.009 410.28 555.113C413.431 552.33 412.845 551.387 409.091 553.2C407.184 554.121 407.177 554.106 408.872 552.748ZM346.571 545.514C348.595 543.043 350.349 541.697 351.145 542.002C351.854 542.274 352.435 542.701 352.436 542.949C352.436 543.198 351.821 543.166 351.071 542.878C350.178 542.535 349.008 543.431 347.682 545.473C346.568 547.188 345.123 548.8 344.472 549.056C343.821 549.31 344.766 547.717 346.571 545.514ZM311.436 544.563C313.525 540.995 313.57 540.942 313.57 542.054C313.57 542.578 312.733 543.968 311.709 545.142L309.848 547.275L311.436 544.563ZM297.11 541.824C293.942 536.602 294.604 536.619 298.205 541.854C299.744 544.09 300.679 545.907 300.282 545.892C299.886 545.874 298.458 544.045 297.11 541.824ZM212.413 528.889L214.29 532.567L211.733 535.266C209.355 537.776 208.838 537.929 204.289 537.473C201.601 537.203 198.771 536.352 198 535.581C196.735 534.316 196.311 534.46 193.624 537.064C191.988 538.65 190.649 539.545 190.648 539.055C190.648 537.926 197.506 531.385 200.881 529.296C202.283 528.428 205.029 527.153 206.983 526.464L210.537 525.21L212.413 528.889ZM262.235 536.923C262.842 535.951 263.465 535.283 263.62 535.438C264.156 535.973 262.759 538.689 261.947 538.689C261.499 538.689 261.629 537.894 262.235 536.923ZM402.809 536.769C403.422 536.151 404.151 535.874 404.43 536.152C404.707 536.431 404.206 536.936 403.314 537.275C402.027 537.766 401.923 537.661 402.809 536.769ZM210.696 530.099C209.399 527.252 208.173 527.269 202.923 530.203C198.421 532.719 198.018 534.194 201.562 535.185C205.633 536.322 208.437 535.987 210.085 534.166C211.439 532.67 211.546 531.963 210.696 530.099ZM406.74 534.778C408.276 533.576 413.891 530.5 413.896 530.858C413.896 531.443 408.032 535.073 407.086 535.073C406.689 535.073 406.533 534.941 406.74 534.778ZM187.148 531.68C188.273 530.246 188.241 530.215 186.808 531.339C185.938 532.021 185.226 532.733 185.226 532.921C185.226 533.664 185.968 533.185 187.148 531.68ZM288.94 529.112C290.852 530.73 291.385 531.458 290.662 531.458C290.49 531.457 289.575 530.542 288.629 529.425L286.907 527.391L288.94 529.112ZM228.381 498.922C228.755 498.923 224.69 503.158 219.346 508.332C214.002 513.506 209.629 518.146 209.629 518.643C209.629 519.139 211.442 519.518 213.658 519.484C219.941 519.389 222.145 522.345 219.068 526.738C217.14 529.491 215.92 529.268 213.019 525.632C211.652 523.919 210.533 522.088 210.533 521.564C210.533 521.041 210.126 520.612 209.629 520.612C209.132 520.612 208.726 519.391 208.726 517.9C208.726 516.409 209.067 515.189 209.484 515.189C209.902 515.189 214.171 511.529 218.972 507.055C223.772 502.581 228.006 498.921 228.381 498.922ZM353.966 515.2C354.708 515.214 358.76 521.014 358.762 522.065C358.762 522.382 358.152 522.135 357.406 521.516C355.432 519.877 355.784 521.599 357.962 524.228C359.504 526.089 359.73 526.169 359.244 524.68C358.797 523.309 358.909 523.123 359.706 523.914C360.41 524.612 360.472 525.466 359.896 526.496C359.171 527.791 358.564 527.269 356.064 523.207C354.431 520.552 353.759 518.933 354.572 519.607C356.444 521.161 356.483 519.826 354.644 517.198C353.87 516.093 353.565 515.194 353.966 515.2ZM214.306 524.18C215.462 525.643 216.496 526.863 216.603 526.891C216.71 526.919 217.26 526.073 217.825 525.017C219.022 522.781 217.784 521.553 214.306 521.53L212.203 521.518L214.306 524.18ZM264.777 522.189C264.795 519.92 266.532 516.495 266.557 518.686C266.569 519.705 266.821 519.718 267.977 518.759C269.231 517.718 269.259 517.862 268.244 520.09C267.224 522.329 267.03 522.415 266.374 520.92C265.824 519.667 265.727 519.87 265.981 521.737C266.168 523.104 265.969 524.224 265.542 524.224C265.114 524.223 264.77 523.308 264.777 522.189ZM418.873 521.522C418.557 521.01 418.92 520.859 419.724 521.167C421.289 521.768 421.576 522.416 420.276 522.416C419.808 522.416 419.177 522.014 418.873 521.522ZM261.773 515.069C263.077 514.012 263.189 514.018 262.533 515.105C262.11 515.808 261.463 517.638 261.096 519.173L260.429 521.963L260.337 519.137C260.284 517.48 260.877 515.796 261.773 515.069ZM258.508 520.081C258.549 519.028 258.765 518.814 259.054 519.535C259.314 520.188 259.283 520.967 258.982 521.268C258.682 521.568 258.468 521.033 258.508 520.081ZM270.821 517.896C271.865 517.897 274.274 520.461 273.704 520.965C273.508 521.137 272.566 520.517 271.609 519.587C270.653 518.657 270.298 517.896 270.821 517.896ZM318.742 518.755C319.847 517.592 320.926 516.822 321.14 517.043C321.352 517.264 320.448 518.215 319.131 519.156L316.733 520.868L318.742 518.755ZM350.34 511.222C349.541 509.14 351.239 510.241 352.521 512.636C353.243 513.986 353.244 514.332 352.525 513.888C351.28 513.118 351.259 513.894 352.466 516.151C354.106 519.217 352.689 518.026 350.715 514.682C349.671 512.912 349.294 511.758 349.876 512.118C350.595 512.562 350.744 512.275 350.34 511.222ZM368.425 510.683C369.017 510.677 369.752 511.076 370.06 511.572C370.753 512.694 370.441 512.694 368.704 511.572C367.89 511.046 367.778 510.691 368.425 510.683ZM406.26 506.709C407.064 506.4 407.427 506.551 407.11 507.063C406.58 507.922 404.857 508.334 404.857 507.602C404.858 507.406 405.489 507.005 406.26 506.709ZM328.323 504.116C325.939 501.468 324.529 498.814 326.769 501.19C329.246 503.819 331.027 506.149 330.56 506.149C330.337 506.149 329.33 505.235 328.323 504.116ZM253.988 504.719C254.03 503.666 254.246 503.452 254.534 504.173C254.795 504.825 254.763 505.604 254.463 505.904C254.163 506.205 253.949 505.671 253.988 504.719ZM411.403 503.809C412.35 502.818 413.258 502.505 413.679 503.024C414.064 503.5 414.216 503.802 414.018 503.695C413.819 503.589 412.796 503.942 411.743 504.479C409.912 505.415 409.897 505.385 411.403 503.809ZM402.146 499.822C403.14 499.29 403.953 499.059 403.953 499.308C403.953 499.556 403.139 500.195 402.146 500.727C401.152 501.259 400.338 501.491 400.338 501.242C400.338 500.994 401.151 500.354 402.146 499.822ZM251.513 495.706C250.434 494.051 250.076 492.909 250.713 493.153C251.794 493.569 254.291 497.981 253.725 498.475C253.581 498.599 252.586 497.353 251.513 495.706ZM230.418 496.207C231.412 495.675 232.226 495.444 232.226 495.692C232.225 495.941 231.412 496.579 230.418 497.111C229.424 497.644 228.61 497.875 228.609 497.627C228.609 497.378 229.424 496.739 230.418 496.207ZM233.129 493.588C233.13 492.881 239.49 489.614 239.957 490.08C240.109 490.232 238.636 491.233 236.682 492.304C234.728 493.374 233.129 493.952 233.129 493.588ZM328.988 486.266C329.373 486.266 330.976 487.892 332.551 489.881C334.126 491.869 335.262 493.496 335.077 493.496C334.89 493.494 333.288 491.868 331.516 489.881C329.742 487.893 328.605 486.267 328.988 486.266ZM393.334 492.563C390.204 491.306 390.925 490.752 394.237 491.869C395.853 492.414 397.345 493.003 397.552 493.178C398.287 493.798 395.336 493.368 393.334 492.563ZM175.283 469.935C175.283 467.67 177.248 467.685 178.67 469.962C181.781 474.943 189.743 489.861 189.745 490.712C189.745 493.5 186.707 490.874 182.229 484.213C177.007 476.444 175.283 472.902 175.283 469.935ZM332.752 486.666C332.961 486.458 334.03 487.502 335.128 488.987C336.226 490.473 336.807 491.676 336.419 491.66C336.031 491.642 334.963 490.599 334.044 489.338C333.125 488.077 332.543 486.874 332.752 486.666ZM330.743 483.223C330.743 482.656 331.164 482.71 331.812 483.358C332.401 483.947 332.672 484.638 332.415 484.895C332.158 485.151 331.677 485.09 331.346 484.759C331.014 484.427 330.743 483.736 330.743 483.223ZM329.185 478.483C329.421 478.247 329.856 478.68 330.15 479.447C330.762 481.04 330.242 481.32 329.351 479.878C329.023 479.348 328.948 478.72 329.185 478.483ZM349.724 475.759C349.726 475.358 353.695 477.383 356.051 478.987C358.663 480.766 355.569 479.889 352.661 478.026C351.046 476.992 349.724 475.971 349.724 475.759ZM208.499 473.629C207.876 473.641 204.522 474.418 201.043 475.355L194.716 477.061L200.743 477.143C204.057 477.187 207.412 476.977 208.199 476.676C209.891 476.027 210.13 473.599 208.499 473.629ZM346.231 473.184C346.519 472.896 347.269 473.282 347.897 474.039C349.201 475.61 348.951 475.758 347.038 474.548C346.307 474.085 345.944 473.471 346.231 473.184ZM341.327 468.186C341.854 468.186 342.951 469.203 343.766 470.445C344.58 471.688 345.104 472.705 344.931 472.705C344.756 472.704 343.66 471.687 342.493 470.445C341.326 469.203 340.801 468.186 341.327 468.186ZM334.117 466.266C334.73 465.648 335.46 465.37 335.738 465.648C336.017 465.927 335.515 466.432 334.623 466.771C333.335 467.262 333.231 467.158 334.117 466.266ZM426.55 464.598C427.755 464.598 427.755 464.696 426.55 465.475C425.804 465.956 424.584 466.351 423.838 466.351C422.633 466.351 422.633 466.253 423.838 465.475C424.584 464.993 425.804 464.598 426.55 464.598ZM394.225 412.538C394.466 412.297 398.076 415.691 402.246 420.082C408.265 426.418 411.211 430.566 416.532 440.188C420.648 447.629 423.309 453.508 423.425 455.414C423.55 457.47 424.334 459.062 425.746 460.127C426.919 461.011 427.675 461.939 427.427 462.188C427.178 462.436 425.964 461.877 424.729 460.945C423.036 459.669 422.469 458.384 422.428 455.733C422.32 448.883 408.626 427.449 397.3 416.403C395.367 414.519 393.984 412.78 394.225 412.538ZM360.157 450.173C359.854 449.683 360.738 449.872 362.121 450.594C363.504 451.315 365.121 451.908 365.713 451.911C366.305 451.914 367.041 452.323 367.349 452.82C368.074 453.994 367.105 453.866 363.576 452.32C361.999 451.629 360.46 450.663 360.157 450.173ZM355.829 446.493C356.326 446.493 357.24 447.104 357.858 447.85C358.486 448.606 358.583 449.205 358.079 449.205C357.582 449.205 356.669 448.595 356.051 447.85C355.423 447.093 355.325 446.493 355.829 446.493ZM360.994 436.729C361.194 436.53 362.812 439.255 364.59 442.786C366.368 446.316 367.628 449.204 367.392 449.205C367.154 449.205 366.461 448.29 365.852 447.172C362.624 441.25 360.673 437.055 360.994 436.729ZM396.723 445.59C397.204 444.844 397.599 444.641 397.599 445.138C397.599 445.635 397.205 446.652 396.723 447.397C396.241 448.143 395.847 448.346 395.847 447.85C395.847 447.353 396.241 446.335 396.723 445.59ZM357.406 443.9C358.897 442.977 360.321 442.403 360.568 442.624C361.253 443.237 357.704 445.59 356.104 445.585C355.291 445.582 355.842 444.869 357.406 443.9ZM359.789 434.786C360.466 434.809 359.089 435.834 356.729 437.062C354.236 438.36 352.436 439.925 352.436 440.794C352.436 442.05 352.77 441.975 354.527 440.324C357.42 437.607 358.656 437.846 356.051 440.619C353.395 443.447 351.531 443.515 351.531 440.785C351.531 439.295 352.543 438.124 355.044 436.718C356.976 435.632 359.111 434.763 359.789 434.786ZM438.356 431.182C438.392 430.29 438.709 430.505 439.218 431.77C440.079 433.908 445.947 438.562 450.684 440.862C453.057 442.015 453.829 442.059 454.977 441.106C456.427 439.903 456.924 436.553 455.653 436.552C455.256 436.552 454.442 437.039 453.846 437.636C453.12 438.361 452.761 438.393 452.761 437.732C452.761 436.775 454.757 435.647 456.45 435.647C457.688 435.648 457.397 439.485 456.021 441.297C454.25 443.63 452.021 443.18 446.019 439.28C440.255 435.535 438.265 433.432 438.356 431.182ZM151.439 437.714C151.029 437.305 143.992 439.727 138.679 442.106C135.322 443.61 141.571 442.05 146.912 440.052C149.66 439.024 151.697 437.972 151.439 437.714ZM358.762 438.932C358.762 438.365 359.182 438.419 359.831 439.067C360.42 439.656 360.69 440.347 360.434 440.604C360.177 440.86 359.696 440.799 359.364 440.468C359.033 440.136 358.762 439.445 358.762 438.932ZM395.891 437.832C395.932 436.779 396.148 436.565 396.437 437.286C396.697 437.939 396.666 438.718 396.365 439.019C396.065 439.319 395.851 438.785 395.891 437.832ZM450.56 436.816C450.069 435.528 450.172 435.425 451.064 436.311C451.682 436.924 451.96 437.652 451.682 437.931C451.404 438.209 450.899 437.708 450.56 436.816ZM451.458 432.937C451.677 432.937 451.856 433.343 451.856 433.84C451.856 434.337 451.426 434.744 450.899 434.744C450.373 434.744 450.194 434.337 450.501 433.84C450.808 433.343 451.239 432.937 451.458 432.937ZM393.107 429.894C393.107 429.327 393.528 429.38 394.177 430.028C394.765 430.617 395.036 431.309 394.779 431.565C394.522 431.822 394.041 431.761 393.71 431.43C393.378 431.098 393.108 430.407 393.107 429.894ZM444.674 423.669C444.698 423.049 445.411 423.558 446.255 424.8C447.099 426.042 448.768 427.977 449.965 429.102C451.161 430.226 451.93 431.357 451.673 431.613C451.415 431.869 449.725 430.441 447.916 428.438C446.106 426.435 444.648 424.289 444.674 423.669ZM595.341 428.783C597.251 430.401 597.785 431.129 597.062 431.129C596.891 431.129 595.975 430.213 595.028 429.095L593.307 427.062L595.341 428.783ZM436.549 425.405C436.578 424.825 436.995 425.324 437.472 426.515C437.948 427.705 438.176 428.841 437.979 429.039C437.781 429.237 437.366 428.737 437.056 427.93C436.746 427.122 436.518 425.986 436.549 425.405ZM395.763 423.191C396.26 422.337 396.68 422.118 396.695 422.703C396.731 424.08 394.194 426.617 392.817 426.582C392.231 426.567 392.451 426.147 393.305 425.649C394.159 425.152 395.265 424.045 395.763 423.191ZM395.766 419.379C396.292 419.379 396.723 419.785 396.723 420.282C396.723 420.779 396.543 421.187 396.324 421.187C396.105 421.186 395.674 420.779 395.367 420.282C395.06 419.785 395.239 419.379 395.766 419.379ZM390.396 414.099C393.793 411.587 393.941 412.401 390.622 415.339C388.52 417.199 388.346 417.678 389.492 418.444C390.655 419.222 390.623 419.353 389.267 419.365C388.337 419.374 387.685 418.703 387.685 417.741C387.685 416.84 388.905 415.201 390.396 414.099ZM460.582 410.375C461.693 410.427 470.558 418.441 469.481 418.42C468.984 418.41 466.606 416.589 464.197 414.372C461.788 412.155 460.161 410.356 460.582 410.375ZM440.177 412.982C437.59 410.396 437.664 409.806 440.441 410.872C441.927 411.442 444.262 417.333 443.36 418.234C443.062 418.532 442.818 418.067 442.818 417.2C442.818 416.333 441.63 414.435 440.177 412.982ZM470.105 411.244C470.71 411.244 470.659 411.725 469.966 412.561C469.365 413.284 469.17 414.356 469.532 414.942C469.977 415.661 470.58 415.306 471.386 413.852C472.48 411.877 472.589 411.848 472.677 413.504L472.772 415.312L473.549 413.504C474.153 412.097 474.339 412.025 474.389 413.178C474.424 413.993 473.741 415.425 472.871 416.36C472.001 417.296 471.594 417.666 471.967 417.184C473.188 415.603 472.677 414.611 471.251 415.795C470.272 416.608 469.573 416.668 468.901 415.997C467.786 414.882 468.708 411.244 470.105 411.244ZM594.556 394.976C595.053 394.976 595.711 395.382 596.019 395.879C596.325 396.376 596.17 396.783 595.673 396.783C595.176 396.783 594.518 396.376 594.211 395.879C593.903 395.382 594.059 394.976 594.556 394.976ZM134.837 385.949C139.13 385.968 141.842 386.878 141.842 388.302C141.842 389.54 137.162 389.89 133.481 388.929C130.633 388.184 131.656 385.936 134.837 385.949ZM97.5537 378.979C97.5537 376.405 108.361 377.263 117.999 380.603C122.162 382.045 126.518 383.225 127.68 383.226C130.402 383.226 131.239 384.103 129.974 385.628C129 386.801 127.22 386.93 121.506 386.244C111.804 385.079 97.5538 380.757 97.5537 378.979ZM115.84 381.812C109.895 379.514 97.601 377.636 102.073 379.71C105.232 381.174 116.526 383.996 119.246 384C120.714 384.002 119.52 383.236 115.84 381.812ZM561.898 356.898C563.332 355.774 563.364 355.807 562.239 357.24C561.059 358.746 560.316 359.224 560.316 358.48C560.317 358.293 561.029 357.581 561.898 356.898ZM194.726 352.523C194.278 351.114 194.388 350.657 195.071 351.079C197.055 352.305 196.167 355.779 193.586 356.894L191.101 357.968L193.24 356.277C194.87 354.99 195.224 354.095 194.726 352.523ZM181.676 335.893C179.403 333.473 178.357 331.911 179.351 332.421C180.345 332.931 182.168 334.504 183.401 335.917C190.053 343.536 194.388 349.056 194.013 349.432C193.779 349.664 191.838 347.704 189.698 345.074C187.558 342.444 183.948 338.313 181.676 335.893ZM508.798 333.183C508.798 332.617 509.22 332.67 509.868 333.318C510.457 333.907 510.728 334.599 510.471 334.855C510.214 335.112 509.732 335.051 509.4 334.72C509.069 334.388 508.798 333.696 508.798 333.183ZM483.139 333.062C483.882 329.739 484.399 329.018 484.381 331.33C484.375 332.283 483.954 333.672 483.449 334.418C482.779 335.408 482.696 335.043 483.139 333.062ZM486.202 328.564C486.202 328.063 489.031 329.159 495.692 332.24C500.088 334.273 500.16 334.32 499.666 334.813C499.449 335.031 496.33 333.826 492.736 332.136C489.143 330.445 486.202 328.838 486.202 328.564ZM188.615 331.687C186.608 330.832 186.611 330.824 188.832 331.038C190.144 331.165 191.208 331.915 191.384 332.837C191.712 334.562 190.322 334.777 187.485 333.438C185.937 332.708 186.034 332.634 188.163 332.925C191.177 333.336 191.354 332.852 188.615 331.687ZM487.746 324.306C484.114 320.952 484.227 320.992 490.27 325.203C493.749 327.628 498.575 330.438 500.993 331.446C503.411 332.455 505.028 333.504 504.586 333.777C504.143 334.051 501.029 332.822 497.665 331.046C494.301 329.27 489.838 326.237 487.746 324.306ZM505.254 330.511C505.168 328.521 507.971 328.763 508.645 330.803C509.018 331.934 508.858 331.965 507.678 330.991C506.522 330.037 506.177 330.037 505.794 330.991C505.506 331.709 505.298 331.523 505.254 330.511ZM543.822 320.745C545.255 319.621 545.287 319.654 544.163 321.087C542.982 322.592 542.24 323.071 542.24 322.327C542.24 322.139 542.952 321.427 543.822 320.745ZM504.524 311.872C505.134 311.9 502.38 313.054 498.404 314.437C494.428 315.82 489.872 317.628 488.281 318.454C483.961 320.698 483.395 320.247 487.559 317.878C491.261 315.772 502.53 311.783 504.524 311.872ZM544.242 311.836C545.378 311.844 546.917 312.245 547.663 312.727C548.792 313.456 548.717 313.619 547.211 313.706C545.512 313.804 545.52 313.846 547.345 314.398C548.988 314.896 549.092 315.165 548.022 316.151C547.293 316.824 546.76 316.919 546.76 316.377C546.76 315.86 546.164 315.438 545.436 315.438C544.707 315.438 543.676 314.624 543.144 313.63C542.307 312.067 542.456 311.824 544.242 311.836ZM176.701 297.26C182.748 296.13 183.7 297.408 179.805 301.427C178.118 303.167 176.512 304.589 176.236 304.587C175.961 304.584 174.619 303.67 173.254 302.554C170.01 299.902 171.042 298.317 176.701 297.26ZM177.38 298.892C173.202 299.537 172.672 299.915 174.406 301.012C176.153 302.117 176.017 302.145 178.593 300.119L180.832 298.358L177.38 298.892ZM167.393 297.672C166.781 297.424 165.56 297.41 164.681 297.639C163.802 297.868 164.302 298.07 165.793 298.089C167.284 298.107 168.004 297.919 167.393 297.672ZM135.051 288.322C137.705 288.323 137.769 291.196 135.164 293.437C132.355 295.853 129.188 296.234 129.188 294.156C129.189 292.334 133.22 288.322 135.051 288.322ZM135.066 291.029C136.111 289.34 133.991 290.127 132.266 292.069C130.556 293.995 130.558 294.002 132.527 292.969C133.618 292.397 134.761 291.524 135.066 291.029ZM516.934 285.349C517.928 285.088 518.515 285.245 518.236 285.695C517.75 286.482 515.126 286.882 515.125 286.169C515.125 285.978 515.939 285.609 516.934 285.349ZM509.25 284.785C510.244 284.758 511.668 285.129 512.414 285.611C513.619 286.39 513.619 286.482 512.414 286.438C511.668 286.41 510.244 286.039 509.25 285.611L507.442 284.834L509.25 284.785ZM559.064 274.944C560.576 274.729 561.096 275.273 561.55 277.543C561.865 279.122 562.124 280.719 562.124 281.095C562.124 281.469 559.379 282.454 556.023 283.281C552.668 284.109 549.284 284.977 548.502 285.209C547.72 285.441 546.805 285.355 546.468 285.019C544.937 283.488 545.963 279.103 548.341 277.01C551.508 274.222 552.528 274.23 554.378 277.054C555.965 279.476 557.824 279.277 557.403 276.73C557.245 275.775 557.857 275.117 559.064 274.944ZM509.532 283.187C510.185 282.925 510.964 282.957 511.265 283.258C511.565 283.558 511.031 283.772 510.079 283.732C509.026 283.689 508.812 283.475 509.532 283.187ZM553.999 279.273C551.911 276.995 551.599 276.914 549.705 278.154C548.582 278.89 547.663 280.392 547.663 281.491C547.663 283.397 547.863 283.449 551.957 282.61L556.251 281.731L553.999 279.273ZM518.213 281.105C520.525 281.087 519.804 281.604 516.48 282.348C514.5 282.791 514.135 282.707 515.125 282.037C515.871 281.533 517.26 281.113 518.213 281.105ZM559.273 276.938C558.613 276.531 558.476 276.692 558.899 277.377C559.267 277.973 559.076 279.053 558.476 279.776C557.596 280.836 557.669 281.092 558.851 281.092C559.699 281.092 560.316 280.353 560.316 279.338C560.316 278.373 559.847 277.293 559.273 276.938ZM171.73 269.063C172.607 265.908 172.924 265.644 175.538 265.899C177.531 266.094 178.802 266.915 179.756 268.623C181.016 270.878 180.976 271.262 179.236 273.594C177.039 276.54 174.834 277.252 174.07 275.262C173.775 274.492 172.91 273.861 172.148 273.861C170.51 273.861 170.483 273.554 171.73 269.063ZM175.702 267.534C173.109 267.534 172.3 270.876 174.348 273.13C176.122 275.083 175.917 275.115 177.543 272.633C179.305 269.943 178.436 267.534 175.702 267.534ZM508.798 255.731C508.798 255.205 509.205 255.026 509.702 255.333C510.199 255.64 510.605 256.071 510.605 256.29C510.605 256.509 510.199 256.688 509.702 256.688C509.205 256.688 508.798 256.258 508.798 255.731ZM497.895 240.461C498.585 239.386 499.119 239.348 500.831 240.251C502.32 241.036 503.794 241.101 505.942 240.475C508.513 239.726 508.881 239.803 508.424 240.995C506.579 245.804 506.723 246.746 509.303 246.746C512.805 246.746 511.783 247.309 507.222 247.891C504.222 248.273 502.745 247.95 500.449 246.402C497.294 244.276 496.552 242.551 497.895 240.461ZM500.753 242.274C497.62 240.598 497.646 242.971 500.782 244.878C504.031 246.854 504.743 246.722 505.451 244.012C505.843 242.513 505.608 242.258 504.238 242.692C503.304 242.989 501.736 242.8 500.753 242.274ZM521.226 242.357C522.344 241.754 523.25 241.579 523.237 241.97C523.206 242.809 517.344 245.845 515.766 245.837C515.165 245.834 515.69 245.296 516.933 244.643C518.175 243.989 520.107 242.961 521.226 242.357ZM518.656 201.155C519.107 200.877 519.263 201.462 519.003 202.457C518.451 204.567 517.837 204.834 517.837 202.964C517.837 202.248 518.206 201.434 518.656 201.155ZM520.602 197.035C521.128 197.035 521.307 197.442 521 197.939C520.693 198.436 520.262 198.842 520.043 198.843C519.824 198.843 519.645 198.436 519.645 197.939C519.645 197.442 520.075 197.035 520.602 197.035ZM492.155 186.489C496.454 184.521 497.804 184.318 502.946 184.869C506.179 185.215 509.07 185.897 509.37 186.383C510.183 187.698 507.901 189.566 503.865 190.891C501.274 191.741 500.142 192.688 499.758 194.324C499.328 196.154 498.376 196.782 494.749 197.627C488.123 199.17 478.972 199.156 478.972 197.603C478.972 195.57 486.878 188.905 492.155 186.489ZM502.78 186.684C496.017 185.892 490.791 187.844 484.732 193.429L480.82 197.035L485.997 197.03C488.844 197.027 492.698 196.602 494.562 196.084C497.201 195.351 497.952 194.69 497.952 193.101C497.952 191.434 498.906 190.718 503.149 189.197L508.347 187.335L502.78 186.684ZM503.9 128.653C510.472 123.707 510.871 123.536 512.063 125.167C512.753 126.11 513.323 127.72 513.331 128.743C513.355 131.754 514.716 133.081 518.396 133.68C521.608 134.202 522.137 134.752 525.768 141.34C527.919 145.244 529.556 148.493 529.406 148.56C524.227 150.87 509.026 160.843 497.501 169.492C485.872 178.219 472.845 187.094 471.664 187.094C471.209 187.093 470.837 185.963 470.837 184.583C470.837 181.078 472.632 178.868 479.403 174.036C485.597 169.617 488.325 166.305 485.774 166.305C485.007 166.305 482.694 167.525 480.636 169.017C476.39 172.092 475.163 172.318 473.51 170.325C472.553 169.172 472.62 168.047 473.893 164.011C477.232 153.415 488.253 140.43 503.9 128.653ZM534.651 180.767C535.431 180.768 533.316 184.067 531.705 185.36C530.573 186.27 530.708 185.788 532.169 183.704C533.302 182.089 534.419 180.767 534.651 180.767ZM510.594 181.933C512.107 180.008 512.477 179.88 512.95 181.112C513.794 183.312 512.699 185.286 510.635 185.286C509.625 185.286 508.798 185.044 508.798 184.75C508.798 184.455 509.607 183.187 510.594 181.933ZM510.327 126.559C508.487 126.596 493.959 138.818 487.439 145.813C481.319 152.381 476.189 161.064 474.933 166.983C474.123 170.799 475.725 170.866 480.327 167.209C483.767 164.475 487.406 163.692 488.492 165.45C489.533 167.137 485.262 172.098 479.44 175.963C475.604 178.51 473.461 180.622 472.806 182.502L471.837 185.279L476.977 181.992C479.803 180.184 488.017 174.36 495.23 169.051C509.766 158.351 517.27 153.216 523.033 150.023C525.146 148.853 526.863 147.665 526.848 147.384C526.835 147.1 525.457 144.437 523.792 141.464C521.079 136.619 520.353 135.956 516.835 135.1C513.169 134.207 512.857 133.889 512.155 130.34C511.742 128.248 510.919 126.547 510.327 126.559ZM542.076 172.632C542.838 172.632 536.333 179.712 535.504 179.786C535.03 179.828 536.231 178.236 538.173 176.247C540.114 174.26 541.869 172.633 542.076 172.632ZM534.881 163.644C537.623 162.2 538.806 163.352 538.806 167.465C538.805 175.563 528.835 180.762 521.226 176.634C519.859 175.892 518.741 174.931 518.74 174.498C518.74 173.773 529.921 166.254 534.881 163.644ZM537.077 166.051C536.398 164.53 535.672 164.805 529.117 169.063C520.326 174.775 520.769 174.359 522.382 175.379C524.63 176.801 529.885 176.333 532.998 174.436C536.339 172.399 538.201 168.57 537.077 166.051ZM548.43 166.306C548.678 166.306 547.927 167.322 546.76 168.564C545.592 169.807 544.433 170.824 544.185 170.824C543.936 170.824 544.688 169.807 545.855 168.564C547.022 167.323 548.18 166.307 548.43 166.306ZM206.146 125.548C207.463 124.731 213.69 130.949 214.695 134.084C215.81 137.562 213.524 137.459 210.297 133.887C205.764 128.87 204.591 126.513 206.146 125.548ZM209.561 130.378C211.608 132.701 212.341 133.278 212.341 132.569C212.341 132.407 211.223 131.288 209.855 130.083L207.37 127.893L209.561 130.378ZM343.621 113.205C344.865 111.645 348.764 111.784 349.389 113.411C350.162 115.428 344.168 126.801 342.187 127.075C340.899 127.253 340.629 126.861 340.991 125.339C341.249 124.258 341.743 121.339 342.09 118.854C342.437 116.368 343.126 113.827 343.621 113.205ZM318.993 122.921C319.475 122.176 319.869 121.972 319.869 122.469C319.869 122.966 319.475 123.983 318.993 124.729C318.512 125.474 318.117 125.678 318.117 125.181C318.117 124.684 318.511 123.667 318.993 122.921ZM314.421 122.921C314.947 122.921 315.378 123.328 315.378 123.825C315.378 124.322 315.198 124.728 314.979 124.729C314.761 124.729 314.33 124.322 314.022 123.825C313.715 123.328 313.894 122.921 314.421 122.921ZM346.222 113.883C344.521 113.883 343.345 117.081 343.438 121.452C343.467 122.851 344.07 122.269 345.656 119.306C346.854 117.069 347.853 114.933 347.875 114.561C347.898 114.188 347.153 113.883 346.222 113.883ZM178.142 85.1748C179.58 83.7372 184.837 87.2327 188.826 92.2793C190.704 94.6553 194.341 100.494 196.906 105.253C199.472 110.012 202.774 115.276 204.244 116.951C205.715 118.626 206.918 120.451 206.918 121.007C206.918 122.133 203.368 122.359 201.922 121.325C201.041 120.696 194.869 112.813 186.336 101.415C180.867 94.1103 176.956 86.36 178.142 85.1748ZM339.852 111.046C341.705 113.322 342.129 117.977 340.686 120.21C340.047 121.197 339.801 120.46 339.781 117.498C339.764 115.261 339.326 112.821 338.802 112.075C338.113 111.094 338.01 112.156 338.429 115.916C338.959 120.678 338.711 122.184 337.682 120.436C336.514 118.451 336.215 113.874 337.103 111.555L338.114 108.912L339.852 111.046ZM318.993 120.156C318.993 119.63 319.4 119.451 319.897 119.758C320.394 120.065 320.801 120.496 320.801 120.715C320.801 120.934 320.394 121.113 319.897 121.113C319.4 121.113 318.993 120.683 318.993 120.156ZM180.898 89.7002C183.227 94.569 190.699 104.817 201.991 118.628C204.618 121.841 204.109 120.075 201.21 115.916C199.564 113.555 196.858 108.979 195.197 105.748C190.339 96.297 186.477 91.1885 181.464 87.584L179.059 85.8545L180.898 89.7002ZM314.762 89.4795C317.77 89.4795 319.532 90.1456 322.445 92.3848C327.36 96.162 327.835 97.8679 324.935 101.315C323.655 102.836 322.402 104.964 322.15 106.044C321.725 107.873 321.022 111.753 320.868 113.125C320.833 113.454 318.869 113.658 316.508 113.577C312.416 113.438 312.229 113.537 312.528 115.69C312.701 116.933 313.26 118.459 313.77 119.08C314.436 119.893 314.317 120.21 313.345 120.21C312.48 120.21 311.803 118.989 311.464 116.82C311.042 114.119 310.582 95.7359 310.809 90.6094C310.838 89.8877 312.269 89.4795 314.762 89.4795ZM553.99 111.342C553.99 106.021 559.181 101.488 560.711 105.473C561.051 106.358 560.589 107.981 559.617 109.314C558.692 110.584 557.67 112.335 557.347 113.205C557.023 114.075 556.135 114.787 555.374 114.787C554.373 114.787 553.99 113.833 553.99 111.342ZM557.583 106.652C556.614 106.652 554.842 110.515 554.965 112.36C555.006 112.949 555.268 112.821 555.55 112.075C555.832 111.33 556.613 110.395 557.286 109.997C558.715 109.153 558.937 106.653 557.583 106.652ZM317.035 91.1367C312.309 90.7071 312.55 90.1949 312.377 101.003L312.215 111.172H315.94C319.62 111.172 319.674 111.124 320.275 107.36C320.611 105.264 321.957 102.144 323.268 100.426L325.65 97.3018L322.171 94.2939C320.258 92.6401 317.947 91.2198 317.035 91.1367ZM476.446 98.1943C477.291 97.6618 478.277 97.5211 478.638 97.8818C479.315 98.5617 476.122 104.999 473.727 107.782C472.15 109.613 469.901 109.886 470.005 108.233C470.116 106.473 474.736 99.2733 476.446 98.1943ZM477.279 99.6475C478.403 98.2141 478.372 98.1817 476.938 99.3057C476.069 99.9877 475.357 100.7 475.356 100.888C475.356 101.632 476.099 101.153 477.279 99.6475ZM600.712 97.8574C600.483 96.978 600.281 97.4784 600.262 98.9697C600.244 100.461 600.43 101.18 600.678 100.568C600.926 99.9565 600.939 98.7368 600.712 97.8574ZM492.888 76.5449C502.152 63.4863 510.609 55.9886 510.605 60.8359C510.605 61.428 509.42 64.4153 507.973 67.4746C506.11 71.4119 502.565 75.9482 495.84 82.998C490.614 88.476 485.887 93.8022 485.335 94.834C483.838 97.63 481.684 97.2105 481.684 94.123C481.684 92.6211 482.798 90.1337 484.34 88.1934C485.801 86.355 489.647 81.113 492.888 76.5449ZM599.83 88.8135C599.622 87.4402 599.448 88.3497 599.44 90.835C599.435 93.3204 599.603 94.4445 599.817 93.333C600.032 92.2214 600.038 90.1874 599.83 88.8135ZM507.896 63.7178C508.73 61.524 508.689 61.4902 506.745 62.7646C504.38 64.3159 499.939 69.599 494.307 77.5625C492.086 80.7016 488.744 85.2645 486.88 87.7031C485.016 90.1418 483.491 92.6472 483.491 93.2695C483.491 93.8912 484.164 93.3947 484.987 92.166C485.811 90.9369 490.433 85.8637 495.26 80.8926C503.477 72.4287 505.766 69.3188 507.896 63.7178ZM240.387 54.2803C239.235 52.1284 237.737 51.1273 236.91 51.957C236.57 52.2981 237.252 53.3562 238.426 54.3076C241.123 56.4944 241.568 56.4879 240.387 54.2803ZM357.406 41.5762C361.579 36.965 366.491 40.9163 366.097 48.5684C365.915 52.1007 355.765 55.0831 354.564 51.957C354.275 51.2039 354.246 49.7947 354.499 48.8262C354.752 47.8577 354.392 46.5938 353.697 46.0176C351.941 44.5601 352.122 43.3838 354.103 43.3838C355.02 43.3837 356.507 42.5703 357.406 41.5762ZM364.546 44.7002C363.197 39.3251 356.129 42.1873 356.079 48.1289C356.05 51.8749 357.494 52.4691 361.833 50.4922C364.511 49.2721 365.281 47.628 364.546 44.7002ZM291.933 26.6348C297.388 23.8135 304.939 26.5205 301.884 30.2021C300.547 31.8133 295.532 31.9999 291.652 30.583C288.442 29.4103 288.513 28.4031 291.933 26.6348ZM299.902 29.9131C303.133 27.8669 297.528 26.236 293.234 27.9727C291.647 28.615 291.811 28.8178 294.59 29.6357C298.683 30.8409 298.457 30.8287 299.902 29.9131Z" fill="#5D6363"/>
</svg>
