<svg width="37" height="37" viewBox="0 0 37 37" fill="none" xmlns="http://www.w3.org/2000/svg">
<path d="M18.4 0C8.2386 0 0 8.2386 0 18.4C0 27.0219 5.93707 34.2363 13.9411 36.2327C13.8552 35.9843 13.8 35.696 13.8 35.3387V32.1939C13.0533 32.1939 11.8021 32.1939 11.4877 32.1939C10.2289 32.1939 9.10953 31.6526 8.56673 30.6467C7.96413 29.5289 7.85987 27.8193 6.3664 26.7735C5.92327 26.4255 6.2606 26.0283 6.7712 26.082C7.7142 26.3488 8.4962 26.9959 9.2322 27.9557C9.96513 28.9171 10.3101 29.1349 11.6794 29.1349C12.3433 29.1349 13.3369 29.0965 14.2723 28.9493C14.7752 27.6721 15.6446 26.496 16.7072 25.9409C10.58 25.3107 7.65593 22.2625 7.65593 18.124C7.65593 16.3423 8.41493 14.6188 9.70447 13.1667C9.28127 11.7254 8.7492 8.786 9.867 7.66667C12.6239 7.66667 14.2907 9.45453 14.6909 9.93753C16.0647 9.4668 17.5735 9.2 19.159 9.2C20.7475 9.2 22.2625 9.4668 23.6394 9.9406C24.035 9.46067 25.7033 7.66667 28.4663 7.66667C29.5887 8.78753 29.0505 11.7392 28.6227 13.1775C29.9046 14.6265 30.659 16.3453 30.659 18.124C30.659 22.2594 27.7395 25.3061 21.6215 25.9394C23.3051 26.818 24.5333 29.2867 24.5333 31.1466V35.3387C24.5333 35.4982 24.4981 35.6132 24.4797 35.7497C31.6495 33.2365 36.8 26.4285 36.8 18.4C36.8 8.2386 28.5614 0 18.4 0Z" fill="white"/>
</svg>
