<svg width="40" height="40" viewBox="0 0 40 40" fill="none" xmlns="http://www.w3.org/2000/svg">
<path d="M11.1111 0C4.98444 0 0 4.98444 0 11.1111V28.8889C0 35.0156 4.98444 40 11.1111 40H28.8889C35.0156 40 40 35.0156 40 28.8889V11.1111C40 4.98444 35.0156 0 28.8889 0H11.1111ZM11.1111 4.44444H28.8889C32.5644 4.44444 35.5556 7.43556 35.5556 11.1111V28.8889C35.5556 32.5644 32.5644 35.5556 28.8889 35.5556H11.1111C7.43556 35.5556 4.44444 32.5644 4.44444 28.8889V11.1111C4.44444 7.43556 7.43556 4.44444 11.1111 4.44444ZM31.1111 6.66667C30.5217 6.66667 29.9565 6.90079 29.5398 7.31754C29.123 7.73429 28.8889 8.29952 28.8889 8.88889C28.8889 9.47826 29.123 10.0435 29.5398 10.4602C29.9565 10.877 30.5217 11.1111 31.1111 11.1111C31.7005 11.1111 32.2657 10.877 32.6825 10.4602C33.0992 10.0435 33.3333 9.47826 33.3333 8.88889C33.3333 8.29952 33.0992 7.73429 32.6825 7.31754C32.2657 6.90079 31.7005 6.66667 31.1111 6.66667ZM20 8.88889C13.8733 8.88889 8.88889 13.8733 8.88889 20C8.88889 26.1267 13.8733 31.1111 20 31.1111C26.1267 31.1111 31.1111 26.1267 31.1111 20C31.1111 13.8733 26.1267 8.88889 20 8.88889ZM20 13.3333C23.6756 13.3333 26.6667 16.3244 26.6667 20C26.6667 23.6756 23.6756 26.6667 20 26.6667C16.3244 26.6667 13.3333 23.6756 13.3333 20C13.3333 16.3244 16.3244 13.3333 20 13.3333Z" fill="white"/>
</svg>
