<svg width="40" height="40" viewBox="0 0 40 40" fill="none" xmlns="http://www.w3.org/2000/svg">
<path d="M4.44444 0C1.98889 0 0 1.98889 0 4.44444V35.5556C0 38.0111 1.98889 40 4.44444 40H35.5556C38.0111 40 40 38.0111 40 35.5556V4.44444C40 1.98889 38.0111 0 35.5556 0H4.44444ZM4.44444 4.44444H35.5556V35.5556H4.44444V4.44444ZM10.6207 7.36979C8.71622 7.36979 7.57379 8.51462 7.57379 10.0391C7.57379 11.5635 8.71635 12.704 10.4297 12.704C12.3341 12.704 13.4766 11.5635 13.4766 10.0391C13.4766 8.51462 12.334 7.36979 10.6207 7.36979ZM7.72569 15.5556V31.1111H13.3333V15.5556H7.72569ZM17.9601 15.5556V31.1111H23.5677V22.6085C23.5677 20.0774 25.3736 19.7135 25.9158 19.7135C26.458 19.7135 27.908 20.2574 27.908 22.6085V31.1111H33.3333V22.6085C33.3333 17.7263 31.1639 15.5556 28.4505 15.5556C25.7372 15.5556 24.2899 16.459 23.5677 17.7257V15.5556H17.9601Z" fill="white"/>
</svg>
