<svg width="60" height="60" viewBox="0 0 60 60" fill="none" xmlns="http://www.w3.org/2000/svg">
<path d="M30 60C46.5685 60 60 46.5685 60 30C60 13.4315 46.5685 0 30 0C13.4315 0 0 13.4315 0 30C0 46.5685 13.4315 60 30 60Z" fill="white"/>
<path fill-rule="evenodd" clip-rule="evenodd" d="M29.9995 3.67218C25.5239 3.6724 21.1222 4.81305 17.21 6.98643C18.2662 7.93063 19.1112 9.08705 19.6897 10.3801C20.2683 11.6732 20.5674 13.0737 20.5675 14.4903C20.5675 15.8123 20.3071 17.1214 19.8011 18.3428C19.2951 19.5642 18.5534 20.674 17.6183 21.6088C16.6833 22.5436 15.5733 23.2852 14.3516 23.7911C13.1299 24.297 11.8205 24.5574 10.4982 24.5574C8.41976 24.5571 6.39237 23.9138 4.69418 22.7158C4.01226 25.0838 3.66624 27.5358 3.66626 30C3.66622 36.9824 6.44057 43.6789 11.379 48.6163C16.3174 53.5537 23.0154 56.3276 29.9995 56.3278C33.4577 56.3279 36.8821 55.6469 40.0772 54.3238C43.2722 53.0008 46.1753 51.0615 48.6207 48.6167C51.066 46.1719 53.0058 43.2696 54.3292 40.0753C55.6526 36.881 56.3338 33.4574 56.3338 30C56.3338 26.5425 55.6526 23.119 54.3292 19.9247C53.0058 16.7304 51.066 13.828 48.6207 11.3833C46.1753 8.9385 43.2722 6.99921 40.0772 5.67614C36.8821 4.35307 33.4577 3.67212 29.9995 3.67218ZM39.0279 23.8065C39.052 23.8063 39.0762 23.8063 39.1004 23.8065C40.7433 23.8067 42.3188 24.4593 43.4805 25.6208C44.6422 26.7823 45.2948 28.3575 45.2949 30C45.2948 31.6425 44.6422 33.2177 43.4805 34.3792C42.3188 35.5407 40.7433 36.1933 39.1004 36.1935C37.4573 36.1936 35.8814 35.5411 34.7195 34.3796C33.5576 33.2181 32.9048 31.6427 32.9047 30C32.9047 28.3698 33.5475 26.8053 34.6938 25.6458C35.8401 24.4864 37.3974 23.8255 39.0279 23.8065ZM21.5023 26.1339C21.5168 26.1338 21.5312 26.1338 21.5456 26.1339C22.5711 26.1341 23.5544 26.5415 24.2794 27.2666C25.0044 27.9916 25.4117 28.9748 25.4117 30C25.4117 31.0252 25.0044 32.0084 24.2794 32.7334C23.5544 33.4584 22.571 33.8659 21.5456 33.8661C21.0378 33.8661 20.5349 33.7661 20.0657 33.5719C19.5965 33.3776 19.1702 33.0928 18.8111 32.7338C18.452 32.3748 18.1671 31.9486 17.9728 31.4795C17.7785 31.0105 17.6784 30.5077 17.6785 30C17.6784 28.9821 18.0798 28.0052 18.7957 27.2813C19.5117 26.5575 20.4842 26.1452 21.5023 26.1339Z" fill="#5D6363"/>
</svg>
